<?xml version="1.0" encoding="UTF-8"?>
<svg xmlns="http://www.w3.org/2000/svg" viewBox="0 0 768 900" role="img" aria-label="Varythm 4">
  <rect width="768" height="900" fill="#f0eee7"/>
  <path d="M 29.04 900.00 L 29.02 891.00 L 29.00 882.00 L 28.98 873.00 L 28.95 864.00 L 28.92 855.00 L 28.88 846.00 L 28.83 837.00 L 28.78 828.00 L 28.72 819.00 L 28.65 810.00 L 28.58 801.00 L 28.49 792.00 L 28.39 783.00 L 28.28 774.00 L 28.16 765.00 L 28.03 756.00 L 27.89 747.00 L 27.73 738.00 L 27.56 729.00 L 27.37 720.00 L 27.19 711.00 L 27.00 702.00 L 26.80 693.00 L 26.56 684.00 L 26.34 675.00 L 26.15 666.00 L 25.92 657.00 L 25.71 648.00 L 25.45 639.00 L 25.22 630.00 L 25.06 621.00 L 24.81 612.00 L 24.66 603.00 L 24.43 594.00 L 24.35 585.00 L 24.20 576.00 L 24.03 567.00 L 23.92 558.00 L 23.88 549.00 L 23.76 540.00 L 23.78 531.00 L 23.79 522.00 L 23.74 513.00 L 23.79 504.00 L 23.90 495.00 L 24.10 486.00 L 24.26 477.00 L 24.42 468.00 L 24.60 459.00 L 24.88 450.00 L 25.11 441.00 L 25.37 432.00 L 25.66 423.00 L 25.91 414.00 L 26.20 405.00 L 26.45 396.00 L 26.72 387.00 L 26.96 378.00 L 27.19 369.00 L 27.40 360.00 L 27.61 351.00 L 27.80 342.00 L 27.97 333.00 L 28.12 324.00 L 28.26 315.00 L 28.39 306.00 L 28.49 297.00 L 28.59 288.00 L 28.67 279.00 L 28.75 270.00 L 28.81 261.00 L 28.86 252.00 L 28.91 243.00 L 28.94 234.00 L 28.97 225.00 L 29.00 216.00 L 29.02 207.00 L 29.04 198.00 L 29.05 189.00 L 29.07 180.00 L 29.08 171.00 L 29.08 162.00 L 29.09 153.00 L 29.09 144.00 L 29.10 135.00 L 29.10 126.00 L 29.10 117.00 L 29.10 108.00 L 29.10 99.00 L 29.11 90.00 L 29.11 81.00 L 29.11 72.00 L 29.11 63.00 L 29.11 54.00 L 29.11 45.00 L 29.11 36.00 L 29.11 27.00 L 29.11 18.00 L 29.11 9.00 L 29.11 0.00 L 34.89 0.00 L 34.89 9.00 L 34.89 18.00 L 34.89 27.00 L 34.89 36.00 L 34.89 45.00 L 34.89 54.00 L 34.89 63.00 L 34.89 72.00 L 34.89 81.00 L 34.90 90.00 L 34.90 99.00 L 34.90 108.00 L 34.90 117.00 L 34.90 126.00 L 34.91 135.00 L 34.91 144.00 L 34.92 153.00 L 34.93 162.00 L 34.94 171.00 L 34.95 180.00 L 34.97 189.00 L 34.99 198.00 L 35.01 207.00 L 35.04 216.00 L 35.07 225.00 L 35.11 234.00 L 35.15 243.00 L 35.20 252.00 L 35.26 261.00 L 35.33 270.00 L 35.41 279.00 L 35.51 288.00 L 35.61 297.00 L 35.73 306.00 L 35.86 315.00 L 36.00 324.00 L 36.17 333.00 L 36.34 342.00 L 36.54 351.00 L 36.75 360.00 L 36.97 369.00 L 37.21 378.00 L 37.47 387.00 L 37.75 396.00 L 38.02 405.00 L 38.34 414.00 L 38.62 423.00 L 38.95 432.00 L 39.26 441.00 L 39.55 450.00 L 39.89 459.00 L 40.15 468.00 L 40.39 477.00 L 40.64 486.00 L 40.93 495.00 L 41.15 504.00 L 41.30 513.00 L 41.35 522.00 L 41.47 531.00 L 41.59 540.00 L 41.56 549.00 L 41.61 558.00 L 41.57 567.00 L 41.47 576.00 L 41.36 585.00 L 41.32 594.00 L 41.10 603.00 L 40.95 612.00 L 40.68 621.00 L 40.48 630.00 L 40.20 639.00 L 39.88 648.00 L 39.60 657.00 L 39.28 666.00 L 39.00 675.00 L 38.67 684.00 L 38.34 693.00 L 38.03 702.00 L 37.74 711.00 L 37.45 720.00 L 37.17 729.00 L 36.91 738.00 L 36.67 747.00 L 36.45 756.00 L 36.25 765.00 L 36.06 774.00 L 35.89 783.00 L 35.75 792.00 L 35.62 801.00 L 35.50 810.00 L 35.40 819.00 L 35.32 828.00 L 35.24 837.00 L 35.18 846.00 L 35.13 855.00 L 35.09 864.00 L 35.05 873.00 L 35.02 882.00 L 34.99 891.00 L 34.97 900.00 Z M 93.03 900.00 L 92.99 891.00 L 92.94 882.00 L 92.89 873.00 L 92.83 864.00 L 92.76 855.00 L 92.68 846.00 L 92.59 837.00 L 92.49 828.00 L 92.38 819.00 L 92.26 810.00 L 92.13 801.00 L 91.99 792.00 L 91.83 783.00 L 91.67 774.00 L 91.50 765.00 L 91.32 756.00 L 91.13 747.00 L 90.92 738.00 L 90.74 729.00 L 83.49 720.00 L 75.00 711.00 L 74.46 702.00 L 73.21 693.00 L 72.88 684.00 L 74.03 675.00 L 73.27 666.00 L 73.44 657.00 L 73.01 648.00 L 71.99 639.00 L 73.40 630.00 L 73.86 621.00 L 73.50 612.00 L 74.47 603.00 L 73.55 594.00 L 74.34 585.00 L 75.16 576.00 L 76.35 567.00 L 75.64 558.00 L 77.01 549.00 L 76.33 540.00 L 77.42 531.00 L 82.37 522.00 L 87.40 513.00 L 89.59 504.00 L 89.76 495.00 L 89.98 486.00 L 90.13 477.00 L 90.26 468.00 L 90.42 459.00 L 90.60 450.00 L 90.74 441.00 L 90.90 432.00 L 91.08 423.00 L 91.21 414.00 L 91.37 405.00 L 91.52 396.00 L 91.65 387.00 L 91.80 378.00 L 91.93 369.00 L 92.05 360.00 L 92.17 351.00 L 92.28 342.00 L 92.39 333.00 L 92.48 324.00 L 92.57 315.00 L 92.65 306.00 L 92.73 297.00 L 92.79 288.00 L 92.85 279.00 L 92.91 270.00 L 92.96 261.00 L 93.00 252.00 L 93.04 243.00 L 93.07 234.00 L 93.10 225.00 L 93.12 216.00 L 93.14 207.00 L 93.16 198.00 L 93.17 189.00 L 93.19 180.00 L 93.20 171.00 L 93.20 162.00 L 93.21 153.00 L 93.22 144.00 L 93.22 135.00 L 93.23 126.00 L 93.23 117.00 L 93.23 108.00 L 93.23 99.00 L 93.24 90.00 L 93.24 81.00 L 93.24 72.00 L 93.24 63.00 L 93.24 54.00 L 93.24 45.00 L 93.24 36.00 L 93.24 27.00 L 93.24 18.00 L 93.24 9.00 L 93.24 0.00 L 98.76 0.00 L 98.76 9.00 L 98.76 18.00 L 98.76 27.00 L 98.76 36.00 L 98.76 45.00 L 98.76 54.00 L 98.76 63.00 L 98.76 72.00 L 98.76 81.00 L 98.77 90.00 L 98.77 99.00 L 98.77 108.00 L 98.77 117.00 L 98.78 126.00 L 98.78 135.00 L 98.79 144.00 L 98.79 153.00 L 98.80 162.00 L 98.81 171.00 L 98.83 180.00 L 98.84 189.00 L 98.86 198.00 L 98.88 207.00 L 98.91 216.00 L 98.94 225.00 L 98.98 234.00 L 99.02 243.00 L 99.07 252.00 L 99.13 261.00 L 99.20 270.00 L 99.28 279.00 L 99.37 288.00 L 99.47 297.00 L 99.59 306.00 L 99.72 315.00 L 99.86 324.00 L 100.03 333.00 L 100.20 342.00 L 100.40 351.00 L 100.60 360.00 L 100.82 369.00 L 101.06 378.00 L 101.32 387.00 L 101.58 396.00 L 101.86 405.00 L 102.15 414.00 L 102.42 423.00 L 102.74 432.00 L 103.03 441.00 L 103.31 450.00 L 103.63 459.00 L 103.91 468.00 L 104.16 477.00 L 104.41 486.00 L 104.72 495.00 L 104.96 504.00 L 108.64 513.00 L 117.18 522.00 L 124.86 531.00 L 126.11 540.00 L 125.22 549.00 L 126.34 558.00 L 125.36 567.00 L 126.26 576.00 L 126.77 585.00 L 127.23 594.00 L 125.96 603.00 L 126.59 612.00 L 125.86 621.00 L 125.97 630.00 L 127.02 639.00 L 125.65 648.00 L 124.88 657.00 L 124.72 666.00 L 123.65 675.00 L 124.50 684.00 L 123.90 693.00 L 122.41 702.00 L 121.57 711.00 L 110.86 720.00 L 101.87 729.00 L 101.62 738.00 L 101.35 747.00 L 101.12 756.00 L 100.89 765.00 L 100.68 774.00 L 100.49 783.00 L 100.31 792.00 L 100.14 801.00 L 99.98 810.00 L 99.84 819.00 L 99.71 828.00 L 99.59 837.00 L 99.49 846.00 L 99.39 855.00 L 99.31 864.00 L 99.23 873.00 L 99.16 882.00 L 99.10 891.00 L 99.05 900.00 Z M 157.25 900.00 L 157.25 891.00 L 157.25 882.00 L 157.25 873.00 L 157.25 864.00 L 157.25 855.00 L 157.24 846.00 L 157.24 837.00 L 157.24 828.00 L 157.23 819.00 L 157.23 810.00 L 157.22 801.00 L 157.21 792.00 L 157.20 783.00 L 157.19 774.00 L 157.18 765.00 L 157.16 756.00 L 157.14 747.00 L 157.12 738.00 L 152.20 729.00 L 142.99 720.00 L 142.14 711.00 L 142.13 702.00 L 141.41 693.00 L 141.08 684.00 L 140.57 675.00 L 139.94 666.00 L 139.42 657.00 L 139.62 648.00 L 138.89 639.00 L 139.20 630.00 L 138.78 621.00 L 138.36 612.00 L 139.43 603.00 L 139.43 594.00 L 139.18 585.00 L 139.10 576.00 L 138.96 567.00 L 139.16 558.00 L 139.62 549.00 L 139.26 540.00 L 138.96 531.00 L 140.62 522.00 L 140.57 513.00 L 141.04 504.00 L 141.32 495.00 L 140.75 486.00 L 141.78 477.00 L 141.80 468.00 L 141.75 459.00 L 142.65 450.00 L 145.34 441.00 L 150.11 432.00 L 153.02 423.00 L 152.92 414.00 L 152.78 405.00 L 152.72 396.00 L 152.55 387.00 L 152.57 378.00 L 152.44 369.00 L 152.38 360.00 L 152.36 351.00 L 152.31 342.00 L 152.23 333.00 L 152.33 324.00 L 152.19 315.00 L 152.27 306.00 L 152.25 297.00 L 152.44 288.00 L 152.53 279.00 L 152.55 270.00 L 152.75 261.00 L 152.85 252.00 L 152.95 243.00 L 153.15 234.00 L 153.35 225.00 L 153.57 216.00 L 153.72 207.00 L 153.93 198.00 L 154.14 189.00 L 154.38 180.00 L 154.56 171.00 L 154.78 162.00 L 154.98 153.00 L 155.16 144.00 L 155.35 135.00 L 155.51 126.00 L 155.68 117.00 L 155.83 108.00 L 155.98 99.00 L 156.12 90.00 L 156.25 81.00 L 156.36 72.00 L 156.47 63.00 L 156.56 54.00 L 156.65 45.00 L 156.73 36.00 L 156.80 27.00 L 156.86 18.00 L 156.92 9.00 L 156.97 0.00 L 163.08 0.00 L 163.13 9.00 L 163.19 18.00 L 163.26 27.00 L 163.33 36.00 L 163.42 45.00 L 163.51 54.00 L 163.61 63.00 L 163.73 72.00 L 163.86 81.00 L 164.00 90.00 L 164.15 99.00 L 164.32 108.00 L 164.49 117.00 L 164.70 126.00 L 164.90 135.00 L 165.13 144.00 L 165.37 153.00 L 165.62 162.00 L 165.92 171.00 L 166.17 180.00 L 166.50 189.00 L 166.81 198.00 L 167.13 207.00 L 167.39 216.00 L 167.73 225.00 L 168.06 234.00 L 168.40 243.00 L 168.64 252.00 L 168.88 261.00 L 169.22 270.00 L 169.38 279.00 L 169.60 288.00 L 169.91 297.00 L 170.00 306.00 L 170.19 315.00 L 170.13 324.00 L 170.30 333.00 L 170.27 342.00 L 170.26 351.00 L 170.26 360.00 L 170.20 369.00 L 170.04 378.00 L 170.02 387.00 L 169.79 396.00 L 169.66 405.00 L 169.42 414.00 L 169.22 423.00 L 173.55 432.00 L 180.79 441.00 L 184.94 450.00 L 185.61 459.00 L 185.27 468.00 L 184.98 477.00 L 185.70 486.00 L 184.79 495.00 L 184.74 504.00 L 184.88 513.00 L 184.49 522.00 L 185.83 531.00 L 185.20 540.00 L 184.53 549.00 L 184.69 558.00 L 184.59 567.00 L 184.19 576.00 L 183.85 585.00 L 183.36 594.00 L 183.13 603.00 L 184.01 612.00 L 183.42 621.00 L 182.83 630.00 L 183.02 639.00 L 182.18 648.00 L 182.31 657.00 L 181.74 666.00 L 181.08 675.00 L 180.57 684.00 L 180.26 693.00 L 179.58 702.00 L 179.65 711.00 L 178.82 720.00 L 168.45 729.00 L 162.90 738.00 L 162.88 747.00 L 162.86 756.00 L 162.84 765.00 L 162.82 774.00 L 162.81 783.00 L 162.80 792.00 L 162.79 801.00 L 162.78 810.00 L 162.77 819.00 L 162.77 828.00 L 162.76 837.00 L 162.76 846.00 L 162.76 855.00 L 162.75 864.00 L 162.75 873.00 L 162.75 882.00 L 162.75 891.00 L 162.75 900.00 Z M 221.36 900.00 L 221.36 891.00 L 221.35 882.00 L 221.35 873.00 L 221.35 864.00 L 221.35 855.00 L 221.35 846.00 L 221.35 837.00 L 221.35 828.00 L 221.35 819.00 L 221.34 810.00 L 221.34 801.00 L 221.34 792.00 L 221.34 783.00 L 221.33 774.00 L 221.33 765.00 L 221.32 756.00 L 221.31 747.00 L 221.30 738.00 L 215.96 729.00 L 204.57 720.00 L 203.61 711.00 L 203.69 702.00 L 204.95 693.00 L 205.18 684.00 L 205.13 675.00 L 204.90 666.00 L 205.43 657.00 L 205.56 648.00 L 206.67 639.00 L 206.56 630.00 L 206.32 621.00 L 206.55 612.00 L 205.98 603.00 L 206.37 594.00 L 205.72 585.00 L 205.56 576.00 L 205.54 567.00 L 205.18 558.00 L 204.86 549.00 L 204.79 540.00 L 203.47 531.00 L 203.92 522.00 L 203.04 513.00 L 202.20 504.00 L 201.95 495.00 L 201.04 486.00 L 200.37 477.00 L 200.05 468.00 L 198.91 459.00 L 198.96 450.00 L 199.15 441.00 L 199.05 432.00 L 197.63 423.00 L 197.12 414.00 L 196.78 405.00 L 197.15 396.00 L 196.73 387.00 L 197.98 378.00 L 197.78 369.00 L 201.73 360.00 L 210.22 351.00 L 215.91 342.00 L 216.31 333.00 L 216.17 324.00 L 216.11 315.00 L 216.08 306.00 L 216.10 297.00 L 216.06 288.00 L 216.06 279.00 L 216.11 270.00 L 216.22 261.00 L 216.28 252.00 L 216.28 243.00 L 216.45 234.00 L 216.53 225.00 L 216.61 216.00 L 216.77 207.00 L 216.85 198.00 L 217.01 189.00 L 217.12 180.00 L 217.28 171.00 L 217.42 162.00 L 217.57 153.00 L 217.74 144.00 L 217.89 135.00 L 218.08 126.00 L 218.22 117.00 L 218.38 108.00 L 218.58 99.00 L 218.73 90.00 L 218.89 81.00 L 219.06 72.00 L 219.22 63.00 L 219.36 54.00 L 219.51 45.00 L 219.64 36.00 L 219.79 27.00 L 219.91 18.00 L 220.03 9.00 L 220.14 0.00 L 228.11 0.00 L 228.26 9.00 L 228.42 18.00 L 228.59 27.00 L 228.78 36.00 L 228.97 45.00 L 229.16 54.00 L 229.36 63.00 L 229.56 72.00 L 229.78 81.00 L 229.98 90.00 L 230.16 99.00 L 230.40 108.00 L 230.58 117.00 L 230.75 126.00 L 230.94 135.00 L 231.10 144.00 L 231.26 153.00 L 231.40 162.00 L 231.51 171.00 L 231.64 180.00 L 231.71 189.00 L 231.82 198.00 L 231.84 207.00 L 231.94 216.00 L 231.95 225.00 L 231.95 234.00 L 232.04 243.00 L 231.97 252.00 L 231.95 261.00 L 231.98 270.00 L 231.96 279.00 L 231.89 288.00 L 231.79 297.00 L 231.75 306.00 L 231.67 315.00 L 231.58 324.00 L 231.40 333.00 L 231.74 342.00 L 237.03 351.00 L 244.93 360.00 L 248.58 369.00 L 248.36 378.00 L 249.63 387.00 L 249.25 396.00 L 249.70 405.00 L 249.46 414.00 L 249.08 423.00 L 247.82 432.00 L 247.90 441.00 L 248.28 450.00 L 248.55 459.00 L 247.64 468.00 L 247.56 477.00 L 247.16 486.00 L 246.51 495.00 L 246.54 504.00 L 245.99 513.00 L 245.39 522.00 L 246.13 531.00 L 245.09 540.00 L 245.29 549.00 L 245.25 558.00 L 245.15 567.00 L 245.39 576.00 L 245.46 585.00 L 245.03 594.00 L 245.63 603.00 L 245.24 612.00 L 245.65 621.00 L 245.55 630.00 L 245.56 639.00 L 246.77 648.00 L 246.98 657.00 L 247.56 666.00 L 247.35 675.00 L 247.30 684.00 L 247.50 693.00 L 248.71 702.00 L 248.72 711.00 L 247.47 720.00 L 233.35 729.00 L 226.71 738.00 L 226.70 747.00 L 226.69 756.00 L 226.68 765.00 L 226.67 774.00 L 226.67 783.00 L 226.66 792.00 L 226.66 801.00 L 226.66 810.00 L 226.65 819.00 L 226.65 828.00 L 226.65 837.00 L 226.65 846.00 L 226.65 855.00 L 226.65 864.00 L 226.65 873.00 L 226.65 882.00 L 226.64 891.00 L 226.64 900.00 Z M 284.57 900.00 L 284.56 891.00 L 284.56 882.00 L 284.55 873.00 L 284.55 864.00 L 284.54 855.00 L 284.52 846.00 L 284.51 837.00 L 284.49 828.00 L 284.47 819.00 L 284.44 810.00 L 284.41 801.00 L 284.37 792.00 L 284.32 783.00 L 284.26 774.00 L 284.20 765.00 L 284.12 756.00 L 284.03 747.00 L 283.93 738.00 L 276.09 729.00 L 259.21 720.00 L 258.84 711.00 L 258.68 702.00 L 258.02 693.00 L 258.64 684.00 L 258.27 675.00 L 258.31 666.00 L 257.58 657.00 L 258.35 648.00 L 257.35 639.00 L 257.34 630.00 L 258.48 621.00 L 258.32 612.00 L 258.19 603.00 L 259.82 594.00 L 259.64 585.00 L 260.55 576.00 L 260.71 567.00 L 260.60 558.00 L 260.72 549.00 L 260.26 540.00 L 262.38 531.00 L 262.12 522.00 L 261.96 513.00 L 260.97 504.00 L 261.35 495.00 L 261.15 486.00 L 262.33 477.00 L 262.18 468.00 L 262.54 459.00 L 260.89 450.00 L 260.59 441.00 L 261.48 432.00 L 259.52 423.00 L 259.33 414.00 L 259.72 405.00 L 259.81 396.00 L 258.58 387.00 L 259.09 378.00 L 258.08 369.00 L 257.47 360.00 L 257.54 351.00 L 257.54 342.00 L 257.09 333.00 L 256.38 324.00 L 257.54 315.00 L 256.45 306.00 L 257.24 297.00 L 257.83 288.00 L 261.58 279.00 L 272.00 270.00 L 281.87 261.00 L 283.76 252.00 L 283.88 243.00 L 283.99 234.00 L 284.09 225.00 L 284.17 216.00 L 284.24 207.00 L 284.30 198.00 L 284.35 189.00 L 284.40 180.00 L 284.43 171.00 L 284.46 162.00 L 284.49 153.00 L 284.51 144.00 L 284.52 135.00 L 284.53 126.00 L 284.54 117.00 L 284.55 108.00 L 284.56 99.00 L 284.56 90.00 L 284.57 81.00 L 284.57 72.00 L 284.57 63.00 L 284.57 54.00 L 284.57 45.00 L 284.57 36.00 L 284.57 27.00 L 284.58 18.00 L 284.58 9.00 L 284.58 0.00 L 291.42 0.00 L 291.42 9.00 L 291.42 18.00 L 291.42 27.00 L 291.43 36.00 L 291.43 45.00 L 291.43 54.00 L 291.43 63.00 L 291.43 72.00 L 291.43 81.00 L 291.43 90.00 L 291.44 99.00 L 291.44 108.00 L 291.45 117.00 L 291.45 126.00 L 291.46 135.00 L 291.47 144.00 L 291.49 153.00 L 291.50 162.00 L 291.52 171.00 L 291.55 180.00 L 291.57 189.00 L 291.61 198.00 L 291.65 207.00 L 291.70 216.00 L 291.76 225.00 L 291.82 234.00 L 291.90 243.00 L 291.99 252.00 L 293.31 261.00 L 300.43 270.00 L 308.04 279.00 L 311.09 288.00 L 311.89 297.00 L 312.92 306.00 L 312.09 315.00 L 313.51 324.00 L 313.08 333.00 L 312.93 342.00 L 313.23 351.00 L 313.61 360.00 L 313.30 369.00 L 312.61 378.00 L 313.43 387.00 L 312.51 396.00 L 312.91 405.00 L 313.58 414.00 L 313.67 423.00 L 311.97 432.00 L 313.10 441.00 L 313.03 450.00 L 311.57 459.00 L 312.09 468.00 L 312.08 477.00 L 313.36 486.00 L 313.22 495.00 L 313.64 504.00 L 312.66 513.00 L 312.46 522.00 L 312.14 531.00 L 314.15 540.00 L 313.56 549.00 L 313.53 558.00 L 313.23 567.00 L 313.18 576.00 L 313.85 585.00 L 313.43 594.00 L 314.79 603.00 L 314.38 612.00 L 313.93 621.00 L 314.78 630.00 L 314.47 639.00 L 313.15 648.00 L 313.62 657.00 L 312.58 666.00 L 312.32 675.00 L 311.67 684.00 L 312.00 693.00 L 311.07 702.00 L 310.65 711.00 L 310.32 720.00 L 297.56 729.00 L 291.88 738.00 L 291.81 747.00 L 291.74 756.00 L 291.69 765.00 L 291.64 774.00 L 291.60 783.00 L 291.56 792.00 L 291.54 801.00 L 291.51 810.00 L 291.50 819.00 L 291.48 828.00 L 291.47 837.00 L 291.46 846.00 L 291.45 855.00 L 291.45 864.00 L 291.44 873.00 L 291.44 882.00 L 291.43 891.00 L 291.43 900.00 Z M 348.33 900.00 L 348.33 891.00 L 348.33 882.00 L 348.33 873.00 L 348.33 864.00 L 348.33 855.00 L 348.33 846.00 L 348.33 837.00 L 348.33 828.00 L 348.33 819.00 L 348.33 810.00 L 348.33 801.00 L 348.33 792.00 L 348.32 783.00 L 348.32 774.00 L 348.32 765.00 L 348.32 756.00 L 348.31 747.00 L 348.31 738.00 L 343.97 729.00 L 335.99 720.00 L 335.23 711.00 L 335.76 702.00 L 334.74 693.00 L 335.11 684.00 L 334.57 675.00 L 334.84 666.00 L 333.81 657.00 L 333.30 648.00 L 333.25 639.00 L 333.09 630.00 L 332.80 621.00 L 332.85 612.00 L 332.25 603.00 L 332.34 594.00 L 331.15 585.00 L 330.70 576.00 L 330.34 567.00 L 330.70 558.00 L 330.81 549.00 L 330.66 540.00 L 342.09 531.00 L 346.84 522.00 L 344.79 513.00 L 338.12 504.00 L 332.07 495.00 L 331.08 486.00 L 330.30 477.00 L 331.53 468.00 L 331.18 459.00 L 332.27 450.00 L 331.92 441.00 L 332.24 432.00 L 333.07 423.00 L 333.03 414.00 L 332.98 405.00 L 333.26 396.00 L 333.58 387.00 L 334.51 378.00 L 334.38 369.00 L 334.95 360.00 L 334.68 351.00 L 334.98 342.00 L 335.34 333.00 L 335.71 324.00 L 335.13 315.00 L 335.26 306.00 L 335.45 297.00 L 334.63 288.00 L 334.91 279.00 L 333.68 270.00 L 334.21 261.00 L 334.19 252.00 L 333.90 243.00 L 332.75 234.00 L 332.45 225.00 L 333.28 216.00 L 333.13 207.00 L 333.12 198.00 L 339.09 189.00 L 345.11 180.00 L 347.09 171.00 L 347.22 162.00 L 347.34 153.00 L 347.45 144.00 L 347.56 135.00 L 347.65 126.00 L 347.74 117.00 L 347.82 108.00 L 347.89 99.00 L 347.95 90.00 L 348.01 81.00 L 348.06 72.00 L 348.10 63.00 L 348.14 54.00 L 348.17 45.00 L 348.20 36.00 L 348.22 27.00 L 348.24 18.00 L 348.26 9.00 L 348.27 0.00 L 355.73 0.00 L 355.75 9.00 L 355.77 18.00 L 355.79 27.00 L 355.82 36.00 L 355.85 45.00 L 355.89 54.00 L 355.94 63.00 L 355.99 72.00 L 356.06 81.00 L 356.13 90.00 L 356.22 99.00 L 356.32 108.00 L 356.43 117.00 L 356.56 126.00 L 356.70 135.00 L 356.86 144.00 L 357.03 153.00 L 357.23 162.00 L 357.43 171.00 L 360.29 180.00 L 368.92 189.00 L 377.40 198.00 L 378.05 207.00 L 378.14 216.00 L 379.20 225.00 L 379.10 234.00 L 378.13 243.00 L 378.00 252.00 L 378.10 261.00 L 378.73 270.00 L 377.57 279.00 L 377.88 288.00 L 377.07 297.00 L 377.22 306.00 L 377.27 315.00 L 376.59 324.00 L 376.82 333.00 L 377.01 342.00 L 377.10 351.00 L 376.61 360.00 L 376.92 369.00 L 376.52 378.00 L 377.14 387.00 L 377.15 396.00 L 377.11 405.00 L 376.72 414.00 L 376.35 423.00 L 376.84 432.00 L 376.82 441.00 L 376.15 450.00 L 376.92 459.00 L 376.26 468.00 L 377.20 477.00 L 376.15 486.00 L 374.71 495.00 L 367.51 504.00 L 359.76 513.00 L 357.37 522.00 L 362.72 531.00 L 375.31 540.00 L 375.13 549.00 L 375.16 558.00 L 375.47 567.00 L 375.08 576.00 L 374.63 585.00 L 373.46 594.00 L 373.60 603.00 L 373.08 612.00 L 373.23 621.00 L 373.06 630.00 L 373.04 639.00 L 373.16 648.00 L 372.82 657.00 L 371.99 666.00 L 372.48 675.00 L 372.17 684.00 L 372.78 693.00 L 372.01 702.00 L 372.79 711.00 L 372.11 720.00 L 361.47 729.00 L 355.69 738.00 L 355.69 747.00 L 355.69 756.00 L 355.68 765.00 L 355.68 774.00 L 355.68 783.00 L 355.68 792.00 L 355.68 801.00 L 355.67 810.00 L 355.67 819.00 L 355.67 828.00 L 355.67 837.00 L 355.67 846.00 L 355.67 855.00 L 355.67 864.00 L 355.67 873.00 L 355.67 882.00 L 355.67 891.00 L 355.67 900.00 Z M 413.10 900.00 L 413.10 891.00 L 413.10 882.00 L 413.10 873.00 L 413.09 864.00 L 413.09 855.00 L 413.09 846.00 L 413.09 837.00 L 413.08 828.00 L 413.08 819.00 L 413.07 810.00 L 413.06 801.00 L 413.05 792.00 L 413.04 783.00 L 413.02 774.00 L 413.00 765.00 L 412.98 756.00 L 412.96 747.00 L 412.93 738.00 L 407.08 729.00 L 396.15 720.00 L 395.92 711.00 L 394.98 702.00 L 394.50 693.00 L 394.18 684.00 L 394.31 675.00 L 393.66 666.00 L 393.52 657.00 L 391.96 648.00 L 392.73 639.00 L 390.84 630.00 L 390.51 621.00 L 390.04 612.00 L 389.64 603.00 L 390.78 594.00 L 390.26 585.00 L 390.00 576.00 L 389.93 567.00 L 389.92 558.00 L 389.48 549.00 L 390.76 540.00 L 403.59 531.00 L 409.37 522.00 L 409.12 513.00 L 408.86 504.00 L 408.62 495.00 L 408.36 486.00 L 408.12 477.00 L 407.96 468.00 L 407.66 459.00 L 407.47 450.00 L 407.31 441.00 L 406.27 432.00 L 400.63 423.00 L 395.81 414.00 L 393.74 405.00 L 393.99 396.00 L 394.99 387.00 L 394.44 378.00 L 395.25 369.00 L 395.88 360.00 L 393.86 351.00 L 395.81 342.00 L 393.59 333.00 L 394.10 324.00 L 394.50 315.00 L 393.22 306.00 L 393.24 297.00 L 391.14 288.00 L 391.13 279.00 L 390.72 270.00 L 390.67 261.00 L 391.39 252.00 L 389.60 243.00 L 389.26 234.00 L 390.32 225.00 L 389.14 216.00 L 389.73 207.00 L 388.86 198.00 L 389.68 189.00 L 390.15 180.00 L 389.90 171.00 L 389.80 162.00 L 390.99 153.00 L 390.65 144.00 L 390.89 135.00 L 391.34 126.00 L 391.67 117.00 L 398.91 108.00 L 407.24 99.00 L 411.52 90.00 L 411.69 81.00 L 411.84 72.00 L 411.99 63.00 L 412.12 54.00 L 412.24 45.00 L 412.35 36.00 L 412.45 27.00 L 412.54 18.00 L 412.61 9.00 L 412.68 0.00 L 419.37 0.00 L 419.44 9.00 L 419.53 18.00 L 419.63 27.00 L 419.74 36.00 L 419.86 45.00 L 420.00 54.00 L 420.16 63.00 L 420.33 72.00 L 420.52 81.00 L 420.73 90.00 L 425.74 99.00 L 435.65 108.00 L 444.27 117.00 L 444.99 126.00 L 445.78 135.00 L 446.38 144.00 L 446.42 153.00 L 448.00 162.00 L 448.32 171.00 L 448.47 180.00 L 449.37 189.00 L 450.61 198.00 L 450.17 207.00 L 451.17 216.00 L 450.40 225.00 L 451.85 234.00 L 451.89 243.00 L 450.46 252.00 L 451.51 261.00 L 451.76 270.00 L 451.62 279.00 L 451.83 288.00 L 449.92 297.00 L 450.09 306.00 L 448.90 315.00 L 449.36 324.00 L 449.88 333.00 L 447.62 342.00 L 449.48 351.00 L 447.33 360.00 L 447.79 369.00 L 448.37 378.00 L 447.56 387.00 L 448.26 396.00 L 448.19 405.00 L 444.82 414.00 L 436.88 423.00 L 428.58 432.00 L 426.95 441.00 L 426.59 450.00 L 426.21 459.00 L 425.73 468.00 L 425.39 477.00 L 424.98 486.00 L 424.56 495.00 L 424.18 504.00 L 423.79 513.00 L 423.41 522.00 L 430.23 531.00 L 445.06 540.00 L 446.20 549.00 L 445.49 558.00 L 445.24 567.00 L 444.96 576.00 L 444.53 585.00 L 443.86 594.00 L 444.90 603.00 L 444.42 612.00 L 443.90 621.00 L 443.55 630.00 L 441.69 639.00 L 442.50 648.00 L 441.03 657.00 L 441.00 666.00 L 440.49 675.00 L 440.79 684.00 L 440.66 693.00 L 440.39 702.00 L 439.69 711.00 L 439.55 720.00 L 426.25 729.00 L 419.11 738.00 L 419.08 747.00 L 419.05 756.00 L 419.02 765.00 L 419.00 774.00 L 418.98 783.00 L 418.97 792.00 L 418.96 801.00 L 418.95 810.00 L 418.94 819.00 L 418.93 828.00 L 418.92 837.00 L 418.92 846.00 L 418.91 855.00 L 418.91 864.00 L 418.91 873.00 L 418.90 882.00 L 418.90 891.00 L 418.90 900.00 Z M 455.95 900.00 L 455.99 891.00 L 456.28 882.00 L 456.46 873.00 L 455.84 864.00 L 456.71 855.00 L 456.03 846.00 L 456.13 837.00 L 455.48 828.00 L 456.05 819.00 L 456.41 810.00 L 456.13 801.00 L 455.79 792.00 L 455.21 783.00 L 454.35 774.00 L 454.66 765.00 L 454.19 756.00 L 452.90 747.00 L 452.36 738.00 L 451.63 729.00 L 451.21 720.00 L 450.42 711.00 L 450.23 702.00 L 451.05 693.00 L 450.52 684.00 L 449.90 675.00 L 448.50 666.00 L 448.70 657.00 L 449.78 648.00 L 448.35 639.00 L 448.74 630.00 L 448.88 621.00 L 449.78 612.00 L 449.72 603.00 L 450.17 594.00 L 449.62 585.00 L 451.09 576.00 L 451.81 567.00 L 452.33 558.00 L 452.13 549.00 L 453.62 540.00 L 453.61 531.00 L 454.64 522.00 L 455.48 513.00 L 454.83 504.00 L 456.12 495.00 L 456.45 486.00 L 456.59 477.00 L 455.88 468.00 L 457.27 459.00 L 457.22 450.00 L 457.29 441.00 L 457.33 432.00 L 457.30 423.00 L 457.11 414.00 L 456.88 405.00 L 456.03 396.00 L 456.31 387.00 L 455.87 378.00 L 455.95 369.00 L 455.11 360.00 L 455.28 351.00 L 455.09 342.00 L 454.46 333.00 L 453.20 324.00 L 453.73 315.00 L 453.25 306.00 L 453.34 297.00 L 453.00 288.00 L 453.25 279.00 L 452.97 270.00 L 453.24 261.00 L 453.46 252.00 L 452.56 243.00 L 453.69 234.00 L 453.00 225.00 L 454.07 216.00 L 454.24 207.00 L 453.89 198.00 L 454.09 189.00 L 455.19 180.00 L 455.47 171.00 L 456.13 162.00 L 455.72 153.00 L 455.93 144.00 L 456.68 135.00 L 456.09 126.00 L 456.74 117.00 L 457.55 108.00 L 457.74 99.00 L 457.33 90.00 L 457.53 81.00 L 457.78 72.00 L 457.78 63.00 L 457.72 54.00 L 458.63 45.00 L 471.02 36.00 L 477.16 27.00 L 477.16 18.00 L 477.17 9.00 L 477.18 0.00 L 482.82 0.00 L 482.82 9.00 L 482.83 18.00 L 482.83 27.00 L 487.21 36.00 L 495.74 45.00 L 495.82 54.00 L 495.51 63.00 L 495.29 72.00 L 495.33 81.00 L 495.34 90.00 L 494.76 99.00 L 494.81 108.00 L 495.48 117.00 L 496.03 126.00 L 495.36 135.00 L 496.05 144.00 L 496.22 153.00 L 495.81 162.00 L 496.47 171.00 L 496.80 180.00 L 497.97 189.00 L 498.25 198.00 L 498.01 207.00 L 498.31 216.00 L 499.53 225.00 L 499.02 234.00 L 500.33 243.00 L 499.64 252.00 L 500.08 261.00 L 500.59 270.00 L 500.55 279.00 L 501.05 288.00 L 500.96 297.00 L 501.32 306.00 L 501.11 315.00 L 501.90 324.00 L 500.90 333.00 L 500.52 342.00 L 500.59 351.00 L 501.00 360.00 L 500.38 369.00 L 500.67 378.00 L 500.43 387.00 L 500.87 396.00 L 500.18 405.00 L 500.08 414.00 L 499.99 423.00 L 500.04 432.00 L 500.13 441.00 L 500.22 450.00 L 500.16 459.00 L 501.51 468.00 L 500.73 477.00 L 500.77 486.00 L 500.97 495.00 L 502.10 504.00 L 501.27 513.00 L 501.89 522.00 L 502.68 531.00 L 502.41 540.00 L 503.63 549.00 L 503.13 558.00 L 503.34 567.00 L 503.74 576.00 L 504.89 585.00 L 504.02 594.00 L 504.14 603.00 L 503.76 612.00 L 504.35 621.00 L 504.18 630.00 L 504.28 639.00 L 502.57 648.00 L 503.39 657.00 L 503.36 666.00 L 501.75 675.00 L 500.95 684.00 L 500.26 693.00 L 500.95 702.00 L 500.66 711.00 L 499.80 720.00 L 499.34 729.00 L 498.60 738.00 L 498.08 747.00 L 496.84 756.00 L 496.45 765.00 L 496.86 774.00 L 496.12 783.00 L 495.70 792.00 L 495.53 801.00 L 495.46 810.00 L 496.03 819.00 L 496.84 828.00 L 496.44 837.00 L 496.81 846.00 L 496.40 855.00 L 497.57 864.00 L 497.23 873.00 L 497.72 882.00 L 498.31 891.00 L 498.65 900.00 Z M 520.95 900.00 L 521.18 891.00 L 520.80 882.00 L 521.08 873.00 L 520.77 864.00 L 520.23 855.00 L 520.52 846.00 L 519.89 837.00 L 519.54 828.00 L 520.17 819.00 L 520.07 810.00 L 520.04 801.00 L 519.03 792.00 L 519.70 783.00 L 519.18 774.00 L 518.96 765.00 L 519.37 756.00 L 519.16 747.00 L 519.64 738.00 L 519.85 729.00 L 519.22 720.00 L 519.81 711.00 L 519.62 702.00 L 519.61 693.00 L 520.35 684.00 L 520.09 675.00 L 520.23 666.00 L 520.24 657.00 L 520.99 648.00 L 520.29 639.00 L 519.99 630.00 L 520.17 621.00 L 520.27 612.00 L 519.58 603.00 L 519.23 594.00 L 519.28 585.00 L 518.72 576.00 L 518.26 567.00 L 519.05 558.00 L 517.84 549.00 L 518.09 540.00 L 517.94 531.00 L 517.26 522.00 L 517.36 513.00 L 517.26 504.00 L 517.29 495.00 L 517.33 486.00 L 517.05 477.00 L 517.42 468.00 L 517.73 459.00 L 517.48 450.00 L 517.84 441.00 L 518.07 432.00 L 518.35 423.00 L 518.81 414.00 L 518.69 405.00 L 518.57 396.00 L 519.43 387.00 L 519.66 378.00 L 519.85 369.00 L 520.71 360.00 L 520.37 351.00 L 520.95 342.00 L 521.74 333.00 L 522.47 324.00 L 522.10 315.00 L 522.40 306.00 L 522.35 297.00 L 522.55 288.00 L 522.97 279.00 L 523.92 270.00 L 523.98 261.00 L 523.50 252.00 L 523.44 243.00 L 523.29 234.00 L 523.76 225.00 L 522.97 216.00 L 523.79 207.00 L 522.99 198.00 L 522.58 189.00 L 522.88 180.00 L 523.06 171.00 L 522.00 162.00 L 521.97 153.00 L 521.39 144.00 L 521.61 135.00 L 521.02 126.00 L 520.95 117.00 L 520.87 108.00 L 521.49 99.00 L 521.09 90.00 L 520.46 81.00 L 520.39 72.00 L 520.31 63.00 L 521.41 54.00 L 521.16 45.00 L 524.47 36.00 L 537.75 27.00 L 540.46 18.00 L 540.46 9.00 L 540.46 0.00 L 547.54 0.00 L 547.54 9.00 L 547.54 18.00 L 549.48 27.00 L 559.37 36.00 L 561.97 45.00 L 561.94 54.00 L 563.25 63.00 L 563.37 72.00 L 563.47 81.00 L 563.00 90.00 L 562.74 99.00 L 563.48 108.00 L 563.50 117.00 L 563.49 126.00 L 562.95 135.00 L 563.20 144.00 L 562.62 153.00 L 562.56 162.00 L 561.46 171.00 L 561.57 180.00 L 561.78 189.00 L 561.26 198.00 L 560.31 207.00 L 560.98 216.00 L 560.01 225.00 L 560.29 234.00 L 559.93 243.00 L 559.65 252.00 L 558.94 261.00 L 558.75 270.00 L 559.45 279.00 L 559.62 288.00 L 559.55 297.00 L 559.24 306.00 L 559.29 315.00 L 558.66 324.00 L 559.13 333.00 L 559.69 342.00 L 560.02 351.00 L 559.46 360.00 L 560.10 369.00 L 560.09 378.00 L 560.13 387.00 L 560.81 396.00 L 560.54 405.00 L 560.27 414.00 L 560.61 423.00 L 560.79 432.00 L 560.92 441.00 L 561.22 450.00 L 560.92 459.00 L 561.20 468.00 L 561.56 477.00 L 561.30 486.00 L 561.37 495.00 L 561.46 504.00 L 561.44 513.00 L 561.65 522.00 L 561.09 531.00 L 561.08 540.00 L 561.50 549.00 L 560.48 558.00 L 561.48 567.00 L 561.25 576.00 L 560.93 585.00 L 561.24 594.00 L 561.16 603.00 L 560.75 612.00 L 561.14 621.00 L 561.61 630.00 L 561.60 639.00 L 561.18 648.00 L 562.21 657.00 L 562.48 666.00 L 562.86 675.00 L 562.83 684.00 L 563.79 693.00 L 563.97 702.00 L 563.93 711.00 L 564.67 720.00 L 564.14 729.00 L 564.44 738.00 L 564.98 747.00 L 564.80 756.00 L 565.21 765.00 L 564.96 774.00 L 564.39 783.00 L 564.99 792.00 L 563.88 801.00 L 563.73 810.00 L 563.49 819.00 L 563.96 828.00 L 563.43 837.00 L 562.61 846.00 L 562.69 855.00 L 561.93 864.00 L 561.39 873.00 L 561.44 882.00 L 560.81 891.00 L 560.80 900.00 Z M 605.01 900.00 L 605.01 891.00 L 602.88 882.00 L 597.31 873.00 L 591.54 864.00 L 588.36 855.00 L 587.72 846.00 L 588.19 837.00 L 587.30 828.00 L 587.46 819.00 L 588.25 810.00 L 588.22 801.00 L 588.16 792.00 L 589.07 783.00 L 589.17 774.00 L 589.04 765.00 L 589.96 756.00 L 589.75 747.00 L 590.03 738.00 L 589.45 729.00 L 589.82 720.00 L 589.40 711.00 L 589.48 702.00 L 589.47 693.00 L 588.19 684.00 L 588.50 675.00 L 588.07 666.00 L 587.75 657.00 L 587.61 648.00 L 587.18 639.00 L 586.03 630.00 L 585.33 621.00 L 585.48 612.00 L 584.27 603.00 L 583.68 594.00 L 584.21 585.00 L 583.84 576.00 L 582.52 567.00 L 582.59 558.00 L 582.53 549.00 L 581.66 540.00 L 581.51 531.00 L 582.58 522.00 L 582.56 513.00 L 582.47 504.00 L 581.82 495.00 L 582.59 486.00 L 582.14 477.00 L 583.54 468.00 L 583.27 459.00 L 584.54 450.00 L 583.49 441.00 L 584.47 432.00 L 585.61 423.00 L 585.28 414.00 L 586.82 405.00 L 587.49 396.00 L 587.64 387.00 L 586.71 378.00 L 587.61 369.00 L 588.81 360.00 L 589.23 351.00 L 589.33 342.00 L 589.07 333.00 L 587.31 324.00 L 588.86 315.00 L 587.42 306.00 L 586.80 297.00 L 587.52 288.00 L 587.28 279.00 L 586.57 270.00 L 586.85 261.00 L 584.83 252.00 L 584.41 243.00 L 584.84 234.00 L 584.66 225.00 L 584.22 216.00 L 582.79 207.00 L 582.22 198.00 L 582.36 189.00 L 581.82 180.00 L 582.65 171.00 L 582.07 162.00 L 581.81 153.00 L 581.29 144.00 L 581.36 135.00 L 581.73 126.00 L 583.01 117.00 L 582.42 108.00 L 583.36 99.00 L 587.45 90.00 L 593.34 81.00 L 598.96 72.00 L 601.30 63.00 L 601.48 54.00 L 601.62 45.00 L 601.82 36.00 L 601.99 27.00 L 602.15 18.00 L 602.31 9.00 L 602.47 0.00 L 613.88 0.00 L 614.08 9.00 L 614.28 18.00 L 614.50 27.00 L 614.73 36.00 L 614.99 45.00 L 615.21 54.00 L 615.48 63.00 L 618.41 72.00 L 625.50 81.00 L 632.92 90.00 L 638.11 99.00 L 639.67 108.00 L 639.47 117.00 L 641.15 126.00 L 641.91 135.00 L 642.37 144.00 L 642.24 153.00 L 642.36 162.00 L 642.13 171.00 L 643.31 180.00 L 643.09 189.00 L 643.52 198.00 L 643.23 207.00 L 642.03 216.00 L 641.80 225.00 L 641.79 234.00 L 642.35 243.00 L 642.04 252.00 L 640.07 261.00 L 640.37 270.00 L 639.64 279.00 L 639.34 288.00 L 639.96 297.00 L 639.19 306.00 L 637.58 315.00 L 638.93 324.00 L 636.92 333.00 L 636.39 342.00 L 636.19 351.00 L 636.29 360.00 L 637.14 369.00 L 637.69 378.00 L 636.38 387.00 L 636.15 396.00 L 636.42 405.00 L 637.57 414.00 L 636.85 423.00 L 637.59 432.00 L 638.20 441.00 L 636.78 450.00 L 637.69 459.00 L 637.08 468.00 L 638.16 477.00 L 637.42 486.00 L 637.91 495.00 L 637.01 504.00 L 636.70 513.00 L 636.48 522.00 L 637.39 531.00 L 637.11 540.00 L 636.14 549.00 L 636.01 558.00 L 636.04 567.00 L 634.72 576.00 L 634.37 585.00 L 634.95 594.00 L 634.44 603.00 L 633.34 612.00 L 633.64 621.00 L 633.10 630.00 L 632.13 639.00 L 631.91 648.00 L 632.00 657.00 L 631.93 666.00 L 631.77 675.00 L 632.35 684.00 L 631.36 693.00 L 631.63 702.00 L 632.02 711.00 L 631.89 720.00 L 632.57 729.00 L 632.29 738.00 L 632.86 747.00 L 632.94 756.00 L 634.12 765.00 L 634.26 774.00 L 634.60 783.00 L 635.74 792.00 L 635.89 801.00 L 636.05 810.00 L 637.00 819.00 L 637.30 828.00 L 636.52 837.00 L 637.08 846.00 L 636.03 855.00 L 631.32 864.00 L 622.84 873.00 L 614.30 882.00 L 611.01 891.00 L 611.00 900.00 Z M 668.26 900.00 L 668.24 891.00 L 668.21 882.00 L 668.18 873.00 L 668.14 864.00 L 668.10 855.00 L 668.06 846.00 L 668.01 837.00 L 667.95 828.00 L 667.89 819.00 L 667.83 810.00 L 667.76 801.00 L 667.68 792.00 L 667.60 783.00 L 667.51 774.00 L 667.42 765.00 L 667.32 756.00 L 667.21 747.00 L 667.09 738.00 L 665.06 729.00 L 652.79 720.00 L 648.35 711.00 L 647.27 702.00 L 647.37 693.00 L 647.91 684.00 L 647.66 675.00 L 648.79 666.00 L 648.24 657.00 L 648.31 648.00 L 648.73 639.00 L 649.86 630.00 L 649.68 621.00 L 648.92 612.00 L 650.55 603.00 L 649.66 594.00 L 650.21 585.00 L 650.69 576.00 L 650.84 567.00 L 652.11 558.00 L 650.85 549.00 L 654.05 540.00 L 661.97 531.00 L 663.17 522.00 L 662.97 513.00 L 662.72 504.00 L 662.65 495.00 L 662.41 486.00 L 662.12 477.00 L 662.04 468.00 L 661.83 459.00 L 661.63 450.00 L 661.37 441.00 L 661.25 432.00 L 660.92 423.00 L 660.79 414.00 L 660.68 405.00 L 660.68 396.00 L 660.59 387.00 L 660.45 378.00 L 660.45 369.00 L 660.54 360.00 L 660.50 351.00 L 660.45 342.00 L 660.52 333.00 L 660.65 324.00 L 660.95 315.00 L 661.14 306.00 L 661.30 297.00 L 661.49 288.00 L 661.65 279.00 L 661.99 270.00 L 662.17 261.00 L 662.53 252.00 L 662.82 243.00 L 663.08 234.00 L 663.34 225.00 L 663.61 216.00 L 663.90 207.00 L 664.12 198.00 L 664.41 189.00 L 664.64 180.00 L 664.94 171.00 L 665.14 162.00 L 665.38 153.00 L 665.61 144.00 L 665.82 135.00 L 666.03 126.00 L 666.22 117.00 L 666.39 108.00 L 666.58 99.00 L 666.73 90.00 L 666.89 81.00 L 667.04 72.00 L 667.16 63.00 L 667.29 54.00 L 667.40 45.00 L 667.50 36.00 L 667.60 27.00 L 667.69 18.00 L 667.77 9.00 L 667.84 0.00 L 676.34 0.00 L 676.43 9.00 L 676.52 18.00 L 676.63 27.00 L 676.73 36.00 L 676.85 45.00 L 676.97 54.00 L 677.10 63.00 L 677.23 72.00 L 677.38 81.00 L 677.53 90.00 L 677.68 99.00 L 677.85 108.00 L 678.01 117.00 L 678.17 126.00 L 678.36 135.00 L 678.54 144.00 L 678.74 153.00 L 678.94 162.00 L 679.11 171.00 L 679.36 180.00 L 679.55 189.00 L 679.80 198.00 L 679.98 207.00 L 680.23 216.00 L 680.46 225.00 L 680.69 234.00 L 680.93 243.00 L 681.21 252.00 L 681.56 261.00 L 681.74 270.00 L 682.09 279.00 L 682.28 288.00 L 682.50 297.00 L 682.72 306.00 L 682.96 315.00 L 683.34 324.00 L 683.55 333.00 L 683.71 342.00 L 683.77 351.00 L 683.85 360.00 L 684.05 369.00 L 684.18 378.00 L 684.17 387.00 L 684.21 396.00 L 684.33 405.00 L 684.34 414.00 L 684.33 423.00 L 684.12 432.00 L 684.10 441.00 L 683.94 450.00 L 683.81 459.00 L 683.67 468.00 L 683.64 477.00 L 683.39 486.00 L 683.18 495.00 L 683.11 504.00 L 682.86 513.00 L 682.63 522.00 L 684.30 531.00 L 695.25 540.00 L 699.51 549.00 L 698.20 558.00 L 699.39 567.00 L 699.42 576.00 L 699.76 585.00 L 700.14 594.00 L 699.06 603.00 L 700.47 612.00 L 699.47 621.00 L 699.02 630.00 L 699.87 639.00 L 700.00 648.00 L 699.77 657.00 L 698.90 666.00 L 699.71 675.00 L 699.14 684.00 L 699.36 693.00 L 699.13 702.00 L 697.73 711.00 L 692.61 720.00 L 679.20 729.00 L 677.00 738.00 L 676.85 747.00 L 676.72 756.00 L 676.60 765.00 L 676.50 774.00 L 676.40 783.00 L 676.31 792.00 L 676.23 801.00 L 676.15 810.00 L 676.09 819.00 L 676.03 828.00 L 675.98 837.00 L 675.93 846.00 L 675.88 855.00 L 675.85 864.00 L 675.81 873.00 L 675.78 882.00 L 675.76 891.00 L 675.73 900.00 Z M 732.69 900.00 L 732.66 891.00 L 732.64 882.00 L 732.61 873.00 L 732.57 864.00 L 732.53 855.00 L 732.50 846.00 L 732.45 837.00 L 732.41 828.00 L 732.36 819.00 L 732.30 810.00 L 732.25 801.00 L 732.18 792.00 L 732.12 783.00 L 732.05 774.00 L 731.98 765.00 L 731.90 756.00 L 731.81 747.00 L 731.73 738.00 L 731.63 729.00 L 731.54 720.00 L 731.43 711.00 L 731.33 702.00 L 731.22 693.00 L 731.10 684.00 L 730.98 675.00 L 730.84 666.00 L 730.72 657.00 L 730.57 648.00 L 730.42 639.00 L 730.27 630.00 L 730.14 621.00 L 729.98 612.00 L 729.83 603.00 L 729.66 594.00 L 729.47 585.00 L 729.36 576.00 L 729.16 567.00 L 729.00 558.00 L 728.81 549.00 L 728.66 540.00 L 728.51 531.00 L 728.42 522.00 L 728.26 513.00 L 728.08 504.00 L 727.94 495.00 L 727.85 486.00 L 727.82 477.00 L 727.74 468.00 L 727.72 459.00 L 727.64 450.00 L 727.68 441.00 L 727.62 432.00 L 727.66 423.00 L 727.77 414.00 L 727.77 405.00 L 727.89 396.00 L 727.99 387.00 L 728.09 378.00 L 728.22 369.00 L 728.35 360.00 L 728.55 351.00 L 728.65 342.00 L 728.82 333.00 L 728.97 324.00 L 729.17 315.00 L 729.33 306.00 L 729.48 297.00 L 729.68 288.00 L 729.81 279.00 L 729.96 270.00 L 730.10 261.00 L 730.26 252.00 L 730.40 243.00 L 730.55 234.00 L 730.67 225.00 L 730.81 216.00 L 730.95 207.00 L 731.06 198.00 L 731.17 189.00 L 731.30 180.00 L 731.40 171.00 L 731.50 162.00 L 731.60 153.00 L 731.69 144.00 L 731.78 135.00 L 731.87 126.00 L 731.95 117.00 L 732.02 108.00 L 732.09 99.00 L 732.16 90.00 L 732.22 81.00 L 732.28 72.00 L 732.34 63.00 L 732.39 54.00 L 732.44 45.00 L 732.48 36.00 L 732.52 27.00 L 732.56 18.00 L 732.59 9.00 L 732.62 0.00 L 739.45 0.00 L 739.50 9.00 L 739.55 18.00 L 739.60 27.00 L 739.67 36.00 L 739.73 45.00 L 739.80 54.00 L 739.88 63.00 L 739.97 72.00 L 740.06 81.00 L 740.16 90.00 L 740.26 99.00 L 740.37 108.00 L 740.49 117.00 L 740.61 126.00 L 740.74 135.00 L 740.87 144.00 L 741.01 153.00 L 741.15 162.00 L 741.30 171.00 L 741.43 180.00 L 741.60 189.00 L 741.74 198.00 L 741.88 207.00 L 742.05 216.00 L 742.21 225.00 L 742.34 234.00 L 742.50 243.00 L 742.64 252.00 L 742.79 261.00 L 742.92 270.00 L 743.05 279.00 L 743.16 288.00 L 743.33 297.00 L 743.44 306.00 L 743.57 315.00 L 743.73 324.00 L 743.83 333.00 L 743.95 342.00 L 744.01 351.00 L 744.16 360.00 L 744.25 369.00 L 744.33 378.00 L 744.39 387.00 L 744.45 396.00 L 744.54 405.00 L 744.52 414.00 L 744.61 423.00 L 744.63 432.00 L 744.57 441.00 L 744.61 450.00 L 744.53 459.00 L 744.52 468.00 L 744.47 477.00 L 744.47 486.00 L 744.41 495.00 L 744.31 504.00 L 744.17 513.00 L 744.05 522.00 L 744.01 531.00 L 743.90 540.00 L 743.80 549.00 L 743.65 558.00 L 743.53 567.00 L 743.36 576.00 L 743.29 585.00 L 743.13 594.00 L 742.98 603.00 L 742.85 612.00 L 742.71 621.00 L 742.58 630.00 L 742.44 639.00 L 742.28 648.00 L 742.12 657.00 L 741.98 666.00 L 741.82 675.00 L 741.67 684.00 L 741.52 693.00 L 741.38 702.00 L 741.24 711.00 L 741.10 720.00 L 740.96 729.00 L 740.82 738.00 L 740.70 747.00 L 740.57 756.00 L 740.45 765.00 L 740.34 774.00 L 740.23 783.00 L 740.13 792.00 L 740.04 801.00 L 739.95 810.00 L 739.86 819.00 L 739.79 828.00 L 739.71 837.00 L 739.65 846.00 L 739.59 855.00 L 739.53 864.00 L 739.48 873.00 L 739.44 882.00 L 739.40 891.00 L 739.36 900.00 Z" fill="#11100e"/>
</svg>
