<?xml version="1.0" encoding="UTF-8"?>
<svg xmlns="http://www.w3.org/2000/svg" viewBox="0 0 640 900" role="img" aria-label="Varythm /">
  <rect width="640" height="900" fill="#f0eee7"/>
  <path d="M 28.54 900.00 L 28.51 891.00 L 28.48 882.00 L 28.45 873.00 L 28.41 864.00 L 28.36 855.00 L 28.32 846.00 L 28.26 837.00 L 28.21 828.00 L 28.15 819.00 L 28.08 810.00 L 28.01 801.00 L 27.93 792.00 L 27.85 783.00 L 27.77 774.00 L 27.67 765.00 L 27.58 756.00 L 27.47 747.00 L 27.37 738.00 L 27.26 729.00 L 27.14 720.00 L 27.03 711.00 L 26.91 702.00 L 26.78 693.00 L 26.68 684.00 L 26.54 675.00 L 26.40 666.00 L 26.28 657.00 L 26.18 648.00 L 26.03 639.00 L 25.92 630.00 L 25.78 621.00 L 25.67 612.00 L 25.56 603.00 L 25.44 594.00 L 25.31 585.00 L 25.23 576.00 L 25.18 567.00 L 24.98 558.00 L 24.92 549.00 L 24.82 540.00 L 24.77 531.00 L 24.56 522.00 L 24.52 513.00 L 24.35 504.00 L 24.30 495.00 L 24.30 486.00 L 24.09 477.00 L 24.04 468.00 L 24.08 459.00 L 23.97 450.00 L 24.00 441.00 L 23.88 432.00 L 23.88 423.00 L 23.98 414.00 L 24.07 405.00 L 24.09 396.00 L 24.15 387.00 L 24.29 378.00 L 24.43 369.00 L 24.50 360.00 L 24.65 351.00 L 24.84 342.00 L 25.00 333.00 L 25.17 324.00 L 25.34 315.00 L 25.55 306.00 L 25.74 297.00 L 25.94 288.00 L 26.11 279.00 L 26.29 270.00 L 26.49 261.00 L 26.64 252.00 L 26.81 243.00 L 26.97 234.00 L 27.13 225.00 L 27.26 216.00 L 27.39 207.00 L 27.52 198.00 L 27.63 189.00 L 27.75 180.00 L 27.85 171.00 L 27.94 162.00 L 28.02 153.00 L 28.10 144.00 L 28.18 135.00 L 28.24 126.00 L 28.30 117.00 L 28.35 108.00 L 28.40 99.00 L 28.44 90.00 L 28.48 81.00 L 28.51 72.00 L 28.54 63.00 L 28.57 54.00 L 28.59 45.00 L 28.61 36.00 L 28.63 27.00 L 28.64 18.00 L 28.66 9.00 L 28.67 0.00 L 35.38 0.00 L 35.40 9.00 L 35.42 18.00 L 35.45 27.00 L 35.48 36.00 L 35.51 45.00 L 35.54 54.00 L 35.58 63.00 L 35.63 72.00 L 35.68 81.00 L 35.73 90.00 L 35.79 99.00 L 35.86 108.00 L 35.93 117.00 L 36.01 126.00 L 36.09 135.00 L 36.18 144.00 L 36.28 153.00 L 36.38 162.00 L 36.50 171.00 L 36.62 180.00 L 36.74 189.00 L 36.88 198.00 L 37.03 207.00 L 37.17 216.00 L 37.32 225.00 L 37.50 234.00 L 37.67 243.00 L 37.86 252.00 L 38.04 261.00 L 38.26 270.00 L 38.47 279.00 L 38.66 288.00 L 38.91 297.00 L 39.14 306.00 L 39.39 315.00 L 39.61 324.00 L 39.85 333.00 L 40.07 342.00 L 40.33 351.00 L 40.57 360.00 L 40.73 369.00 L 40.96 378.00 L 41.21 387.00 L 41.38 396.00 L 41.51 405.00 L 41.72 414.00 L 41.93 423.00 L 42.05 432.00 L 42.05 441.00 L 42.19 450.00 L 42.19 459.00 L 42.33 468.00 L 42.37 477.00 L 42.24 486.00 L 42.31 495.00 L 42.32 504.00 L 42.20 513.00 L 42.19 522.00 L 41.99 531.00 L 41.93 540.00 L 41.82 549.00 L 41.72 558.00 L 41.47 567.00 L 41.37 576.00 L 41.21 585.00 L 40.99 594.00 L 40.77 603.00 L 40.55 612.00 L 40.33 621.00 L 40.06 630.00 L 39.83 639.00 L 39.56 648.00 L 39.33 657.00 L 39.08 666.00 L 38.82 675.00 L 38.56 684.00 L 38.34 693.00 L 38.10 702.00 L 37.88 711.00 L 37.66 720.00 L 37.45 729.00 L 37.26 738.00 L 37.08 747.00 L 36.90 756.00 L 36.75 765.00 L 36.60 774.00 L 36.46 783.00 L 36.34 792.00 L 36.22 801.00 L 36.12 810.00 L 36.02 819.00 L 35.94 828.00 L 35.86 837.00 L 35.79 846.00 L 35.72 855.00 L 35.67 864.00 L 35.62 873.00 L 35.57 882.00 L 35.54 891.00 L 35.50 900.00 Z M 72.35 900.00 L 72.18 891.00 L 72.13 882.00 L 71.24 873.00 L 71.89 864.00 L 71.43 855.00 L 70.76 846.00 L 71.28 837.00 L 71.00 828.00 L 70.08 819.00 L 69.35 810.00 L 68.96 801.00 L 68.79 792.00 L 68.28 783.00 L 69.00 774.00 L 67.50 765.00 L 67.27 756.00 L 68.15 747.00 L 68.70 738.00 L 73.76 729.00 L 79.81 720.00 L 85.22 711.00 L 87.42 702.00 L 87.13 693.00 L 86.99 684.00 L 86.76 675.00 L 86.62 666.00 L 86.48 657.00 L 86.22 648.00 L 86.09 639.00 L 86.13 630.00 L 85.86 621.00 L 85.93 612.00 L 85.74 603.00 L 85.83 594.00 L 85.73 585.00 L 85.55 576.00 L 85.54 567.00 L 85.57 558.00 L 85.65 549.00 L 85.51 540.00 L 85.43 531.00 L 85.57 522.00 L 85.54 513.00 L 85.63 504.00 L 85.52 495.00 L 85.66 486.00 L 85.76 477.00 L 85.85 468.00 L 85.87 459.00 L 85.94 450.00 L 86.22 441.00 L 86.26 432.00 L 86.56 423.00 L 86.74 414.00 L 86.91 405.00 L 87.19 396.00 L 87.36 387.00 L 87.64 378.00 L 87.90 369.00 L 88.17 360.00 L 88.46 351.00 L 88.71 342.00 L 89.00 333.00 L 89.25 324.00 L 89.53 315.00 L 89.78 306.00 L 90.02 297.00 L 90.25 288.00 L 90.49 279.00 L 90.71 270.00 L 90.91 261.00 L 91.10 252.00 L 91.28 243.00 L 91.44 234.00 L 91.60 225.00 L 91.74 216.00 L 91.88 207.00 L 92.00 198.00 L 92.11 189.00 L 92.21 180.00 L 92.30 171.00 L 92.39 162.00 L 92.46 153.00 L 92.53 144.00 L 92.59 135.00 L 92.64 126.00 L 92.69 117.00 L 92.73 108.00 L 92.77 99.00 L 92.81 90.00 L 92.83 81.00 L 92.86 72.00 L 92.88 63.00 L 92.90 54.00 L 92.92 45.00 L 92.93 36.00 L 92.94 27.00 L 92.96 18.00 L 92.96 9.00 L 92.97 0.00 L 99.03 0.00 L 99.04 9.00 L 99.05 18.00 L 99.06 27.00 L 99.08 36.00 L 99.09 45.00 L 99.11 54.00 L 99.13 63.00 L 99.15 72.00 L 99.18 81.00 L 99.21 90.00 L 99.24 99.00 L 99.27 108.00 L 99.31 117.00 L 99.36 126.00 L 99.41 135.00 L 99.46 144.00 L 99.52 153.00 L 99.58 162.00 L 99.65 171.00 L 99.72 180.00 L 99.81 189.00 L 99.89 198.00 L 99.99 207.00 L 100.09 216.00 L 100.21 225.00 L 100.33 234.00 L 100.45 243.00 L 100.59 252.00 L 100.74 261.00 L 100.89 270.00 L 101.07 279.00 L 101.25 288.00 L 101.44 297.00 L 101.64 306.00 L 101.85 315.00 L 102.10 324.00 L 102.31 333.00 L 102.58 342.00 L 102.81 351.00 L 103.09 360.00 L 103.37 369.00 L 103.64 378.00 L 103.93 387.00 L 104.14 396.00 L 104.45 405.00 L 104.68 414.00 L 104.93 423.00 L 105.30 432.00 L 105.42 441.00 L 105.79 450.00 L 105.96 459.00 L 106.09 468.00 L 106.29 477.00 L 106.49 486.00 L 106.75 495.00 L 106.74 504.00 L 106.94 513.00 L 107.01 522.00 L 107.24 531.00 L 107.24 540.00 L 107.17 549.00 L 107.31 558.00 L 107.38 567.00 L 107.41 576.00 L 107.24 585.00 L 107.15 594.00 L 107.23 603.00 L 107.02 612.00 L 107.04 621.00 L 106.73 630.00 L 106.71 639.00 L 106.51 648.00 L 106.18 657.00 L 105.96 666.00 L 105.74 675.00 L 105.42 684.00 L 105.19 693.00 L 104.81 702.00 L 106.99 711.00 L 112.37 720.00 L 118.23 729.00 L 122.96 738.00 L 123.15 747.00 L 123.69 756.00 L 123.12 765.00 L 121.29 774.00 L 121.70 783.00 L 120.90 792.00 L 120.44 801.00 L 119.79 810.00 L 118.82 819.00 L 117.68 828.00 L 117.20 837.00 L 117.55 846.00 L 116.74 855.00 L 116.16 864.00 L 116.72 873.00 L 115.77 882.00 L 115.69 891.00 L 115.52 900.00 Z M 142.72 900.00 L 142.59 891.00 L 143.19 882.00 L 143.10 873.00 L 142.37 864.00 L 143.16 855.00 L 142.98 846.00 L 142.73 837.00 L 142.85 828.00 L 143.76 819.00 L 143.11 810.00 L 143.34 801.00 L 143.19 792.00 L 143.23 783.00 L 143.47 774.00 L 143.84 765.00 L 144.03 756.00 L 143.47 747.00 L 142.37 738.00 L 142.86 729.00 L 142.18 720.00 L 142.15 711.00 L 141.11 702.00 L 141.29 693.00 L 140.27 684.00 L 140.82 675.00 L 139.20 666.00 L 139.23 657.00 L 138.26 648.00 L 138.59 639.00 L 138.60 630.00 L 136.71 621.00 L 137.55 612.00 L 137.73 603.00 L 141.37 594.00 L 146.53 585.00 L 150.87 576.00 L 152.41 567.00 L 152.46 558.00 L 152.37 549.00 L 152.47 540.00 L 152.44 531.00 L 152.55 522.00 L 152.64 513.00 L 152.76 504.00 L 152.94 495.00 L 153.10 486.00 L 153.32 477.00 L 153.45 468.00 L 153.67 459.00 L 153.84 450.00 L 154.01 441.00 L 154.23 432.00 L 154.44 423.00 L 154.61 414.00 L 154.78 405.00 L 154.94 396.00 L 155.12 387.00 L 155.27 378.00 L 155.44 369.00 L 155.58 360.00 L 155.72 351.00 L 155.86 342.00 L 156.00 333.00 L 156.11 324.00 L 156.23 315.00 L 156.33 306.00 L 156.43 297.00 L 156.52 288.00 L 156.61 279.00 L 156.69 270.00 L 156.76 261.00 L 156.82 252.00 L 156.88 243.00 L 156.94 234.00 L 156.99 225.00 L 157.03 216.00 L 157.07 207.00 L 157.10 198.00 L 157.13 189.00 L 157.16 180.00 L 157.18 171.00 L 157.20 162.00 L 157.21 153.00 L 157.23 144.00 L 157.24 135.00 L 157.25 126.00 L 157.26 117.00 L 157.27 108.00 L 157.27 99.00 L 157.28 90.00 L 157.28 81.00 L 157.29 72.00 L 157.29 63.00 L 157.29 54.00 L 157.29 45.00 L 157.30 36.00 L 157.30 27.00 L 157.30 18.00 L 157.30 9.00 L 157.30 0.00 L 162.70 0.00 L 162.70 9.00 L 162.70 18.00 L 162.70 27.00 L 162.70 36.00 L 162.71 45.00 L 162.71 54.00 L 162.71 63.00 L 162.72 72.00 L 162.72 81.00 L 162.73 90.00 L 162.73 99.00 L 162.74 108.00 L 162.75 117.00 L 162.76 126.00 L 162.78 135.00 L 162.79 144.00 L 162.81 153.00 L 162.84 162.00 L 162.87 171.00 L 162.90 180.00 L 162.94 189.00 L 162.99 198.00 L 163.04 207.00 L 163.10 216.00 L 163.17 225.00 L 163.25 234.00 L 163.34 243.00 L 163.44 252.00 L 163.56 261.00 L 163.68 270.00 L 163.82 279.00 L 163.97 288.00 L 164.14 297.00 L 164.31 306.00 L 164.50 315.00 L 164.71 324.00 L 164.91 333.00 L 165.14 342.00 L 165.38 351.00 L 165.63 360.00 L 165.86 369.00 L 166.12 378.00 L 166.37 387.00 L 166.64 396.00 L 166.88 405.00 L 167.12 414.00 L 167.35 423.00 L 167.62 432.00 L 167.87 441.00 L 168.07 450.00 L 168.26 459.00 L 168.48 468.00 L 168.59 477.00 L 168.80 486.00 L 168.92 495.00 L 169.05 504.00 L 169.12 513.00 L 169.14 522.00 L 169.18 531.00 L 169.08 540.00 L 169.10 549.00 L 168.93 558.00 L 168.89 567.00 L 170.77 576.00 L 175.98 585.00 L 182.08 594.00 L 186.36 603.00 L 186.58 612.00 L 187.30 621.00 L 185.31 630.00 L 185.25 639.00 L 185.55 648.00 L 184.56 657.00 L 184.61 666.00 L 183.03 675.00 L 183.65 684.00 L 182.72 693.00 L 183.03 702.00 L 182.13 711.00 L 182.26 720.00 L 181.75 729.00 L 182.43 738.00 L 181.54 747.00 L 181.20 756.00 L 181.62 765.00 L 182.22 774.00 L 182.72 783.00 L 183.00 792.00 L 183.10 801.00 L 183.58 810.00 L 183.17 819.00 L 184.32 828.00 L 184.67 837.00 L 184.64 846.00 L 184.68 855.00 L 185.66 864.00 L 185.12 873.00 L 185.19 882.00 L 185.94 891.00 L 185.94 900.00 Z M 210.65 900.00 L 207.32 891.00 L 205.93 882.00 L 205.92 873.00 L 206.26 864.00 L 206.37 855.00 L 206.51 846.00 L 206.13 837.00 L 205.92 828.00 L 205.71 819.00 L 206.43 810.00 L 206.31 801.00 L 205.82 792.00 L 205.70 783.00 L 205.73 774.00 L 205.56 765.00 L 205.28 756.00 L 205.57 747.00 L 204.33 738.00 L 203.97 729.00 L 204.56 720.00 L 204.23 711.00 L 203.65 702.00 L 203.00 693.00 L 202.27 684.00 L 203.17 675.00 L 202.61 666.00 L 202.41 657.00 L 202.36 648.00 L 201.78 639.00 L 201.31 630.00 L 201.60 621.00 L 201.29 612.00 L 201.61 603.00 L 201.29 594.00 L 201.06 585.00 L 201.83 576.00 L 202.39 567.00 L 201.25 558.00 L 201.65 549.00 L 203.42 540.00 L 202.63 531.00 L 204.22 522.00 L 203.32 513.00 L 204.51 504.00 L 203.90 495.00 L 205.40 486.00 L 204.49 477.00 L 205.67 468.00 L 208.70 459.00 L 211.43 450.00 L 214.17 441.00 L 215.35 432.00 L 215.09 423.00 L 215.24 414.00 L 215.15 405.00 L 215.03 396.00 L 215.18 387.00 L 215.14 378.00 L 215.11 369.00 L 215.22 360.00 L 215.27 351.00 L 215.34 342.00 L 215.30 333.00 L 215.54 324.00 L 215.67 315.00 L 215.80 306.00 L 216.00 297.00 L 216.19 288.00 L 216.42 279.00 L 216.64 270.00 L 216.89 261.00 L 217.10 252.00 L 217.33 243.00 L 217.55 234.00 L 217.78 225.00 L 218.02 216.00 L 218.25 207.00 L 218.44 198.00 L 218.65 189.00 L 218.84 180.00 L 219.01 171.00 L 219.18 162.00 L 219.33 153.00 L 219.46 144.00 L 219.59 135.00 L 219.70 126.00 L 219.81 117.00 L 219.90 108.00 L 219.99 99.00 L 220.06 90.00 L 220.12 81.00 L 220.18 72.00 L 220.23 63.00 L 220.27 54.00 L 220.31 45.00 L 220.34 36.00 L 220.37 27.00 L 220.39 18.00 L 220.41 9.00 L 220.42 0.00 L 227.60 0.00 L 227.61 9.00 L 227.64 18.00 L 227.66 27.00 L 227.69 36.00 L 227.73 45.00 L 227.77 54.00 L 227.82 63.00 L 227.87 72.00 L 227.94 81.00 L 228.01 90.00 L 228.09 99.00 L 228.19 108.00 L 228.30 117.00 L 228.42 126.00 L 228.55 135.00 L 228.70 144.00 L 228.87 153.00 L 229.05 162.00 L 229.26 171.00 L 229.48 180.00 L 229.72 189.00 L 230.00 198.00 L 230.27 207.00 L 230.59 216.00 L 230.92 225.00 L 231.27 234.00 L 231.61 243.00 L 231.98 252.00 L 232.34 261.00 L 232.74 270.00 L 233.14 279.00 L 233.54 288.00 L 233.92 297.00 L 234.29 306.00 L 234.62 315.00 L 234.93 324.00 L 235.34 333.00 L 235.47 342.00 L 235.70 351.00 L 235.89 360.00 L 236.13 369.00 L 236.20 378.00 L 236.24 387.00 L 236.46 396.00 L 236.37 405.00 L 236.28 414.00 L 236.40 423.00 L 236.10 432.00 L 237.95 441.00 L 242.52 450.00 L 247.38 459.00 L 251.95 468.00 L 253.33 477.00 L 252.14 486.00 L 253.34 495.00 L 252.39 504.00 L 253.24 513.00 L 251.97 522.00 L 253.19 531.00 L 252.02 540.00 L 253.40 549.00 L 253.42 558.00 L 251.90 567.00 L 252.09 576.00 L 252.49 585.00 L 251.91 594.00 L 251.25 603.00 L 251.26 612.00 L 250.65 621.00 L 250.66 630.00 L 249.93 639.00 L 249.11 648.00 L 248.85 657.00 L 248.48 666.00 L 247.76 675.00 L 248.53 684.00 L 247.70 693.00 L 246.98 702.00 L 246.36 711.00 L 246.01 720.00 L 246.61 729.00 L 246.29 738.00 L 245.11 747.00 L 245.49 756.00 L 245.33 765.00 L 245.30 774.00 L 245.49 783.00 L 245.55 792.00 L 245.27 801.00 L 245.37 810.00 L 246.33 819.00 L 246.36 828.00 L 246.42 837.00 L 246.31 846.00 L 246.72 855.00 L 247.12 864.00 L 247.73 873.00 L 248.01 882.00 L 246.33 891.00 L 241.53 900.00 Z M 285.11 900.00 L 285.09 891.00 L 285.07 882.00 L 285.05 873.00 L 285.02 864.00 L 284.99 855.00 L 284.95 846.00 L 284.91 837.00 L 284.86 828.00 L 284.81 819.00 L 284.74 810.00 L 284.67 801.00 L 284.60 792.00 L 282.82 783.00 L 277.48 774.00 L 271.02 765.00 L 265.70 756.00 L 263.91 747.00 L 263.65 738.00 L 263.47 729.00 L 263.03 720.00 L 263.23 711.00 L 263.39 702.00 L 262.91 693.00 L 262.98 684.00 L 263.67 675.00 L 264.14 666.00 L 264.21 657.00 L 264.22 648.00 L 264.26 639.00 L 264.13 630.00 L 263.88 621.00 L 264.75 612.00 L 265.39 603.00 L 264.82 594.00 L 265.48 585.00 L 265.34 576.00 L 264.99 567.00 L 265.94 558.00 L 266.49 549.00 L 266.69 540.00 L 266.34 531.00 L 265.58 522.00 L 264.53 513.00 L 265.46 504.00 L 264.80 495.00 L 263.19 486.00 L 264.15 477.00 L 263.78 468.00 L 262.44 459.00 L 262.52 450.00 L 260.55 441.00 L 261.67 432.00 L 259.95 423.00 L 259.46 414.00 L 260.46 405.00 L 258.70 396.00 L 258.84 387.00 L 258.77 378.00 L 258.05 369.00 L 259.14 360.00 L 258.32 351.00 L 259.52 342.00 L 261.76 333.00 L 266.48 324.00 L 273.84 315.00 L 279.57 306.00 L 281.78 297.00 L 282.06 288.00 L 282.32 279.00 L 282.59 270.00 L 282.83 261.00 L 283.07 252.00 L 283.28 243.00 L 283.49 234.00 L 283.68 225.00 L 283.85 216.00 L 284.01 207.00 L 284.15 198.00 L 284.28 189.00 L 284.40 180.00 L 284.50 171.00 L 284.60 162.00 L 284.68 153.00 L 284.75 144.00 L 284.82 135.00 L 284.87 126.00 L 284.92 117.00 L 284.97 108.00 L 285.00 99.00 L 285.03 90.00 L 285.06 81.00 L 285.08 72.00 L 285.10 63.00 L 285.11 54.00 L 285.13 45.00 L 285.14 36.00 L 285.15 27.00 L 285.15 18.00 L 285.16 9.00 L 285.17 0.00 L 290.83 0.00 L 290.84 9.00 L 290.84 18.00 L 290.85 27.00 L 290.86 36.00 L 290.87 45.00 L 290.88 54.00 L 290.90 63.00 L 290.91 72.00 L 290.93 81.00 L 290.95 90.00 L 290.98 99.00 L 291.01 108.00 L 291.04 117.00 L 291.08 126.00 L 291.12 135.00 L 291.17 144.00 L 291.23 153.00 L 291.29 162.00 L 291.36 171.00 L 291.43 180.00 L 291.51 189.00 L 291.60 198.00 L 291.70 207.00 L 291.81 216.00 L 291.93 225.00 L 292.06 234.00 L 292.20 243.00 L 292.34 252.00 L 292.51 261.00 L 292.68 270.00 L 292.88 279.00 L 293.06 288.00 L 293.27 297.00 L 294.89 306.00 L 299.15 315.00 L 304.84 324.00 L 308.32 333.00 L 310.30 342.00 L 311.64 351.00 L 310.99 360.00 L 312.28 369.00 L 311.78 378.00 L 311.95 387.00 L 312.35 396.00 L 310.87 405.00 L 312.17 414.00 L 311.99 423.00 L 310.58 432.00 L 312.03 441.00 L 310.39 450.00 L 310.78 459.00 L 309.76 468.00 L 309.71 477.00 L 310.96 486.00 L 309.64 495.00 L 309.24 504.00 L 310.42 513.00 L 309.59 522.00 L 309.02 531.00 L 308.83 540.00 L 309.17 549.00 L 309.83 558.00 L 310.85 567.00 L 310.54 576.00 L 310.42 585.00 L 311.06 594.00 L 310.44 603.00 L 311.01 612.00 L 311.78 621.00 L 311.39 630.00 L 311.12 639.00 L 310.99 648.00 L 310.80 657.00 L 310.66 666.00 L 310.91 675.00 L 311.36 684.00 L 311.18 693.00 L 310.44 702.00 L 310.34 711.00 L 310.27 720.00 L 309.57 729.00 L 309.11 738.00 L 308.59 747.00 L 306.83 756.00 L 302.26 765.00 L 296.94 774.00 L 292.66 783.00 L 291.27 792.00 L 291.20 801.00 L 291.15 810.00 L 291.10 819.00 L 291.05 828.00 L 291.02 837.00 L 290.99 846.00 L 290.96 855.00 L 290.93 864.00 L 290.91 873.00 L 290.90 882.00 L 290.88 891.00 L 290.87 900.00 Z M 347.99 900.00 L 347.96 891.00 L 347.93 882.00 L 347.90 873.00 L 347.87 864.00 L 347.84 855.00 L 347.80 846.00 L 347.76 837.00 L 347.72 828.00 L 347.67 819.00 L 347.62 810.00 L 347.57 801.00 L 347.51 792.00 L 347.45 783.00 L 347.38 774.00 L 347.31 765.00 L 347.24 756.00 L 347.16 747.00 L 347.08 738.00 L 346.99 729.00 L 346.89 720.00 L 346.79 711.00 L 346.69 702.00 L 346.58 693.00 L 346.46 684.00 L 346.35 675.00 L 346.22 666.00 L 346.09 657.00 L 344.35 648.00 L 339.80 639.00 L 335.10 630.00 L 331.22 621.00 L 330.27 612.00 L 328.53 603.00 L 328.14 594.00 L 328.06 585.00 L 327.71 576.00 L 327.78 567.00 L 326.40 558.00 L 326.10 549.00 L 325.61 540.00 L 324.97 531.00 L 323.81 522.00 L 323.84 513.00 L 323.08 504.00 L 322.60 495.00 L 322.34 486.00 L 321.71 477.00 L 322.01 468.00 L 320.80 459.00 L 320.79 450.00 L 320.00 441.00 L 320.24 432.00 L 321.49 423.00 L 321.18 414.00 L 321.98 405.00 L 320.77 396.00 L 321.53 387.00 L 322.31 378.00 L 323.43 369.00 L 324.33 360.00 L 324.04 351.00 L 325.07 342.00 L 326.13 333.00 L 325.17 324.00 L 326.85 315.00 L 326.71 306.00 L 326.68 297.00 L 327.88 288.00 L 328.47 279.00 L 329.17 270.00 L 329.07 261.00 L 328.30 252.00 L 328.66 243.00 L 328.48 234.00 L 329.56 225.00 L 328.87 216.00 L 329.37 207.00 L 329.74 198.00 L 333.90 189.00 L 338.77 180.00 L 343.18 171.00 L 344.72 162.00 L 344.87 153.00 L 344.98 144.00 L 345.14 135.00 L 345.28 126.00 L 345.40 117.00 L 345.53 108.00 L 345.68 99.00 L 345.79 90.00 L 345.91 81.00 L 346.04 72.00 L 346.16 63.00 L 346.27 54.00 L 346.39 45.00 L 346.49 36.00 L 346.59 27.00 L 346.69 18.00 L 346.79 9.00 L 346.88 0.00 L 357.14 0.00 L 357.26 9.00 L 357.38 18.00 L 357.51 27.00 L 357.64 36.00 L 357.79 45.00 L 357.94 54.00 L 358.09 63.00 L 358.25 72.00 L 358.42 81.00 L 358.59 90.00 L 358.74 99.00 L 358.92 108.00 L 359.09 117.00 L 359.24 126.00 L 359.42 135.00 L 359.60 144.00 L 359.73 153.00 L 359.90 162.00 L 361.69 171.00 L 366.80 180.00 L 372.43 189.00 L 377.10 198.00 L 377.47 207.00 L 377.75 216.00 L 376.80 225.00 L 377.60 234.00 L 377.13 243.00 L 377.17 252.00 L 376.07 261.00 L 375.63 270.00 L 375.97 279.00 L 376.20 288.00 L 377.04 297.00 L 376.65 306.00 L 376.15 315.00 L 377.49 324.00 L 376.18 333.00 L 376.92 342.00 L 377.65 351.00 L 377.07 360.00 L 377.71 369.00 L 378.59 378.00 L 379.17 387.00 L 379.76 396.00 L 378.39 405.00 L 379.09 414.00 L 378.71 423.00 L 379.91 432.00 L 380.15 441.00 L 379.39 450.00 L 379.44 459.00 L 378.33 468.00 L 378.76 477.00 L 378.29 486.00 L 378.23 495.00 L 377.96 504.00 L 377.44 513.00 L 377.74 522.00 L 376.86 531.00 L 376.52 540.00 L 376.35 549.00 L 376.38 558.00 L 375.34 567.00 L 375.74 576.00 L 375.73 585.00 L 376.00 594.00 L 375.94 603.00 L 374.53 612.00 L 373.82 621.00 L 369.92 630.00 L 364.94 639.00 L 360.05 648.00 L 358.16 657.00 L 358.04 666.00 L 357.92 675.00 L 357.80 684.00 L 357.68 693.00 L 357.56 702.00 L 357.45 711.00 L 357.35 720.00 L 357.23 729.00 L 357.13 738.00 L 357.03 747.00 L 356.94 756.00 L 356.85 765.00 L 356.76 774.00 L 356.68 783.00 L 356.60 792.00 L 356.53 801.00 L 356.46 810.00 L 356.40 819.00 L 356.34 828.00 L 356.28 837.00 L 356.23 846.00 L 356.19 855.00 L 356.14 864.00 L 356.11 873.00 L 356.07 882.00 L 356.04 891.00 L 356.01 900.00 Z M 412.43 900.00 L 412.43 891.00 L 412.43 882.00 L 412.43 873.00 L 412.43 864.00 L 412.43 855.00 L 412.43 846.00 L 412.43 837.00 L 412.43 828.00 L 412.42 819.00 L 412.42 810.00 L 412.42 801.00 L 412.42 792.00 L 412.41 783.00 L 412.41 774.00 L 412.41 765.00 L 412.40 756.00 L 412.39 747.00 L 412.38 738.00 L 412.37 729.00 L 412.36 720.00 L 412.35 711.00 L 412.33 702.00 L 412.32 693.00 L 412.30 684.00 L 412.27 675.00 L 412.24 666.00 L 412.21 657.00 L 412.18 648.00 L 412.13 639.00 L 412.09 630.00 L 412.04 621.00 L 411.98 612.00 L 411.91 603.00 L 411.84 594.00 L 411.76 585.00 L 411.67 576.00 L 411.58 567.00 L 411.47 558.00 L 411.36 549.00 L 411.24 540.00 L 411.11 531.00 L 410.97 522.00 L 408.83 513.00 L 403.39 504.00 L 396.71 495.00 L 391.73 486.00 L 389.53 477.00 L 389.79 468.00 L 389.90 459.00 L 389.40 450.00 L 389.73 441.00 L 389.72 432.00 L 390.36 423.00 L 390.59 414.00 L 390.57 405.00 L 390.94 396.00 L 392.34 387.00 L 391.51 378.00 L 391.92 369.00 L 392.68 360.00 L 392.64 351.00 L 393.68 342.00 L 393.65 333.00 L 393.52 324.00 L 394.00 315.00 L 394.04 306.00 L 394.46 297.00 L 393.62 288.00 L 394.41 279.00 L 393.51 270.00 L 394.61 261.00 L 394.61 252.00 L 394.02 243.00 L 393.22 234.00 L 392.70 225.00 L 392.91 216.00 L 392.29 207.00 L 393.09 198.00 L 391.65 189.00 L 392.11 180.00 L 391.27 171.00 L 392.32 162.00 L 392.00 153.00 L 390.84 144.00 L 391.50 135.00 L 391.05 126.00 L 391.35 117.00 L 391.69 108.00 L 391.70 99.00 L 392.03 90.00 L 391.80 81.00 L 391.55 72.00 L 394.11 63.00 L 399.18 54.00 L 404.94 45.00 L 409.54 36.00 L 411.00 27.00 L 411.13 18.00 L 411.25 9.00 L 411.36 0.00 L 420.28 0.00 L 420.37 9.00 L 420.46 18.00 L 420.57 27.00 L 421.61 36.00 L 424.98 45.00 L 429.34 54.00 L 433.41 63.00 L 435.82 72.00 L 435.81 81.00 L 435.82 90.00 L 436.38 99.00 L 436.61 108.00 L 437.16 117.00 L 437.66 126.00 L 437.40 135.00 L 438.23 144.00 L 437.22 153.00 L 437.02 162.00 L 438.18 171.00 L 437.43 180.00 L 437.95 189.00 L 436.54 198.00 L 437.34 207.00 L 436.70 216.00 L 436.86 225.00 L 436.27 234.00 L 435.36 243.00 L 434.64 252.00 L 434.50 261.00 L 435.43 270.00 L 434.33 279.00 L 434.91 288.00 L 433.84 297.00 L 434.01 306.00 L 433.80 315.00 L 434.01 324.00 L 433.62 333.00 L 433.31 342.00 L 434.08 351.00 L 433.77 360.00 L 434.27 369.00 L 434.42 378.00 L 433.34 387.00 L 434.51 396.00 L 434.66 405.00 L 434.44 414.00 L 434.48 423.00 L 434.96 432.00 L 434.80 441.00 L 435.01 450.00 L 434.41 459.00 L 434.44 468.00 L 434.65 477.00 L 432.88 486.00 L 429.65 495.00 L 425.27 504.00 L 421.81 513.00 L 420.48 522.00 L 420.39 531.00 L 420.31 540.00 L 420.24 549.00 L 420.18 558.00 L 420.11 567.00 L 420.06 576.00 L 420.01 585.00 L 419.96 594.00 L 419.92 603.00 L 419.88 612.00 L 419.84 621.00 L 419.81 630.00 L 419.78 639.00 L 419.75 648.00 L 419.73 657.00 L 419.71 666.00 L 419.69 675.00 L 419.67 684.00 L 419.66 693.00 L 419.65 702.00 L 419.63 711.00 L 419.62 720.00 L 419.62 729.00 L 419.61 738.00 L 419.60 747.00 L 419.60 756.00 L 419.59 765.00 L 419.59 774.00 L 419.58 783.00 L 419.58 792.00 L 419.58 801.00 L 419.58 810.00 L 419.57 819.00 L 419.57 828.00 L 419.57 837.00 L 419.57 846.00 L 419.57 855.00 L 419.57 864.00 L 419.57 873.00 L 419.57 882.00 L 419.57 891.00 L 419.57 900.00 Z M 476.63 900.00 L 476.63 891.00 L 476.63 882.00 L 476.63 873.00 L 476.63 864.00 L 476.63 855.00 L 476.63 846.00 L 476.63 837.00 L 476.63 828.00 L 476.62 819.00 L 476.62 810.00 L 476.62 801.00 L 476.61 792.00 L 476.61 783.00 L 476.60 774.00 L 476.59 765.00 L 476.59 756.00 L 476.57 747.00 L 476.56 738.00 L 476.55 729.00 L 476.53 720.00 L 476.51 711.00 L 476.48 702.00 L 476.45 693.00 L 476.42 684.00 L 476.38 675.00 L 476.34 666.00 L 476.28 657.00 L 476.22 648.00 L 476.16 639.00 L 476.08 630.00 L 475.99 621.00 L 475.90 612.00 L 475.79 603.00 L 475.67 594.00 L 475.53 585.00 L 475.39 576.00 L 475.23 567.00 L 475.05 558.00 L 474.87 549.00 L 474.68 540.00 L 474.46 531.00 L 474.22 522.00 L 473.98 513.00 L 473.74 504.00 L 473.48 495.00 L 473.21 486.00 L 472.93 477.00 L 472.71 468.00 L 472.40 459.00 L 472.17 450.00 L 471.97 441.00 L 471.75 432.00 L 471.60 423.00 L 471.39 414.00 L 471.15 405.00 L 471.05 396.00 L 470.96 387.00 L 469.44 378.00 L 466.11 369.00 L 462.02 360.00 L 459.81 351.00 L 459.63 342.00 L 459.62 333.00 L 460.66 324.00 L 460.60 315.00 L 460.91 306.00 L 462.33 297.00 L 462.40 288.00 L 463.10 279.00 L 463.51 270.00 L 462.64 261.00 L 463.79 252.00 L 464.44 243.00 L 463.72 234.00 L 463.62 225.00 L 463.55 216.00 L 464.44 207.00 L 464.67 198.00 L 464.60 189.00 L 463.36 180.00 L 463.80 171.00 L 464.04 162.00 L 463.45 153.00 L 462.92 144.00 L 462.91 135.00 L 463.59 126.00 L 463.35 117.00 L 462.25 108.00 L 462.38 99.00 L 462.57 90.00 L 462.75 81.00 L 462.32 72.00 L 462.12 63.00 L 463.06 54.00 L 462.66 45.00 L 463.36 36.00 L 463.08 27.00 L 463.36 18.00 L 463.71 9.00 L 463.87 0.00 L 502.51 0.00 L 502.92 9.00 L 503.51 18.00 L 504.04 27.00 L 503.98 36.00 L 504.90 45.00 L 504.70 54.00 L 505.83 63.00 L 505.81 72.00 L 505.54 81.00 L 505.85 90.00 L 506.17 99.00 L 506.40 108.00 L 505.38 117.00 L 505.20 126.00 L 505.93 135.00 L 505.93 144.00 L 505.40 153.00 L 504.78 162.00 L 504.97 171.00 L 505.35 180.00 L 504.01 189.00 L 503.83 198.00 L 503.91 207.00 L 504.65 216.00 L 504.40 225.00 L 504.10 234.00 L 503.17 243.00 L 503.59 252.00 L 504.50 261.00 L 503.37 270.00 L 503.52 279.00 L 503.95 288.00 L 503.74 297.00 L 504.89 306.00 L 504.94 315.00 L 504.61 324.00 L 505.40 333.00 L 505.14 342.00 L 504.56 351.00 L 501.43 360.00 L 496.28 369.00 L 492.10 378.00 L 490.20 387.00 L 490.06 396.00 L 489.92 405.00 L 489.63 414.00 L 489.38 423.00 L 489.20 432.00 L 488.95 441.00 L 488.72 450.00 L 488.47 459.00 L 488.15 468.00 L 487.90 477.00 L 487.61 486.00 L 487.32 495.00 L 487.04 504.00 L 486.77 513.00 L 486.51 522.00 L 486.24 531.00 L 486.00 540.00 L 485.78 549.00 L 485.57 558.00 L 485.35 567.00 L 485.15 576.00 L 484.97 585.00 L 484.80 594.00 L 484.64 603.00 L 484.49 612.00 L 484.36 621.00 L 484.24 630.00 L 484.13 639.00 L 484.03 648.00 L 483.94 657.00 L 483.86 666.00 L 483.79 675.00 L 483.72 684.00 L 483.67 693.00 L 483.62 702.00 L 483.58 711.00 L 483.54 720.00 L 483.51 729.00 L 483.49 738.00 L 483.47 747.00 L 483.45 756.00 L 483.43 765.00 L 483.42 774.00 L 483.41 783.00 L 483.40 792.00 L 483.39 801.00 L 483.39 810.00 L 483.38 819.00 L 483.38 828.00 L 483.38 837.00 L 483.37 846.00 L 483.37 855.00 L 483.37 864.00 L 483.37 873.00 L 483.37 882.00 L 483.37 891.00 L 483.37 900.00 Z M 541.09 900.00 L 541.09 891.00 L 541.09 882.00 L 541.09 873.00 L 541.09 864.00 L 541.09 855.00 L 541.09 846.00 L 541.09 837.00 L 541.09 828.00 L 541.09 819.00 L 541.09 810.00 L 541.08 801.00 L 541.08 792.00 L 541.08 783.00 L 541.07 774.00 L 541.07 765.00 L 541.06 756.00 L 541.05 747.00 L 541.04 738.00 L 541.03 729.00 L 541.02 720.00 L 541.00 711.00 L 540.98 702.00 L 540.96 693.00 L 540.94 684.00 L 540.91 675.00 L 540.87 666.00 L 540.84 657.00 L 540.79 648.00 L 540.74 639.00 L 540.69 630.00 L 540.62 621.00 L 540.55 612.00 L 540.48 603.00 L 540.39 594.00 L 540.29 585.00 L 540.19 576.00 L 540.07 567.00 L 539.94 558.00 L 539.81 549.00 L 539.65 540.00 L 539.50 531.00 L 539.32 522.00 L 539.16 513.00 L 538.95 504.00 L 538.75 495.00 L 538.55 486.00 L 538.33 477.00 L 538.09 468.00 L 537.85 459.00 L 537.59 450.00 L 537.37 441.00 L 537.14 432.00 L 536.87 423.00 L 536.63 414.00 L 536.38 405.00 L 536.23 396.00 L 535.99 387.00 L 535.82 378.00 L 535.72 369.00 L 535.57 360.00 L 535.44 351.00 L 535.36 342.00 L 535.34 333.00 L 535.34 324.00 L 535.42 315.00 L 535.53 306.00 L 535.57 297.00 L 535.72 288.00 L 535.83 279.00 L 536.09 270.00 L 536.29 261.00 L 536.45 252.00 L 534.49 243.00 L 530.22 234.00 L 525.88 225.00 L 521.89 216.00 L 522.42 207.00 L 522.53 198.00 L 523.24 189.00 L 522.92 180.00 L 522.79 171.00 L 524.37 162.00 L 523.47 153.00 L 523.82 144.00 L 524.34 135.00 L 523.49 126.00 L 524.24 117.00 L 524.86 108.00 L 523.90 99.00 L 524.52 90.00 L 524.34 81.00 L 524.12 72.00 L 524.04 63.00 L 523.32 54.00 L 522.73 45.00 L 523.02 36.00 L 522.69 27.00 L 522.74 18.00 L 523.47 9.00 L 522.74 0.00 L 570.82 0.00 L 570.03 9.00 L 570.66 18.00 L 570.61 27.00 L 570.14 36.00 L 570.27 45.00 L 569.50 54.00 L 568.58 63.00 L 568.29 72.00 L 567.83 81.00 L 567.41 90.00 L 567.77 99.00 L 566.54 108.00 L 566.88 117.00 L 567.34 126.00 L 566.21 135.00 L 566.44 144.00 L 566.50 153.00 L 565.31 162.00 L 566.62 171.00 L 566.22 180.00 L 565.64 189.00 L 566.10 198.00 L 565.98 207.00 L 566.29 216.00 L 562.12 225.00 L 557.70 234.00 L 553.42 243.00 L 551.46 252.00 L 551.60 261.00 L 551.78 270.00 L 552.04 279.00 L 552.15 288.00 L 552.30 297.00 L 552.36 306.00 L 552.49 315.00 L 552.60 324.00 L 552.65 333.00 L 552.67 342.00 L 552.65 351.00 L 552.57 360.00 L 552.48 369.00 L 552.44 378.00 L 552.34 387.00 L 552.16 396.00 L 552.07 405.00 L 551.87 414.00 L 551.68 423.00 L 551.44 432.00 L 551.25 441.00 L 551.05 450.00 L 550.80 459.00 L 550.58 468.00 L 550.33 477.00 L 550.10 486.00 L 549.89 495.00 L 549.66 504.00 L 549.43 513.00 L 549.23 522.00 L 549.01 531.00 L 548.82 540.00 L 548.63 549.00 L 548.46 558.00 L 548.29 567.00 L 548.13 576.00 L 547.99 585.00 L 547.86 594.00 L 547.74 603.00 L 547.63 612.00 L 547.53 621.00 L 547.44 630.00 L 547.37 639.00 L 547.30 648.00 L 547.24 657.00 L 547.19 666.00 L 547.14 675.00 L 547.10 684.00 L 547.07 693.00 L 547.04 702.00 L 547.02 711.00 L 547.00 720.00 L 546.98 729.00 L 546.97 738.00 L 546.95 747.00 L 546.94 756.00 L 546.94 765.00 L 546.93 774.00 L 546.93 783.00 L 546.92 792.00 L 546.92 801.00 L 546.91 810.00 L 546.91 819.00 L 546.91 828.00 L 546.91 837.00 L 546.91 846.00 L 546.91 855.00 L 546.91 864.00 L 546.91 873.00 L 546.91 882.00 L 546.91 891.00 L 546.91 900.00 Z M 602.53 900.00 L 602.36 891.00 L 602.17 882.00 L 601.98 873.00 L 601.79 864.00 L 601.57 855.00 L 601.38 846.00 L 601.13 837.00 L 600.95 828.00 L 600.73 819.00 L 600.45 810.00 L 600.23 801.00 L 600.05 792.00 L 599.80 783.00 L 599.53 774.00 L 599.35 765.00 L 599.07 756.00 L 598.91 747.00 L 598.64 738.00 L 598.49 729.00 L 598.24 720.00 L 598.09 711.00 L 597.78 702.00 L 597.70 693.00 L 597.51 684.00 L 597.28 675.00 L 597.14 666.00 L 596.99 657.00 L 596.88 648.00 L 596.71 639.00 L 596.55 630.00 L 596.54 621.00 L 596.40 612.00 L 596.45 603.00 L 596.47 594.00 L 596.38 585.00 L 596.50 576.00 L 596.49 567.00 L 596.58 558.00 L 596.74 549.00 L 597.00 540.00 L 597.12 531.00 L 597.26 522.00 L 597.54 513.00 L 597.73 504.00 L 598.05 495.00 L 598.28 486.00 L 598.60 477.00 L 598.91 468.00 L 599.17 459.00 L 599.44 450.00 L 599.75 441.00 L 600.04 432.00 L 600.33 423.00 L 600.58 414.00 L 600.84 405.00 L 601.12 396.00 L 601.35 387.00 L 601.60 378.00 L 601.82 369.00 L 602.03 360.00 L 602.25 351.00 L 602.43 342.00 L 602.61 333.00 L 602.79 324.00 L 602.95 315.00 L 603.11 306.00 L 603.25 297.00 L 603.39 288.00 L 603.52 279.00 L 603.63 270.00 L 603.74 261.00 L 603.84 252.00 L 603.94 243.00 L 604.03 234.00 L 604.10 225.00 L 604.18 216.00 L 604.25 207.00 L 604.31 198.00 L 604.36 189.00 L 604.42 180.00 L 604.46 171.00 L 604.51 162.00 L 604.54 153.00 L 604.58 144.00 L 604.61 135.00 L 604.64 126.00 L 604.67 117.00 L 604.69 108.00 L 604.71 99.00 L 604.73 90.00 L 604.74 81.00 L 604.76 72.00 L 604.77 63.00 L 604.78 54.00 L 604.79 45.00 L 604.80 36.00 L 604.81 27.00 L 604.82 18.00 L 604.82 9.00 L 604.83 0.00 L 611.16 0.00 L 611.16 9.00 L 611.17 18.00 L 611.17 27.00 L 611.18 36.00 L 611.18 45.00 L 611.19 54.00 L 611.20 63.00 L 611.21 72.00 L 611.22 81.00 L 611.23 90.00 L 611.24 99.00 L 611.26 108.00 L 611.28 117.00 L 611.30 126.00 L 611.32 135.00 L 611.35 144.00 L 611.38 153.00 L 611.41 162.00 L 611.45 171.00 L 611.49 180.00 L 611.53 189.00 L 611.58 198.00 L 611.63 207.00 L 611.69 216.00 L 611.76 225.00 L 611.83 234.00 L 611.90 243.00 L 611.98 252.00 L 612.06 261.00 L 612.15 270.00 L 612.24 279.00 L 612.35 288.00 L 612.45 297.00 L 612.55 306.00 L 612.67 315.00 L 612.79 324.00 L 612.91 333.00 L 613.03 342.00 L 613.14 351.00 L 613.28 360.00 L 613.41 369.00 L 613.54 378.00 L 613.69 387.00 L 613.81 396.00 L 613.97 405.00 L 614.11 414.00 L 614.23 423.00 L 614.39 432.00 L 614.54 441.00 L 614.70 450.00 L 614.82 459.00 L 614.93 468.00 L 615.09 477.00 L 615.28 486.00 L 615.36 495.00 L 615.55 504.00 L 615.62 513.00 L 615.77 522.00 L 615.81 531.00 L 615.84 540.00 L 616.02 549.00 L 616.11 558.00 L 616.16 567.00 L 616.12 576.00 L 616.22 585.00 L 616.14 594.00 L 616.18 603.00 L 616.26 612.00 L 616.18 621.00 L 616.25 630.00 L 616.17 639.00 L 616.10 648.00 L 616.10 657.00 L 616.07 666.00 L 616.06 675.00 L 615.96 684.00 L 615.91 693.00 L 615.97 702.00 L 615.81 711.00 L 615.80 720.00 L 615.69 729.00 L 615.68 738.00 L 615.54 747.00 L 615.51 756.00 L 615.34 765.00 L 615.27 774.00 L 615.10 783.00 L 614.94 792.00 L 614.86 801.00 L 614.71 810.00 L 614.50 819.00 L 614.34 828.00 L 614.21 837.00 L 614.02 846.00 L 613.86 855.00 L 613.68 864.00 L 613.52 873.00 L 613.36 882.00 L 613.19 891.00 L 613.04 900.00 Z" fill="#11100e"/>
</svg>
