<?xml version="1.0" encoding="UTF-8"?>
<svg xmlns="http://www.w3.org/2000/svg" viewBox="0 0 832 900" role="img" aria-label="Varythm ô">
  <rect width="832" height="900" fill="#f0eee7"/>
  <path d="M 28.46 900.00 L 28.46 891.00 L 28.46 882.00 L 28.46 873.00 L 28.45 864.00 L 28.45 855.00 L 28.45 846.00 L 28.44 837.00 L 28.43 828.00 L 28.43 819.00 L 28.42 810.00 L 28.41 801.00 L 28.39 792.00 L 28.38 783.00 L 28.36 774.00 L 28.34 765.00 L 28.31 756.00 L 28.28 747.00 L 28.25 738.00 L 28.21 729.00 L 28.16 720.00 L 28.11 711.00 L 28.05 702.00 L 27.99 693.00 L 27.92 684.00 L 27.84 675.00 L 27.75 666.00 L 27.65 657.00 L 27.55 648.00 L 27.43 639.00 L 27.31 630.00 L 27.18 621.00 L 27.04 612.00 L 26.88 603.00 L 26.74 594.00 L 26.57 585.00 L 26.41 576.00 L 26.24 567.00 L 26.07 558.00 L 25.89 549.00 L 25.74 540.00 L 25.55 531.00 L 25.39 522.00 L 25.23 513.00 L 25.11 504.00 L 24.97 495.00 L 24.84 486.00 L 24.75 477.00 L 24.72 468.00 L 24.60 459.00 L 24.59 450.00 L 24.47 441.00 L 24.46 432.00 L 24.52 423.00 L 24.44 414.00 L 24.54 405.00 L 24.53 396.00 L 24.54 387.00 L 24.59 378.00 L 24.62 369.00 L 24.71 360.00 L 24.79 351.00 L 24.81 342.00 L 24.93 333.00 L 25.04 324.00 L 25.10 315.00 L 25.23 306.00 L 25.36 297.00 L 25.48 288.00 L 25.59 279.00 L 25.73 270.00 L 25.86 261.00 L 25.99 252.00 L 26.14 243.00 L 26.26 234.00 L 26.41 225.00 L 26.55 216.00 L 26.70 207.00 L 26.83 198.00 L 26.96 189.00 L 27.09 180.00 L 27.21 171.00 L 27.33 162.00 L 27.44 153.00 L 27.55 144.00 L 27.64 135.00 L 27.73 126.00 L 27.82 117.00 L 27.89 108.00 L 27.96 99.00 L 28.02 90.00 L 28.08 81.00 L 28.13 72.00 L 28.18 63.00 L 28.22 54.00 L 28.26 45.00 L 28.29 36.00 L 28.31 27.00 L 28.34 18.00 L 28.36 9.00 L 28.38 0.00 L 35.63 0.00 L 35.65 9.00 L 35.67 18.00 L 35.69 27.00 L 35.72 36.00 L 35.76 45.00 L 35.80 54.00 L 35.84 63.00 L 35.89 72.00 L 35.95 81.00 L 36.02 90.00 L 36.09 99.00 L 36.18 108.00 L 36.27 117.00 L 36.38 126.00 L 36.49 135.00 L 36.62 144.00 L 36.76 153.00 L 36.91 162.00 L 37.08 171.00 L 37.26 180.00 L 37.45 189.00 L 37.65 198.00 L 37.86 207.00 L 38.09 216.00 L 38.32 225.00 L 38.56 234.00 L 38.77 243.00 L 39.02 252.00 L 39.25 261.00 L 39.49 270.00 L 39.73 279.00 L 39.93 288.00 L 40.14 297.00 L 40.35 306.00 L 40.56 315.00 L 40.68 324.00 L 40.85 333.00 L 41.00 342.00 L 41.05 351.00 L 41.15 360.00 L 41.23 369.00 L 41.24 378.00 L 41.26 387.00 L 41.23 396.00 L 41.16 405.00 L 41.19 414.00 L 41.03 423.00 L 40.99 432.00 L 40.89 441.00 L 40.67 450.00 L 40.55 459.00 L 40.34 468.00 L 40.20 477.00 L 40.01 486.00 L 39.78 495.00 L 39.55 504.00 L 39.34 513.00 L 39.10 522.00 L 38.87 531.00 L 38.62 540.00 L 38.41 549.00 L 38.18 558.00 L 37.96 567.00 L 37.76 576.00 L 37.58 585.00 L 37.38 594.00 L 37.22 603.00 L 37.05 612.00 L 36.90 621.00 L 36.76 630.00 L 36.63 639.00 L 36.51 648.00 L 36.40 657.00 L 36.30 666.00 L 36.21 675.00 L 36.13 684.00 L 36.06 693.00 L 35.99 702.00 L 35.93 711.00 L 35.88 720.00 L 35.83 729.00 L 35.79 738.00 L 35.75 747.00 L 35.72 756.00 L 35.69 765.00 L 35.67 774.00 L 35.65 783.00 L 35.63 792.00 L 35.61 801.00 L 35.60 810.00 L 35.59 819.00 L 35.58 828.00 L 35.57 837.00 L 35.56 846.00 L 35.56 855.00 L 35.55 864.00 L 35.55 873.00 L 35.55 882.00 L 35.54 891.00 L 35.54 900.00 Z M 91.10 900.00 L 90.97 891.00 L 90.83 882.00 L 90.67 873.00 L 90.52 864.00 L 90.35 855.00 L 90.17 846.00 L 89.98 837.00 L 89.78 828.00 L 89.56 819.00 L 89.38 810.00 L 89.14 801.00 L 88.94 792.00 L 88.72 783.00 L 88.46 774.00 L 88.26 765.00 L 88.01 756.00 L 87.78 747.00 L 87.53 738.00 L 86.77 729.00 L 83.08 720.00 L 77.50 711.00 L 72.80 702.00 L 72.24 693.00 L 72.74 684.00 L 71.36 675.00 L 72.20 666.00 L 73.00 657.00 L 72.38 648.00 L 73.61 639.00 L 72.30 630.00 L 74.02 621.00 L 73.46 612.00 L 74.62 603.00 L 74.73 594.00 L 75.69 585.00 L 76.76 576.00 L 76.75 567.00 L 77.15 558.00 L 76.88 549.00 L 78.66 540.00 L 78.01 531.00 L 78.15 522.00 L 78.07 513.00 L 79.20 504.00 L 79.88 495.00 L 78.92 486.00 L 78.58 477.00 L 79.80 468.00 L 79.17 459.00 L 78.89 450.00 L 78.24 441.00 L 77.53 432.00 L 77.56 423.00 L 78.12 414.00 L 77.91 405.00 L 76.49 396.00 L 76.96 387.00 L 76.48 378.00 L 75.61 369.00 L 76.33 360.00 L 75.37 351.00 L 75.27 342.00 L 75.52 333.00 L 75.00 324.00 L 75.13 315.00 L 75.52 306.00 L 74.77 297.00 L 75.34 288.00 L 75.21 279.00 L 75.60 270.00 L 76.13 261.00 L 77.34 252.00 L 81.79 243.00 L 87.19 234.00 L 91.16 225.00 L 91.89 216.00 L 91.94 207.00 L 91.99 198.00 L 92.03 189.00 L 92.06 180.00 L 92.09 171.00 L 92.12 162.00 L 92.15 153.00 L 92.17 144.00 L 92.18 135.00 L 92.20 126.00 L 92.21 117.00 L 92.23 108.00 L 92.24 99.00 L 92.24 90.00 L 92.25 81.00 L 92.26 72.00 L 92.26 63.00 L 92.27 54.00 L 92.27 45.00 L 92.27 36.00 L 92.28 27.00 L 92.28 18.00 L 92.28 9.00 L 92.28 0.00 L 99.72 0.00 L 99.72 9.00 L 99.73 18.00 L 99.73 27.00 L 99.73 36.00 L 99.73 45.00 L 99.74 54.00 L 99.74 63.00 L 99.75 72.00 L 99.76 81.00 L 99.76 90.00 L 99.77 99.00 L 99.78 108.00 L 99.79 117.00 L 99.81 126.00 L 99.82 135.00 L 99.84 144.00 L 99.86 153.00 L 99.89 162.00 L 99.92 171.00 L 99.95 180.00 L 99.98 189.00 L 100.02 198.00 L 100.07 207.00 L 100.12 216.00 L 100.87 225.00 L 104.98 234.00 L 110.60 243.00 L 115.29 252.00 L 116.66 261.00 L 117.32 270.00 L 117.87 279.00 L 117.92 288.00 L 118.68 297.00 L 118.15 306.00 L 118.77 315.00 L 119.15 324.00 L 118.90 333.00 L 119.43 342.00 L 119.61 351.00 L 118.95 360.00 L 119.97 369.00 L 119.41 378.00 L 119.23 387.00 L 120.02 396.00 L 118.91 405.00 L 118.99 414.00 L 119.85 423.00 L 120.15 432.00 L 119.71 441.00 L 119.31 450.00 L 119.26 459.00 L 118.85 468.00 L 120.25 477.00 L 120.07 486.00 L 119.24 495.00 L 120.02 504.00 L 121.21 513.00 L 121.17 522.00 L 121.31 531.00 L 120.63 540.00 L 122.34 549.00 L 121.98 558.00 L 122.25 567.00 L 122.07 576.00 L 122.95 585.00 L 123.68 594.00 L 123.54 603.00 L 124.43 612.00 L 123.57 621.00 L 124.99 630.00 L 123.36 639.00 L 124.26 648.00 L 123.30 657.00 L 123.76 666.00 L 124.25 675.00 L 122.54 684.00 L 122.72 693.00 L 121.72 702.00 L 116.26 711.00 L 109.95 720.00 L 105.78 729.00 L 104.88 738.00 L 104.55 747.00 L 104.26 756.00 L 103.97 765.00 L 103.72 774.00 L 103.43 783.00 L 103.19 792.00 L 102.97 801.00 L 102.71 810.00 L 102.52 819.00 L 102.30 828.00 L 102.10 837.00 L 101.92 846.00 L 101.74 855.00 L 101.58 864.00 L 101.43 873.00 L 101.28 882.00 L 101.14 891.00 L 101.01 900.00 Z M 156.97 900.00 L 156.97 891.00 L 156.97 882.00 L 156.97 873.00 L 156.97 864.00 L 156.97 855.00 L 156.97 846.00 L 156.97 837.00 L 156.97 828.00 L 155.42 819.00 L 145.49 810.00 L 134.25 801.00 L 131.84 792.00 L 131.56 783.00 L 132.73 774.00 L 132.49 765.00 L 133.04 756.00 L 133.11 747.00 L 133.10 738.00 L 133.08 729.00 L 133.35 720.00 L 133.88 711.00 L 134.00 702.00 L 134.24 693.00 L 134.63 684.00 L 135.25 675.00 L 135.76 666.00 L 135.57 657.00 L 135.36 648.00 L 136.45 639.00 L 136.94 630.00 L 136.06 621.00 L 137.46 612.00 L 137.11 603.00 L 136.60 594.00 L 136.33 585.00 L 136.34 576.00 L 135.95 567.00 L 135.56 558.00 L 135.77 549.00 L 135.62 540.00 L 134.71 531.00 L 134.33 522.00 L 133.20 513.00 L 132.97 504.00 L 132.34 495.00 L 132.08 486.00 L 131.29 477.00 L 130.24 468.00 L 130.66 459.00 L 129.79 450.00 L 129.06 441.00 L 129.02 432.00 L 127.56 423.00 L 128.30 414.00 L 127.73 405.00 L 125.82 396.00 L 125.42 387.00 L 125.51 378.00 L 125.73 369.00 L 125.51 360.00 L 125.80 351.00 L 126.57 342.00 L 125.93 333.00 L 126.68 324.00 L 127.45 315.00 L 126.75 306.00 L 127.47 297.00 L 129.40 288.00 L 128.37 279.00 L 130.01 270.00 L 129.44 261.00 L 131.23 252.00 L 132.00 243.00 L 131.66 234.00 L 131.58 225.00 L 132.10 216.00 L 131.53 207.00 L 132.39 198.00 L 133.39 189.00 L 132.65 180.00 L 132.44 171.00 L 133.56 162.00 L 134.19 153.00 L 143.46 144.00 L 152.47 135.00 L 154.20 126.00 L 154.53 117.00 L 154.83 108.00 L 155.12 99.00 L 155.37 90.00 L 155.59 81.00 L 155.80 72.00 L 155.98 63.00 L 156.14 54.00 L 156.28 45.00 L 156.39 36.00 L 156.50 27.00 L 156.58 18.00 L 156.66 9.00 L 156.72 0.00 L 163.27 0.00 L 163.33 9.00 L 163.40 18.00 L 163.49 27.00 L 163.59 36.00 L 163.71 45.00 L 163.84 54.00 L 164.00 63.00 L 164.18 72.00 L 164.38 81.00 L 164.59 90.00 L 164.83 99.00 L 165.10 108.00 L 165.37 117.00 L 165.66 126.00 L 167.27 135.00 L 175.62 144.00 L 184.01 153.00 L 184.18 162.00 L 184.97 171.00 L 184.39 180.00 L 183.27 189.00 L 183.88 198.00 L 184.32 207.00 L 183.35 216.00 L 183.44 225.00 L 182.95 234.00 L 182.21 243.00 L 182.59 252.00 L 184.01 261.00 L 183.09 270.00 L 184.41 279.00 L 183.10 288.00 L 184.77 297.00 L 185.28 306.00 L 184.41 315.00 L 185.05 324.00 L 185.71 333.00 L 185.01 342.00 L 185.78 351.00 L 186.10 360.00 L 185.95 369.00 L 186.28 378.00 L 186.51 387.00 L 186.28 396.00 L 184.57 405.00 L 184.22 414.00 L 185.20 423.00 L 184.01 432.00 L 184.25 441.00 L 183.82 450.00 L 183.25 459.00 L 183.99 468.00 L 183.28 477.00 L 182.82 486.00 L 182.90 495.00 L 182.62 504.00 L 182.72 513.00 L 181.93 522.00 L 181.88 531.00 L 181.30 540.00 L 181.47 549.00 L 181.98 558.00 L 181.89 567.00 L 181.76 576.00 L 182.04 585.00 L 182.00 594.00 L 181.70 603.00 L 181.55 612.00 L 183.11 621.00 L 182.36 630.00 L 182.96 639.00 L 184.13 648.00 L 183.97 657.00 L 183.80 666.00 L 184.29 675.00 L 184.87 684.00 L 185.19 693.00 L 185.33 702.00 L 185.32 711.00 L 185.69 720.00 L 185.78 729.00 L 185.55 738.00 L 185.30 747.00 L 185.13 756.00 L 185.41 765.00 L 184.88 774.00 L 185.75 783.00 L 185.17 792.00 L 182.73 801.00 L 172.77 810.00 L 164.32 819.00 L 163.03 828.00 L 163.03 837.00 L 163.03 846.00 L 163.03 855.00 L 163.03 864.00 L 163.03 873.00 L 163.03 882.00 L 163.03 891.00 L 163.03 900.00 Z M 218.87 900.00 L 218.76 891.00 L 218.64 882.00 L 215.42 873.00 L 205.02 864.00 L 200.39 855.00 L 200.51 846.00 L 199.27 837.00 L 200.03 828.00 L 199.38 819.00 L 199.21 810.00 L 199.53 801.00 L 198.76 792.00 L 197.97 783.00 L 198.18 774.00 L 198.17 765.00 L 198.33 756.00 L 199.19 747.00 L 198.23 738.00 L 198.50 729.00 L 200.02 720.00 L 199.39 711.00 L 200.26 702.00 L 200.72 693.00 L 201.05 684.00 L 200.77 675.00 L 201.98 666.00 L 200.94 657.00 L 201.41 648.00 L 201.77 639.00 L 203.06 630.00 L 202.84 621.00 L 202.47 612.00 L 203.16 603.00 L 203.63 594.00 L 203.27 585.00 L 203.39 576.00 L 203.53 567.00 L 201.57 558.00 L 202.61 549.00 L 201.94 540.00 L 201.71 531.00 L 200.98 522.00 L 200.87 513.00 L 199.09 504.00 L 199.95 495.00 L 199.02 486.00 L 198.78 477.00 L 198.20 468.00 L 198.11 459.00 L 196.51 450.00 L 196.22 441.00 L 197.22 432.00 L 195.53 423.00 L 196.99 414.00 L 196.09 405.00 L 195.83 396.00 L 197.13 387.00 L 197.07 378.00 L 196.90 369.00 L 197.80 360.00 L 197.52 351.00 L 198.57 342.00 L 199.15 333.00 L 199.06 324.00 L 199.40 315.00 L 200.64 306.00 L 200.44 297.00 L 200.39 288.00 L 202.15 279.00 L 202.47 270.00 L 202.48 261.00 L 202.46 252.00 L 202.63 243.00 L 203.74 234.00 L 204.29 225.00 L 203.72 216.00 L 204.50 207.00 L 204.51 198.00 L 203.50 189.00 L 203.76 180.00 L 203.95 171.00 L 204.52 162.00 L 203.89 153.00 L 203.87 144.00 L 203.69 135.00 L 203.56 126.00 L 202.89 117.00 L 202.68 108.00 L 202.76 99.00 L 207.10 90.00 L 217.65 81.00 L 220.53 72.00 L 220.55 63.00 L 220.57 54.00 L 220.58 45.00 L 220.60 36.00 L 220.61 27.00 L 220.63 18.00 L 220.64 9.00 L 220.65 0.00 L 227.37 0.00 L 227.39 9.00 L 227.40 18.00 L 227.42 27.00 L 227.43 36.00 L 227.45 45.00 L 227.48 54.00 L 227.50 63.00 L 227.53 72.00 L 231.21 81.00 L 244.50 90.00 L 249.90 99.00 L 249.87 108.00 L 249.52 117.00 L 248.70 126.00 L 248.38 135.00 L 248.00 144.00 L 247.76 153.00 L 246.89 162.00 L 247.19 171.00 L 247.12 180.00 L 247.10 189.00 L 245.80 198.00 L 245.51 207.00 L 245.99 216.00 L 245.12 225.00 L 245.37 234.00 L 246.19 243.00 L 246.07 252.00 L 245.76 261.00 L 245.50 270.00 L 245.56 279.00 L 247.09 288.00 L 246.82 297.00 L 246.42 306.00 L 247.48 315.00 L 247.67 324.00 L 247.45 333.00 L 247.93 342.00 L 248.91 351.00 L 248.59 360.00 L 249.48 369.00 L 249.33 378.00 L 249.32 387.00 L 250.70 396.00 L 250.56 405.00 L 249.79 414.00 L 251.43 423.00 L 249.94 432.00 L 251.16 441.00 L 251.11 450.00 L 249.79 459.00 L 249.99 468.00 L 249.72 477.00 L 249.80 486.00 L 249.20 495.00 L 250.41 504.00 L 248.98 513.00 L 249.22 522.00 L 248.84 531.00 L 248.96 540.00 L 248.62 549.00 L 249.99 558.00 L 248.34 567.00 L 248.78 576.00 L 249.17 585.00 L 249.06 594.00 L 249.76 603.00 L 250.65 612.00 L 250.45 621.00 L 250.36 630.00 L 251.76 639.00 L 252.19 648.00 L 252.70 657.00 L 251.66 666.00 L 252.84 675.00 L 252.50 684.00 L 252.73 693.00 L 253.06 702.00 L 253.76 711.00 L 252.95 720.00 L 254.25 729.00 L 254.29 738.00 L 253.07 747.00 L 253.65 756.00 L 253.51 765.00 L 253.19 774.00 L 253.08 783.00 L 251.96 792.00 L 250.86 801.00 L 250.84 810.00 L 250.33 819.00 L 249.35 828.00 L 249.79 837.00 L 248.24 846.00 L 248.05 855.00 L 243.10 864.00 L 232.55 873.00 L 229.32 882.00 L 229.18 891.00 L 229.06 900.00 Z M 267.63 900.00 L 266.05 891.00 L 265.85 882.00 L 266.79 873.00 L 266.38 864.00 L 266.69 855.00 L 265.54 846.00 L 265.42 837.00 L 265.80 828.00 L 266.48 819.00 L 265.82 810.00 L 265.47 801.00 L 264.50 792.00 L 265.33 783.00 L 263.87 774.00 L 263.61 765.00 L 263.69 756.00 L 264.27 747.00 L 263.36 738.00 L 262.24 729.00 L 262.42 720.00 L 261.81 711.00 L 262.60 702.00 L 262.46 693.00 L 261.46 684.00 L 262.34 675.00 L 268.34 666.00 L 276.88 657.00 L 281.26 648.00 L 281.59 639.00 L 281.46 630.00 L 281.37 621.00 L 281.23 612.00 L 281.13 603.00 L 281.02 594.00 L 280.91 585.00 L 280.78 576.00 L 280.69 567.00 L 280.60 558.00 L 280.51 549.00 L 280.38 540.00 L 280.31 531.00 L 280.24 522.00 L 280.07 513.00 L 280.03 504.00 L 279.88 495.00 L 279.82 486.00 L 279.77 477.00 L 279.58 468.00 L 279.51 459.00 L 279.44 450.00 L 279.36 441.00 L 279.18 432.00 L 279.14 423.00 L 279.07 414.00 L 278.97 405.00 L 278.85 396.00 L 278.73 387.00 L 278.63 378.00 L 278.61 369.00 L 278.50 360.00 L 278.42 351.00 L 278.39 342.00 L 278.37 333.00 L 278.36 324.00 L 278.36 315.00 L 277.93 306.00 L 273.70 297.00 L 264.94 288.00 L 258.37 279.00 L 258.15 270.00 L 258.90 261.00 L 259.18 252.00 L 258.79 243.00 L 260.01 234.00 L 260.10 225.00 L 259.67 216.00 L 260.41 207.00 L 262.22 198.00 L 262.82 189.00 L 262.11 180.00 L 262.31 171.00 L 263.58 162.00 L 263.77 153.00 L 263.75 144.00 L 264.37 135.00 L 265.12 126.00 L 265.28 117.00 L 265.48 108.00 L 265.50 99.00 L 266.23 90.00 L 264.92 81.00 L 265.83 72.00 L 265.66 63.00 L 265.89 54.00 L 265.40 45.00 L 267.38 36.00 L 278.61 27.00 L 282.82 18.00 L 282.93 9.00 L 283.03 0.00 L 293.25 0.00 L 293.36 9.00 L 293.46 18.00 L 298.38 27.00 L 311.19 36.00 L 313.29 45.00 L 312.48 54.00 L 312.39 63.00 L 311.91 72.00 L 312.51 81.00 L 310.92 90.00 L 311.37 99.00 L 311.12 108.00 L 311.08 117.00 L 311.02 126.00 L 311.57 135.00 L 312.02 144.00 L 311.86 153.00 L 311.93 162.00 L 313.12 171.00 L 313.26 180.00 L 312.54 189.00 L 313.15 198.00 L 315.00 207.00 L 315.82 216.00 L 315.51 225.00 L 315.74 234.00 L 317.14 243.00 L 316.96 252.00 L 317.48 261.00 L 318.50 270.00 L 318.57 279.00 L 312.04 288.00 L 303.00 297.00 L 298.60 306.00 L 298.22 315.00 L 298.32 324.00 L 298.41 333.00 L 298.50 342.00 L 298.57 351.00 L 298.58 360.00 L 298.57 369.00 L 298.65 378.00 L 298.63 387.00 L 298.59 396.00 L 298.54 405.00 L 298.50 414.00 L 298.48 423.00 L 298.47 432.00 L 298.32 441.00 L 298.25 450.00 L 298.19 459.00 L 298.11 468.00 L 297.90 477.00 L 297.82 486.00 L 297.72 495.00 L 297.52 504.00 L 297.43 513.00 L 297.20 522.00 L 297.05 531.00 L 296.91 540.00 L 296.69 549.00 L 296.52 558.00 L 296.34 567.00 L 296.17 576.00 L 295.95 585.00 L 295.76 594.00 L 295.55 603.00 L 295.38 612.00 L 295.17 621.00 L 295.00 630.00 L 294.80 639.00 L 295.13 648.00 L 299.91 657.00 L 309.11 666.00 L 315.29 675.00 L 315.87 684.00 L 314.57 693.00 L 314.15 702.00 L 314.69 711.00 L 313.86 720.00 L 313.82 729.00 L 312.52 738.00 L 311.47 747.00 L 311.93 756.00 L 311.91 765.00 L 311.59 774.00 L 310.09 783.00 L 310.92 792.00 L 309.98 801.00 L 309.68 810.00 L 309.11 819.00 L 309.89 828.00 L 310.41 837.00 L 310.46 846.00 L 309.50 855.00 L 310.02 864.00 L 309.85 873.00 L 311.03 882.00 L 311.10 891.00 L 309.68 900.00 Z M 333.58 900.00 L 333.29 891.00 L 333.43 882.00 L 332.28 873.00 L 332.52 864.00 L 332.93 855.00 L 333.10 846.00 L 332.75 837.00 L 332.35 828.00 L 331.99 819.00 L 332.53 810.00 L 333.67 801.00 L 333.64 792.00 L 332.74 783.00 L 333.80 774.00 L 333.08 765.00 L 334.39 756.00 L 334.63 747.00 L 333.91 738.00 L 334.36 729.00 L 339.04 720.00 L 343.54 711.00 L 343.63 702.00 L 343.46 693.00 L 343.25 684.00 L 343.19 675.00 L 342.97 666.00 L 342.93 657.00 L 342.67 648.00 L 342.57 639.00 L 342.56 630.00 L 342.43 621.00 L 342.26 612.00 L 342.15 603.00 L 342.19 594.00 L 342.16 585.00 L 342.08 576.00 L 342.07 567.00 L 342.21 558.00 L 342.15 549.00 L 342.24 540.00 L 342.30 531.00 L 342.49 522.00 L 342.48 513.00 L 342.68 504.00 L 342.85 495.00 L 343.11 486.00 L 343.33 477.00 L 343.55 468.00 L 343.76 459.00 L 343.90 450.00 L 344.17 441.00 L 344.35 432.00 L 344.62 423.00 L 344.81 414.00 L 345.00 405.00 L 345.26 396.00 L 345.44 387.00 L 345.62 378.00 L 345.84 369.00 L 346.01 360.00 L 346.18 351.00 L 346.30 342.00 L 346.47 333.00 L 346.62 324.00 L 346.75 315.00 L 346.87 306.00 L 346.99 297.00 L 347.10 288.00 L 347.21 279.00 L 347.30 270.00 L 347.40 261.00 L 347.49 252.00 L 347.48 243.00 L 342.27 234.00 L 336.57 225.00 L 335.66 216.00 L 335.07 207.00 L 335.39 198.00 L 334.31 189.00 L 334.31 180.00 L 333.92 171.00 L 334.40 162.00 L 333.91 153.00 L 333.56 144.00 L 334.21 135.00 L 333.83 126.00 L 333.89 117.00 L 333.82 108.00 L 333.97 99.00 L 333.76 90.00 L 334.20 81.00 L 334.04 72.00 L 334.01 63.00 L 334.71 54.00 L 334.13 45.00 L 334.16 36.00 L 334.38 27.00 L 335.26 18.00 L 335.38 9.00 L 336.28 0.00 L 371.11 0.00 L 372.68 9.00 L 372.98 18.00 L 374.07 27.00 L 374.51 36.00 L 374.77 45.00 L 374.44 54.00 L 375.39 63.00 L 375.63 72.00 L 375.74 81.00 L 376.46 90.00 L 376.52 99.00 L 376.95 108.00 L 377.14 117.00 L 377.47 126.00 L 377.35 135.00 L 378.25 144.00 L 378.13 153.00 L 377.87 162.00 L 378.56 171.00 L 378.36 180.00 L 378.54 189.00 L 377.60 198.00 L 378.06 207.00 L 377.58 216.00 L 376.42 225.00 L 366.30 234.00 L 357.31 243.00 L 357.29 252.00 L 357.44 261.00 L 357.60 270.00 L 357.75 279.00 L 357.92 288.00 L 358.09 297.00 L 358.26 306.00 L 358.43 315.00 L 358.61 324.00 L 358.82 333.00 L 359.02 342.00 L 359.18 351.00 L 359.38 360.00 L 359.57 369.00 L 359.81 378.00 L 360.01 387.00 L 360.19 396.00 L 360.45 405.00 L 360.65 414.00 L 360.83 423.00 L 361.09 432.00 L 361.25 441.00 L 361.51 450.00 L 361.64 459.00 L 361.83 468.00 L 362.03 477.00 L 362.23 486.00 L 362.48 495.00 L 362.65 504.00 L 362.84 513.00 L 362.84 522.00 L 363.03 531.00 L 363.12 540.00 L 363.24 549.00 L 363.21 558.00 L 363.39 567.00 L 363.42 576.00 L 363.41 585.00 L 363.44 594.00 L 363.55 603.00 L 363.51 612.00 L 363.42 621.00 L 363.38 630.00 L 363.45 639.00 L 363.44 648.00 L 363.26 657.00 L 363.30 666.00 L 363.16 675.00 L 363.17 684.00 L 363.02 693.00 L 362.91 702.00 L 363.09 711.00 L 370.31 720.00 L 378.38 729.00 L 379.33 738.00 L 378.83 747.00 L 379.28 756.00 L 380.76 765.00 L 380.21 774.00 L 381.39 783.00 L 380.59 792.00 L 380.63 801.00 L 381.82 810.00 L 382.37 819.00 L 381.99 828.00 L 381.55 837.00 L 381.13 846.00 L 381.20 855.00 L 381.48 864.00 L 381.57 873.00 L 380.24 882.00 L 380.18 891.00 L 379.69 900.00 Z M 395.85 900.00 L 396.12 891.00 L 395.34 882.00 L 395.23 873.00 L 395.71 864.00 L 395.15 855.00 L 395.43 846.00 L 395.12 837.00 L 394.40 828.00 L 394.37 819.00 L 394.09 810.00 L 394.05 801.00 L 393.62 792.00 L 392.36 783.00 L 393.07 774.00 L 392.09 765.00 L 392.71 756.00 L 393.03 747.00 L 400.73 738.00 L 408.76 729.00 L 408.69 720.00 L 408.58 711.00 L 408.41 702.00 L 408.32 693.00 L 408.27 684.00 L 408.29 675.00 L 408.26 666.00 L 408.30 657.00 L 408.27 648.00 L 408.27 639.00 L 408.36 630.00 L 408.33 621.00 L 408.48 612.00 L 408.57 603.00 L 408.65 594.00 L 408.73 585.00 L 408.84 576.00 L 408.86 567.00 L 409.01 558.00 L 409.16 549.00 L 409.27 540.00 L 409.41 531.00 L 409.56 522.00 L 409.66 513.00 L 409.83 504.00 L 410.01 495.00 L 410.15 486.00 L 410.32 477.00 L 410.49 468.00 L 410.66 459.00 L 410.81 450.00 L 410.98 441.00 L 411.14 432.00 L 411.31 423.00 L 411.45 414.00 L 411.60 405.00 L 411.74 396.00 L 411.87 387.00 L 411.99 378.00 L 412.11 369.00 L 412.22 360.00 L 412.32 351.00 L 412.40 342.00 L 412.49 333.00 L 412.56 324.00 L 412.63 315.00 L 412.69 306.00 L 412.74 297.00 L 412.79 288.00 L 412.83 279.00 L 412.87 270.00 L 412.90 261.00 L 412.93 252.00 L 412.95 243.00 L 412.97 234.00 L 412.97 225.00 L 404.34 216.00 L 397.90 207.00 L 398.16 198.00 L 397.70 189.00 L 397.79 180.00 L 397.75 171.00 L 398.61 162.00 L 397.96 153.00 L 398.20 144.00 L 398.39 135.00 L 398.31 126.00 L 397.93 117.00 L 397.69 108.00 L 397.11 99.00 L 397.03 90.00 L 396.93 81.00 L 397.13 72.00 L 396.36 63.00 L 396.61 54.00 L 396.37 45.00 L 396.95 36.00 L 396.32 27.00 L 396.24 18.00 L 396.56 9.00 L 396.17 0.00 L 438.05 0.00 L 437.73 9.00 L 438.11 18.00 L 438.05 27.00 L 437.42 36.00 L 437.98 45.00 L 437.69 54.00 L 437.87 63.00 L 437.01 72.00 L 437.09 81.00 L 436.85 90.00 L 436.62 99.00 L 435.87 108.00 L 435.44 117.00 L 434.85 126.00 L 434.56 135.00 L 434.52 144.00 L 434.52 153.00 L 433.63 162.00 L 434.24 171.00 L 433.94 180.00 L 433.78 189.00 L 433.06 198.00 L 433.08 207.00 L 426.98 216.00 L 419.02 225.00 L 419.02 234.00 L 419.04 243.00 L 419.06 252.00 L 419.08 261.00 L 419.10 270.00 L 419.13 279.00 L 419.17 288.00 L 419.21 297.00 L 419.25 306.00 L 419.30 315.00 L 419.35 324.00 L 419.41 333.00 L 419.48 342.00 L 419.56 351.00 L 419.64 360.00 L 419.74 369.00 L 419.84 378.00 L 419.95 387.00 L 420.08 396.00 L 420.21 405.00 L 420.35 414.00 L 420.50 423.00 L 420.67 432.00 L 420.84 441.00 L 421.03 450.00 L 421.21 459.00 L 421.40 468.00 L 421.61 477.00 L 421.82 486.00 L 422.00 495.00 L 422.23 504.00 L 422.45 513.00 L 422.61 522.00 L 422.83 531.00 L 423.03 540.00 L 423.21 549.00 L 423.42 558.00 L 423.63 567.00 L 423.71 576.00 L 423.87 585.00 L 424.00 594.00 L 424.12 603.00 L 424.24 612.00 L 424.41 621.00 L 424.40 630.00 L 424.48 639.00 L 424.47 648.00 L 424.42 657.00 L 424.43 666.00 L 424.36 675.00 L 424.33 684.00 L 424.23 693.00 L 424.08 702.00 L 423.85 711.00 L 423.67 720.00 L 423.53 729.00 L 431.91 738.00 L 439.71 747.00 L 439.75 756.00 L 440.08 765.00 L 438.82 774.00 L 439.24 783.00 L 437.70 792.00 L 437.00 801.00 L 436.69 810.00 L 436.16 819.00 L 435.88 828.00 L 434.95 837.00 L 434.42 846.00 L 434.51 855.00 L 433.78 864.00 L 434.11 873.00 L 433.86 882.00 L 432.98 891.00 L 433.16 900.00 Z M 453.92 900.00 L 454.06 891.00 L 454.31 882.00 L 454.93 873.00 L 453.64 864.00 L 454.92 855.00 L 455.09 846.00 L 455.21 837.00 L 455.40 828.00 L 454.78 819.00 L 453.93 810.00 L 454.74 801.00 L 454.60 792.00 L 453.88 783.00 L 454.10 774.00 L 454.63 765.00 L 454.74 756.00 L 453.95 747.00 L 452.67 738.00 L 452.94 729.00 L 462.53 720.00 L 470.88 711.00 L 470.69 702.00 L 470.40 693.00 L 470.17 684.00 L 469.88 675.00 L 469.69 666.00 L 469.34 657.00 L 469.23 648.00 L 468.98 639.00 L 468.79 630.00 L 468.61 621.00 L 468.51 612.00 L 468.31 603.00 L 468.23 594.00 L 468.19 585.00 L 468.15 576.00 L 468.18 567.00 L 468.31 558.00 L 468.41 549.00 L 468.51 540.00 L 468.63 531.00 L 468.86 522.00 L 468.95 513.00 L 469.27 504.00 L 469.37 495.00 L 469.72 486.00 L 469.85 477.00 L 470.19 468.00 L 470.45 459.00 L 470.69 450.00 L 470.87 441.00 L 471.10 432.00 L 471.37 423.00 L 471.63 414.00 L 471.81 405.00 L 472.04 396.00 L 472.29 387.00 L 472.51 378.00 L 472.74 369.00 L 472.93 360.00 L 473.12 351.00 L 473.34 342.00 L 473.52 333.00 L 473.71 324.00 L 473.89 315.00 L 474.07 306.00 L 474.24 297.00 L 474.40 288.00 L 474.56 279.00 L 474.71 270.00 L 474.86 261.00 L 474.99 252.00 L 474.96 243.00 L 465.59 234.00 L 453.16 225.00 L 452.66 216.00 L 451.57 207.00 L 451.79 198.00 L 452.25 189.00 L 452.21 180.00 L 452.11 171.00 L 452.92 162.00 L 453.48 153.00 L 453.23 144.00 L 453.37 135.00 L 453.35 126.00 L 453.56 117.00 L 454.32 108.00 L 453.79 99.00 L 454.42 90.00 L 454.31 81.00 L 455.69 72.00 L 455.67 63.00 L 455.93 54.00 L 455.48 45.00 L 454.86 36.00 L 454.96 27.00 L 454.95 18.00 L 456.11 9.00 L 457.61 0.00 L 497.69 0.00 L 498.31 9.00 L 499.30 18.00 L 499.15 27.00 L 499.13 36.00 L 498.43 45.00 L 497.92 54.00 L 498.15 63.00 L 498.13 72.00 L 499.53 81.00 L 499.48 90.00 L 500.19 99.00 L 499.77 108.00 L 500.67 117.00 L 501.04 126.00 L 501.20 135.00 L 501.55 144.00 L 501.53 153.00 L 502.33 162.00 L 503.41 171.00 L 503.58 180.00 L 503.83 189.00 L 504.59 198.00 L 505.12 207.00 L 504.34 216.00 L 504.25 225.00 L 493.26 234.00 L 484.89 243.00 L 484.89 252.00 L 485.03 261.00 L 485.19 270.00 L 485.36 279.00 L 485.53 288.00 L 485.71 297.00 L 485.90 306.00 L 486.10 315.00 L 486.30 324.00 L 486.51 333.00 L 486.71 342.00 L 486.94 351.00 L 487.15 360.00 L 487.34 369.00 L 487.57 378.00 L 487.78 387.00 L 488.02 396.00 L 488.23 405.00 L 488.38 414.00 L 488.59 423.00 L 488.82 432.00 L 488.98 441.00 L 489.09 450.00 L 489.25 459.00 L 489.42 468.00 L 489.66 477.00 L 489.68 486.00 L 489.92 495.00 L 489.90 504.00 L 490.11 513.00 L 490.07 522.00 L 490.18 531.00 L 490.19 540.00 L 490.17 549.00 L 490.17 558.00 L 490.19 567.00 L 490.15 576.00 L 490.02 585.00 L 489.92 594.00 L 489.79 603.00 L 489.56 612.00 L 489.43 621.00 L 489.26 630.00 L 489.08 639.00 L 488.85 648.00 L 488.79 657.00 L 488.48 666.00 L 488.36 675.00 L 488.15 684.00 L 488.00 693.00 L 487.80 702.00 L 487.67 711.00 L 493.82 720.00 L 500.98 729.00 L 501.31 738.00 L 500.32 747.00 L 499.84 756.00 L 500.27 765.00 L 501.13 774.00 L 501.70 783.00 L 501.32 792.00 L 501.53 801.00 L 502.69 810.00 L 502.20 819.00 L 501.93 828.00 L 502.46 837.00 L 502.90 846.00 L 503.38 855.00 L 504.97 864.00 L 503.96 873.00 L 504.84 882.00 L 505.34 891.00 L 505.70 900.00 Z M 524.27 900.00 L 523.43 891.00 L 523.00 882.00 L 523.90 873.00 L 523.74 864.00 L 523.09 855.00 L 523.52 846.00 L 522.72 837.00 L 522.80 828.00 L 522.16 819.00 L 521.76 810.00 L 520.99 801.00 L 520.81 792.00 L 521.30 783.00 L 520.43 774.00 L 518.63 765.00 L 518.93 756.00 L 518.97 747.00 L 517.72 738.00 L 517.59 729.00 L 517.23 720.00 L 516.14 711.00 L 515.86 702.00 L 515.72 693.00 L 515.97 684.00 L 516.98 675.00 L 521.65 666.00 L 530.67 657.00 L 534.41 648.00 L 534.66 639.00 L 534.58 630.00 L 534.77 621.00 L 534.77 612.00 L 534.73 603.00 L 534.99 594.00 L 535.01 585.00 L 535.24 576.00 L 535.33 567.00 L 535.47 558.00 L 535.77 549.00 L 535.90 540.00 L 536.13 531.00 L 536.36 522.00 L 536.58 513.00 L 536.82 504.00 L 537.05 495.00 L 537.28 486.00 L 537.45 477.00 L 537.72 468.00 L 537.93 459.00 L 538.15 450.00 L 538.35 441.00 L 538.58 432.00 L 538.80 423.00 L 538.99 414.00 L 539.19 405.00 L 539.37 396.00 L 539.54 387.00 L 539.70 378.00 L 539.85 369.00 L 539.98 360.00 L 540.11 351.00 L 540.23 342.00 L 540.33 333.00 L 540.43 324.00 L 540.51 315.00 L 540.09 306.00 L 535.51 297.00 L 526.29 288.00 L 520.15 279.00 L 520.13 270.00 L 519.70 261.00 L 520.69 252.00 L 520.52 243.00 L 521.01 234.00 L 521.02 225.00 L 521.48 216.00 L 522.38 207.00 L 523.05 198.00 L 523.52 189.00 L 522.76 180.00 L 523.32 171.00 L 523.23 162.00 L 524.59 153.00 L 524.47 144.00 L 524.13 135.00 L 523.83 126.00 L 523.63 117.00 L 524.48 108.00 L 524.31 99.00 L 524.68 90.00 L 524.71 81.00 L 523.80 72.00 L 523.94 63.00 L 524.02 54.00 L 523.69 45.00 L 526.55 36.00 L 536.98 27.00 L 541.00 18.00 L 541.00 9.00 L 541.00 0.00 L 547.00 0.00 L 547.00 9.00 L 547.00 18.00 L 552.85 27.00 L 567.79 36.00 L 571.54 45.00 L 570.91 54.00 L 570.69 63.00 L 570.51 72.00 L 569.29 81.00 L 569.00 90.00 L 569.06 99.00 L 568.58 108.00 L 569.13 117.00 L 568.64 126.00 L 568.07 135.00 L 567.46 144.00 L 567.10 153.00 L 568.25 162.00 L 567.95 171.00 L 568.34 180.00 L 567.42 189.00 L 567.78 198.00 L 568.34 207.00 L 569.18 216.00 L 569.61 225.00 L 569.61 234.00 L 570.12 243.00 L 570.01 252.00 L 571.09 261.00 L 570.77 270.00 L 570.88 279.00 L 563.99 288.00 L 553.41 297.00 L 548.08 306.00 L 547.59 315.00 L 547.70 324.00 L 547.82 333.00 L 547.96 342.00 L 548.12 351.00 L 548.30 360.00 L 548.50 369.00 L 548.72 378.00 L 548.96 387.00 L 549.23 396.00 L 549.51 405.00 L 549.82 414.00 L 550.15 423.00 L 550.51 432.00 L 550.89 441.00 L 551.24 450.00 L 551.63 459.00 L 552.02 468.00 L 552.47 477.00 L 552.81 486.00 L 553.21 495.00 L 553.62 504.00 L 554.02 513.00 L 554.38 522.00 L 554.74 531.00 L 555.08 540.00 L 555.31 549.00 L 555.67 558.00 L 555.85 567.00 L 555.96 576.00 L 556.18 585.00 L 556.17 594.00 L 556.36 603.00 L 556.23 612.00 L 556.13 621.00 L 556.19 630.00 L 555.97 639.00 L 556.21 648.00 L 561.19 657.00 L 572.56 666.00 L 578.49 675.00 L 579.08 684.00 L 578.90 693.00 L 578.34 702.00 L 577.64 711.00 L 576.17 720.00 L 575.43 729.00 L 574.94 738.00 L 573.37 747.00 L 573.10 756.00 L 573.14 765.00 L 571.09 774.00 L 570.01 783.00 L 570.32 792.00 L 569.99 801.00 L 569.11 810.00 L 568.63 819.00 L 567.95 828.00 L 568.01 837.00 L 567.22 846.00 L 567.71 855.00 L 567.14 864.00 L 567.09 873.00 L 568.12 882.00 L 567.86 891.00 L 566.92 900.00 Z M 604.49 900.00 L 604.47 891.00 L 604.45 882.00 L 601.34 873.00 L 591.16 864.00 L 586.54 855.00 L 585.93 846.00 L 586.35 837.00 L 585.61 828.00 L 586.18 819.00 L 585.05 810.00 L 585.17 801.00 L 585.32 792.00 L 585.44 783.00 L 584.76 774.00 L 585.60 765.00 L 584.64 756.00 L 584.49 747.00 L 584.92 738.00 L 585.63 729.00 L 584.57 720.00 L 585.91 711.00 L 585.92 702.00 L 586.34 693.00 L 586.01 684.00 L 585.97 675.00 L 586.07 666.00 L 586.25 657.00 L 586.28 648.00 L 587.08 639.00 L 587.22 630.00 L 587.06 621.00 L 586.72 612.00 L 586.82 603.00 L 587.42 594.00 L 586.83 585.00 L 586.35 576.00 L 586.75 567.00 L 585.92 558.00 L 585.32 549.00 L 585.39 540.00 L 584.75 531.00 L 584.13 522.00 L 584.52 513.00 L 582.65 504.00 L 583.01 495.00 L 581.80 486.00 L 581.83 477.00 L 580.78 468.00 L 581.42 459.00 L 580.26 450.00 L 581.28 441.00 L 580.15 432.00 L 580.21 423.00 L 580.99 414.00 L 580.69 405.00 L 580.77 396.00 L 581.35 387.00 L 582.01 378.00 L 582.35 369.00 L 582.52 360.00 L 582.21 351.00 L 583.63 342.00 L 583.29 333.00 L 584.11 324.00 L 584.56 315.00 L 585.35 306.00 L 584.97 297.00 L 585.96 288.00 L 585.98 279.00 L 587.03 270.00 L 587.38 261.00 L 587.80 252.00 L 588.02 243.00 L 587.46 234.00 L 588.30 225.00 L 588.59 216.00 L 588.80 207.00 L 588.78 198.00 L 588.50 189.00 L 589.00 180.00 L 588.42 171.00 L 589.03 162.00 L 589.03 153.00 L 588.53 144.00 L 588.71 135.00 L 588.09 126.00 L 588.40 117.00 L 588.04 108.00 L 587.87 99.00 L 591.76 90.00 L 601.78 81.00 L 604.56 72.00 L 604.56 63.00 L 604.56 54.00 L 604.56 45.00 L 604.56 36.00 L 604.56 27.00 L 604.56 18.00 L 604.56 9.00 L 604.56 0.00 L 611.44 0.00 L 611.44 9.00 L 611.44 18.00 L 611.44 27.00 L 611.44 36.00 L 611.44 45.00 L 611.44 54.00 L 611.44 63.00 L 611.44 72.00 L 614.53 81.00 L 625.57 90.00 L 629.80 99.00 L 629.51 108.00 L 629.01 117.00 L 629.16 126.00 L 628.36 135.00 L 628.34 144.00 L 627.62 153.00 L 627.39 162.00 L 627.75 171.00 L 626.93 180.00 L 627.17 189.00 L 626.61 198.00 L 626.32 207.00 L 626.26 216.00 L 626.27 225.00 L 626.84 234.00 L 626.01 243.00 L 625.97 252.00 L 626.14 261.00 L 626.26 270.00 L 627.07 279.00 L 626.88 288.00 L 627.67 297.00 L 627.11 306.00 L 627.73 315.00 L 628.04 324.00 L 628.74 333.00 L 628.29 342.00 L 629.64 351.00 L 629.28 360.00 L 629.42 369.00 L 629.76 378.00 L 630.45 387.00 L 631.09 396.00 L 631.25 405.00 L 631.06 414.00 L 631.98 423.00 L 632.21 432.00 L 631.27 441.00 L 632.51 450.00 L 631.60 459.00 L 632.51 468.00 L 631.75 477.00 L 632.08 486.00 L 631.19 495.00 L 631.88 504.00 L 630.35 513.00 L 631.07 522.00 L 630.78 531.00 L 630.48 540.00 L 630.86 549.00 L 630.57 558.00 L 630.03 567.00 L 630.69 576.00 L 630.46 585.00 L 630.09 594.00 L 630.88 603.00 L 631.14 612.00 L 630.93 621.00 L 630.86 630.00 L 631.06 639.00 L 631.90 648.00 L 631.93 657.00 L 632.09 666.00 L 632.14 675.00 L 632.01 684.00 L 631.58 693.00 L 631.87 702.00 L 631.73 711.00 L 632.89 720.00 L 631.64 729.00 L 632.14 738.00 L 632.35 747.00 L 631.96 756.00 L 630.76 765.00 L 631.34 774.00 L 630.40 783.00 L 630.25 792.00 L 630.12 801.00 L 629.96 810.00 L 628.56 819.00 L 628.86 828.00 L 627.86 837.00 L 628.03 846.00 L 627.17 855.00 L 622.93 864.00 L 614.18 873.00 L 611.53 882.00 L 611.51 891.00 L 611.50 900.00 Z M 669.20 900.00 L 669.19 891.00 L 669.19 882.00 L 669.18 873.00 L 669.17 864.00 L 669.16 855.00 L 669.16 846.00 L 669.14 837.00 L 669.13 828.00 L 668.21 819.00 L 662.11 810.00 L 655.51 801.00 L 654.23 792.00 L 654.55 783.00 L 654.82 774.00 L 654.31 765.00 L 654.36 756.00 L 655.56 747.00 L 655.44 738.00 L 655.65 729.00 L 655.78 720.00 L 656.20 711.00 L 656.59 702.00 L 656.48 693.00 L 656.56 684.00 L 655.73 675.00 L 655.83 666.00 L 655.36 657.00 L 655.62 648.00 L 655.72 639.00 L 655.36 630.00 L 654.56 621.00 L 654.88 612.00 L 653.58 603.00 L 653.23 594.00 L 653.56 585.00 L 652.67 576.00 L 651.17 567.00 L 650.93 558.00 L 650.99 549.00 L 650.53 540.00 L 649.61 531.00 L 649.50 522.00 L 648.56 513.00 L 647.78 504.00 L 647.53 495.00 L 648.64 486.00 L 647.06 477.00 L 647.04 468.00 L 648.34 459.00 L 646.88 450.00 L 646.96 441.00 L 648.11 432.00 L 648.25 423.00 L 648.29 414.00 L 649.70 405.00 L 648.62 396.00 L 649.54 387.00 L 651.22 378.00 L 650.23 369.00 L 651.91 360.00 L 652.84 351.00 L 651.95 342.00 L 652.52 333.00 L 654.00 324.00 L 653.16 315.00 L 654.70 306.00 L 654.43 297.00 L 654.83 288.00 L 655.00 279.00 L 654.45 270.00 L 654.27 261.00 L 655.65 252.00 L 654.14 243.00 L 654.46 234.00 L 654.58 225.00 L 654.78 216.00 L 653.65 207.00 L 653.57 198.00 L 653.18 189.00 L 653.19 180.00 L 653.93 171.00 L 653.14 162.00 L 654.78 153.00 L 660.64 144.00 L 666.80 135.00 L 667.80 126.00 L 667.91 117.00 L 668.02 108.00 L 668.11 99.00 L 668.20 90.00 L 668.30 81.00 L 668.38 72.00 L 668.45 63.00 L 668.53 54.00 L 668.59 45.00 L 668.66 36.00 L 668.71 27.00 L 668.77 18.00 L 668.82 9.00 L 668.86 0.00 L 675.23 0.00 L 675.30 9.00 L 675.37 18.00 L 675.45 27.00 L 675.54 36.00 L 675.63 45.00 L 675.74 54.00 L 675.86 63.00 L 675.99 72.00 L 676.12 81.00 L 676.27 90.00 L 676.43 99.00 L 676.59 108.00 L 676.77 117.00 L 676.96 126.00 L 678.52 135.00 L 687.83 144.00 L 697.04 153.00 L 699.48 162.00 L 698.80 171.00 L 699.62 180.00 L 699.69 189.00 L 699.33 198.00 L 699.25 207.00 L 698.10 216.00 L 698.24 225.00 L 698.28 234.00 L 698.48 243.00 L 696.83 252.00 L 698.05 261.00 L 697.68 270.00 L 696.91 279.00 L 696.85 288.00 L 696.99 297.00 L 696.45 306.00 L 697.71 315.00 L 696.57 324.00 L 697.75 333.00 L 698.01 342.00 L 696.81 351.00 L 697.43 360.00 L 698.79 369.00 L 697.51 378.00 L 698.90 387.00 L 699.55 396.00 L 698.21 405.00 L 699.38 414.00 L 699.21 423.00 L 699.15 432.00 L 700.14 441.00 L 700.08 450.00 L 698.50 459.00 L 699.72 468.00 L 699.65 477.00 L 698.04 486.00 L 699.15 495.00 L 698.93 504.00 L 698.21 513.00 L 697.35 522.00 L 697.36 531.00 L 696.57 540.00 L 696.26 549.00 L 696.50 558.00 L 696.45 567.00 L 695.16 576.00 L 694.49 585.00 L 695.06 594.00 L 694.94 603.00 L 693.90 612.00 L 694.47 621.00 L 693.93 630.00 L 693.83 639.00 L 694.19 648.00 L 694.69 657.00 L 694.47 666.00 L 694.80 675.00 L 694.19 684.00 L 694.49 693.00 L 694.58 702.00 L 695.15 711.00 L 695.73 720.00 L 696.01 729.00 L 696.34 738.00 L 696.32 747.00 L 697.60 756.00 L 697.71 765.00 L 697.23 774.00 L 697.51 783.00 L 697.82 792.00 L 695.79 801.00 L 685.73 810.00 L 676.36 819.00 L 674.92 828.00 L 674.90 837.00 L 674.88 846.00 L 674.86 855.00 L 674.85 864.00 L 674.84 873.00 L 674.83 882.00 L 674.82 891.00 L 674.81 900.00 Z M 732.34 900.00 L 732.27 891.00 L 732.19 882.00 L 732.11 873.00 L 732.01 864.00 L 731.91 855.00 L 731.80 846.00 L 731.67 837.00 L 731.54 828.00 L 731.40 819.00 L 731.27 810.00 L 731.10 801.00 L 730.94 792.00 L 730.77 783.00 L 730.59 774.00 L 730.40 765.00 L 730.20 756.00 L 730.05 747.00 L 729.87 738.00 L 729.17 729.00 L 725.91 720.00 L 721.79 711.00 L 719.01 702.00 L 717.10 693.00 L 717.40 684.00 L 718.43 675.00 L 718.01 666.00 L 719.11 657.00 L 718.04 648.00 L 718.93 639.00 L 719.38 630.00 L 719.81 621.00 L 719.95 612.00 L 718.69 603.00 L 718.12 594.00 L 719.24 585.00 L 718.81 576.00 L 718.02 567.00 L 718.35 558.00 L 717.09 549.00 L 716.05 540.00 L 717.04 531.00 L 716.58 522.00 L 715.20 513.00 L 715.02 504.00 L 715.13 495.00 L 713.93 486.00 L 714.02 477.00 L 713.99 468.00 L 713.31 459.00 L 713.16 450.00 L 713.80 441.00 L 714.25 432.00 L 714.52 423.00 L 713.66 414.00 L 714.98 405.00 L 714.24 396.00 L 714.91 387.00 L 715.09 378.00 L 716.21 369.00 L 716.18 360.00 L 716.67 351.00 L 716.89 342.00 L 717.17 333.00 L 718.21 324.00 L 718.73 315.00 L 718.54 306.00 L 718.50 297.00 L 719.34 288.00 L 719.84 279.00 L 720.62 270.00 L 720.45 261.00 L 720.96 252.00 L 724.34 243.00 L 728.75 234.00 L 732.11 225.00 L 732.73 216.00 L 732.75 207.00 L 732.76 198.00 L 732.78 189.00 L 732.78 180.00 L 732.79 171.00 L 732.80 162.00 L 732.80 153.00 L 732.81 144.00 L 732.81 135.00 L 732.81 126.00 L 732.82 117.00 L 732.82 108.00 L 732.82 99.00 L 732.82 90.00 L 732.82 81.00 L 732.82 72.00 L 732.82 63.00 L 732.82 54.00 L 732.82 45.00 L 732.82 36.00 L 732.82 27.00 L 732.82 18.00 L 732.82 9.00 L 732.82 0.00 L 739.18 0.00 L 739.18 9.00 L 739.18 18.00 L 739.18 27.00 L 739.18 36.00 L 739.18 45.00 L 739.18 54.00 L 739.18 63.00 L 739.18 72.00 L 739.18 81.00 L 739.18 90.00 L 739.18 99.00 L 739.19 108.00 L 739.19 117.00 L 739.19 126.00 L 739.20 135.00 L 739.20 144.00 L 739.21 153.00 L 739.22 162.00 L 739.23 171.00 L 739.24 180.00 L 739.25 189.00 L 739.27 198.00 L 739.29 207.00 L 739.32 216.00 L 740.25 225.00 L 745.31 234.00 L 751.85 243.00 L 756.78 252.00 L 757.45 261.00 L 757.03 270.00 L 757.57 279.00 L 757.82 288.00 L 758.43 297.00 L 758.17 306.00 L 757.78 315.00 L 758.10 324.00 L 758.98 333.00 L 759.10 342.00 L 759.19 351.00 L 759.57 360.00 L 759.46 369.00 L 760.53 378.00 L 760.67 387.00 L 761.34 396.00 L 760.62 405.00 L 761.99 414.00 L 761.21 423.00 L 761.59 432.00 L 762.19 441.00 L 763.00 450.00 L 763.05 459.00 L 762.59 468.00 L 762.81 477.00 L 763.17 486.00 L 762.26 495.00 L 762.69 504.00 L 762.84 513.00 L 761.80 522.00 L 761.70 531.00 L 763.05 540.00 L 762.38 549.00 L 761.47 558.00 L 762.16 567.00 L 761.72 576.00 L 761.62 585.00 L 763.06 594.00 L 762.78 603.00 L 761.80 612.00 L 762.18 621.00 L 762.82 630.00 L 763.45 639.00 L 764.48 648.00 L 763.52 657.00 L 764.69 666.00 L 764.30 675.00 L 765.34 684.00 L 765.60 693.00 L 763.06 702.00 L 757.92 711.00 L 750.86 720.00 L 745.38 729.00 L 744.15 738.00 L 743.81 747.00 L 743.50 756.00 L 743.14 765.00 L 742.80 774.00 L 742.47 783.00 L 742.16 792.00 L 741.88 801.00 L 741.59 810.00 L 741.34 819.00 L 741.10 828.00 L 740.87 837.00 L 740.67 846.00 L 740.48 855.00 L 740.32 864.00 L 740.17 873.00 L 740.04 882.00 L 739.92 891.00 L 739.81 900.00 Z M 796.92 900.00 L 796.92 891.00 L 796.91 882.00 L 796.91 873.00 L 796.91 864.00 L 796.91 855.00 L 796.90 846.00 L 796.90 837.00 L 796.89 828.00 L 796.88 819.00 L 796.87 810.00 L 796.86 801.00 L 796.85 792.00 L 796.84 783.00 L 796.82 774.00 L 796.80 765.00 L 796.77 756.00 L 796.74 747.00 L 796.71 738.00 L 796.67 729.00 L 796.62 720.00 L 796.57 711.00 L 796.51 702.00 L 796.44 693.00 L 796.36 684.00 L 796.28 675.00 L 796.18 666.00 L 796.07 657.00 L 795.94 648.00 L 795.81 639.00 L 795.66 630.00 L 795.49 621.00 L 795.31 612.00 L 795.12 603.00 L 794.91 594.00 L 794.68 585.00 L 794.44 576.00 L 794.17 567.00 L 793.93 558.00 L 793.64 549.00 L 793.31 540.00 L 793.06 531.00 L 792.71 522.00 L 792.41 513.00 L 792.14 504.00 L 791.82 495.00 L 791.58 486.00 L 791.27 477.00 L 791.05 468.00 L 790.84 459.00 L 790.64 450.00 L 790.41 441.00 L 790.32 432.00 L 790.11 423.00 L 790.14 414.00 L 790.06 405.00 L 790.10 396.00 L 790.14 387.00 L 790.20 378.00 L 790.36 369.00 L 790.62 360.00 L 790.70 351.00 L 791.02 342.00 L 791.16 333.00 L 791.38 324.00 L 791.58 315.00 L 791.88 306.00 L 792.03 297.00 L 792.34 288.00 L 792.54 279.00 L 792.75 270.00 L 793.05 261.00 L 793.29 252.00 L 793.51 243.00 L 793.73 234.00 L 793.97 225.00 L 794.20 216.00 L 794.40 207.00 L 794.60 198.00 L 794.78 189.00 L 794.98 180.00 L 795.15 171.00 L 795.33 162.00 L 795.48 153.00 L 795.62 144.00 L 795.76 135.00 L 795.89 126.00 L 796.00 117.00 L 796.11 108.00 L 796.21 99.00 L 796.29 90.00 L 796.37 81.00 L 796.44 72.00 L 796.50 63.00 L 796.56 54.00 L 796.61 45.00 L 796.66 36.00 L 796.69 27.00 L 796.73 18.00 L 796.76 9.00 L 796.78 0.00 L 803.26 0.00 L 803.29 9.00 L 803.34 18.00 L 803.39 27.00 L 803.45 36.00 L 803.51 45.00 L 803.59 54.00 L 803.68 63.00 L 803.78 72.00 L 803.89 81.00 L 804.02 90.00 L 804.17 99.00 L 804.32 108.00 L 804.50 117.00 L 804.69 126.00 L 804.90 135.00 L 805.13 144.00 L 805.37 153.00 L 805.62 162.00 L 805.90 171.00 L 806.18 180.00 L 806.49 189.00 L 806.77 198.00 L 807.08 207.00 L 807.39 216.00 L 807.71 225.00 L 808.04 234.00 L 808.34 243.00 L 808.63 252.00 L 808.93 261.00 L 809.28 270.00 L 809.52 279.00 L 809.74 288.00 L 810.05 297.00 L 810.19 306.00 L 810.46 315.00 L 810.62 324.00 L 810.78 333.00 L 810.86 342.00 L 811.10 351.00 L 811.11 360.00 L 811.28 369.00 L 811.35 378.00 L 811.32 387.00 L 811.26 396.00 L 811.22 405.00 L 811.05 414.00 L 811.00 423.00 L 810.72 432.00 L 810.57 441.00 L 810.28 450.00 L 810.03 459.00 L 809.77 468.00 L 809.51 477.00 L 809.18 486.00 L 808.92 495.00 L 808.58 504.00 L 808.29 513.00 L 807.98 522.00 L 807.62 531.00 L 807.35 540.00 L 807.01 549.00 L 806.71 558.00 L 806.46 567.00 L 806.17 576.00 L 805.91 585.00 L 805.66 594.00 L 805.43 603.00 L 805.21 612.00 L 805.00 621.00 L 804.81 630.00 L 804.63 639.00 L 804.46 648.00 L 804.30 657.00 L 804.16 666.00 L 804.03 675.00 L 803.91 684.00 L 803.80 693.00 L 803.71 702.00 L 803.62 711.00 L 803.54 720.00 L 803.48 729.00 L 803.42 738.00 L 803.36 747.00 L 803.32 756.00 L 803.28 765.00 L 803.25 774.00 L 803.22 783.00 L 803.19 792.00 L 803.17 801.00 L 803.15 810.00 L 803.14 819.00 L 803.13 828.00 L 803.12 837.00 L 803.11 846.00 L 803.10 855.00 L 803.10 864.00 L 803.09 873.00 L 803.09 882.00 L 803.09 891.00 L 803.08 900.00 Z" fill="#11100e"/>
</svg>
