<?xml version="1.0" encoding="UTF-8"?>
<svg xmlns="http://www.w3.org/2000/svg" viewBox="0 0 768 900" role="img" aria-label="Varythm Å">
  <rect width="768" height="900" fill="#f0eee7"/>
  <path d="M 28.86 900.00 L 28.77 891.00 L 28.67 882.00 L 28.55 873.00 L 28.42 864.00 L 28.27 855.00 L 28.11 846.00 L 27.93 837.00 L 27.74 828.00 L 27.52 819.00 L 27.30 810.00 L 27.03 801.00 L 26.77 792.00 L 26.51 783.00 L 26.21 774.00 L 25.90 765.00 L 25.58 756.00 L 25.31 747.00 L 24.94 738.00 L 24.64 729.00 L 24.34 720.00 L 24.06 711.00 L 23.70 702.00 L 23.45 693.00 L 23.36 684.00 L 23.15 675.00 L 22.94 666.00 L 22.95 657.00 L 22.67 648.00 L 22.65 639.00 L 22.84 630.00 L 22.68 621.00 L 22.83 612.00 L 23.07 603.00 L 23.11 594.00 L 23.19 585.00 L 23.46 576.00 L 23.65 567.00 L 23.78 558.00 L 24.03 549.00 L 24.33 540.00 L 24.41 531.00 L 24.75 522.00 L 24.90 513.00 L 25.13 504.00 L 25.38 495.00 L 25.70 486.00 L 25.91 477.00 L 26.19 468.00 L 26.43 459.00 L 26.66 450.00 L 26.91 441.00 L 27.14 432.00 L 27.36 423.00 L 27.57 414.00 L 27.77 405.00 L 27.95 396.00 L 28.12 387.00 L 28.28 378.00 L 28.42 369.00 L 28.54 360.00 L 28.66 351.00 L 28.76 342.00 L 28.84 333.00 L 28.92 324.00 L 28.99 315.00 L 29.04 306.00 L 29.09 297.00 L 29.13 288.00 L 29.16 279.00 L 29.19 270.00 L 29.22 261.00 L 29.24 252.00 L 29.25 243.00 L 29.27 234.00 L 29.28 225.00 L 29.28 216.00 L 29.29 207.00 L 29.30 198.00 L 29.30 189.00 L 29.30 180.00 L 29.30 171.00 L 29.31 162.00 L 29.31 153.00 L 29.31 144.00 L 29.31 135.00 L 29.31 126.00 L 29.31 117.00 L 29.31 108.00 L 29.31 99.00 L 29.31 90.00 L 29.31 81.00 L 29.31 72.00 L 29.31 63.00 L 29.31 54.00 L 29.31 45.00 L 29.31 36.00 L 29.31 27.00 L 29.31 18.00 L 29.31 9.00 L 29.31 0.00 L 34.69 0.00 L 34.69 9.00 L 34.69 18.00 L 34.69 27.00 L 34.69 36.00 L 34.69 45.00 L 34.69 54.00 L 34.69 63.00 L 34.69 72.00 L 34.69 81.00 L 34.69 90.00 L 34.69 99.00 L 34.69 108.00 L 34.69 117.00 L 34.69 126.00 L 34.69 135.00 L 34.69 144.00 L 34.69 153.00 L 34.70 162.00 L 34.70 171.00 L 34.70 180.00 L 34.70 189.00 L 34.71 198.00 L 34.72 207.00 L 34.72 216.00 L 34.73 225.00 L 34.75 234.00 L 34.76 243.00 L 34.78 252.00 L 34.80 261.00 L 34.83 270.00 L 34.87 279.00 L 34.91 288.00 L 34.96 297.00 L 35.02 306.00 L 35.09 315.00 L 35.18 324.00 L 35.28 333.00 L 35.39 342.00 L 35.53 351.00 L 35.68 360.00 L 35.86 369.00 L 36.06 378.00 L 36.29 387.00 L 36.54 396.00 L 36.82 405.00 L 37.13 414.00 L 37.46 423.00 L 37.83 432.00 L 38.22 441.00 L 38.65 450.00 L 39.08 459.00 L 39.52 468.00 L 40.02 477.00 L 40.46 486.00 L 41.01 495.00 L 41.50 504.00 L 41.98 513.00 L 42.37 522.00 L 42.94 531.00 L 43.24 540.00 L 43.74 549.00 L 44.17 558.00 L 44.45 567.00 L 44.76 576.00 L 45.12 585.00 L 45.26 594.00 L 45.32 603.00 L 45.54 612.00 L 45.63 621.00 L 45.39 630.00 L 45.46 639.00 L 45.29 648.00 L 44.83 657.00 L 44.64 666.00 L 44.21 675.00 L 43.78 684.00 L 43.44 693.00 L 42.95 702.00 L 42.36 711.00 L 41.84 720.00 L 41.32 729.00 L 40.80 738.00 L 40.23 747.00 L 39.76 756.00 L 39.28 765.00 L 38.81 774.00 L 38.37 783.00 L 37.98 792.00 L 37.61 801.00 L 37.25 810.00 L 36.95 819.00 L 36.65 828.00 L 36.40 837.00 L 36.17 846.00 L 35.96 855.00 L 35.78 864.00 L 35.62 873.00 L 35.48 882.00 L 35.35 891.00 L 35.25 900.00 Z M 74.94 900.00 L 75.45 891.00 L 75.81 882.00 L 75.03 873.00 L 75.20 864.00 L 76.71 855.00 L 75.72 846.00 L 76.40 837.00 L 76.65 828.00 L 75.89 819.00 L 75.75 810.00 L 75.84 801.00 L 75.75 792.00 L 76.23 783.00 L 75.22 774.00 L 76.02 765.00 L 75.90 756.00 L 74.46 747.00 L 75.34 738.00 L 73.99 729.00 L 74.58 720.00 L 73.40 711.00 L 72.54 702.00 L 72.61 693.00 L 72.52 684.00 L 72.02 675.00 L 72.02 666.00 L 73.28 657.00 L 77.42 648.00 L 82.83 639.00 L 87.16 630.00 L 89.88 621.00 L 90.32 612.00 L 90.10 603.00 L 89.90 594.00 L 89.70 585.00 L 89.46 576.00 L 89.26 567.00 L 89.10 558.00 L 88.95 549.00 L 88.78 540.00 L 88.72 531.00 L 88.62 522.00 L 88.48 513.00 L 88.42 504.00 L 88.44 495.00 L 88.41 486.00 L 88.45 477.00 L 88.41 468.00 L 88.50 459.00 L 88.59 450.00 L 88.64 441.00 L 88.66 432.00 L 88.75 423.00 L 88.83 414.00 L 88.97 405.00 L 89.13 396.00 L 89.29 387.00 L 89.37 378.00 L 89.59 369.00 L 89.74 360.00 L 89.90 351.00 L 90.08 342.00 L 90.28 333.00 L 90.46 324.00 L 90.66 315.00 L 90.85 306.00 L 91.03 297.00 L 91.21 288.00 L 91.39 279.00 L 91.55 270.00 L 91.70 261.00 L 91.85 252.00 L 91.99 243.00 L 92.13 234.00 L 92.24 225.00 L 92.35 216.00 L 92.45 207.00 L 92.54 198.00 L 92.62 189.00 L 92.69 180.00 L 92.75 171.00 L 92.81 162.00 L 92.86 153.00 L 92.90 144.00 L 92.93 135.00 L 92.96 126.00 L 92.99 117.00 L 93.01 108.00 L 93.03 99.00 L 93.04 90.00 L 93.05 81.00 L 93.06 72.00 L 93.07 63.00 L 93.08 54.00 L 93.09 45.00 L 93.09 36.00 L 93.09 27.00 L 93.10 18.00 L 93.10 9.00 L 93.10 0.00 L 98.90 0.00 L 98.90 9.00 L 98.91 18.00 L 98.91 27.00 L 98.91 36.00 L 98.92 45.00 L 98.93 54.00 L 98.93 63.00 L 98.94 72.00 L 98.95 81.00 L 98.97 90.00 L 98.99 99.00 L 99.01 108.00 L 99.03 117.00 L 99.06 126.00 L 99.10 135.00 L 99.14 144.00 L 99.19 153.00 L 99.25 162.00 L 99.32 171.00 L 99.40 180.00 L 99.49 189.00 L 99.60 198.00 L 99.72 207.00 L 99.86 216.00 L 100.01 225.00 L 100.18 234.00 L 100.38 243.00 L 100.59 252.00 L 100.82 261.00 L 101.07 270.00 L 101.33 279.00 L 101.61 288.00 L 101.92 297.00 L 102.23 306.00 L 102.57 315.00 L 102.92 324.00 L 103.25 333.00 L 103.61 342.00 L 103.96 351.00 L 104.28 360.00 L 104.58 369.00 L 104.95 378.00 L 105.18 387.00 L 105.47 396.00 L 105.74 405.00 L 105.98 414.00 L 106.13 423.00 L 106.28 432.00 L 106.32 441.00 L 106.38 450.00 L 106.45 459.00 L 106.50 468.00 L 106.40 477.00 L 106.35 486.00 L 106.22 495.00 L 106.12 504.00 L 105.92 513.00 L 105.64 522.00 L 105.38 531.00 L 105.16 540.00 L 104.83 549.00 L 104.52 558.00 L 104.21 567.00 L 103.86 576.00 L 103.48 585.00 L 103.14 594.00 L 102.81 603.00 L 102.48 612.00 L 102.98 621.00 L 106.34 630.00 L 111.58 639.00 L 117.90 648.00 L 122.71 657.00 L 124.20 666.00 L 124.05 675.00 L 123.40 684.00 L 123.19 693.00 L 123.17 702.00 L 122.26 711.00 L 121.06 720.00 L 121.66 729.00 L 120.36 738.00 L 121.32 747.00 L 119.98 756.00 L 119.99 765.00 L 120.96 774.00 L 120.12 783.00 L 120.82 792.00 L 120.95 801.00 L 121.30 810.00 L 121.43 819.00 L 120.95 828.00 L 121.50 837.00 L 122.48 846.00 L 121.80 855.00 L 123.62 864.00 L 124.11 873.00 L 123.64 882.00 L 124.31 891.00 L 125.13 900.00 Z M 138.35 900.00 L 138.09 891.00 L 138.78 882.00 L 139.08 873.00 L 138.48 864.00 L 138.20 855.00 L 138.38 846.00 L 138.90 837.00 L 138.14 828.00 L 138.84 819.00 L 138.41 810.00 L 137.53 801.00 L 137.45 792.00 L 137.77 783.00 L 137.64 774.00 L 137.49 765.00 L 136.64 756.00 L 136.33 747.00 L 136.78 738.00 L 136.29 729.00 L 136.22 720.00 L 135.77 711.00 L 135.34 702.00 L 135.08 693.00 L 135.64 684.00 L 134.54 675.00 L 134.55 666.00 L 134.78 657.00 L 135.20 648.00 L 134.67 639.00 L 134.47 630.00 L 135.64 621.00 L 135.61 612.00 L 136.00 603.00 L 135.11 594.00 L 135.96 585.00 L 135.89 576.00 L 137.40 567.00 L 137.76 558.00 L 138.07 549.00 L 137.80 540.00 L 137.23 531.00 L 137.97 522.00 L 138.51 513.00 L 138.51 504.00 L 139.10 495.00 L 138.47 486.00 L 140.95 477.00 L 142.85 468.00 L 146.78 459.00 L 149.95 450.00 L 152.24 441.00 L 152.70 432.00 L 152.88 423.00 L 153.13 414.00 L 153.36 405.00 L 153.56 396.00 L 153.83 387.00 L 154.09 378.00 L 154.32 369.00 L 154.57 360.00 L 154.81 351.00 L 155.05 342.00 L 155.26 333.00 L 155.47 324.00 L 155.66 315.00 L 155.83 306.00 L 155.99 297.00 L 156.14 288.00 L 156.27 279.00 L 156.39 270.00 L 156.49 261.00 L 156.58 252.00 L 156.65 243.00 L 156.72 234.00 L 156.77 225.00 L 156.82 216.00 L 156.86 207.00 L 156.89 198.00 L 156.92 189.00 L 156.94 180.00 L 156.96 171.00 L 156.97 162.00 L 156.98 153.00 L 156.99 144.00 L 157.00 135.00 L 157.00 126.00 L 157.01 117.00 L 157.01 108.00 L 157.01 99.00 L 157.02 90.00 L 157.02 81.00 L 157.02 72.00 L 157.02 63.00 L 157.02 54.00 L 157.02 45.00 L 157.02 36.00 L 157.02 27.00 L 157.02 18.00 L 157.02 9.00 L 157.02 0.00 L 162.98 0.00 L 162.98 9.00 L 162.98 18.00 L 162.98 27.00 L 162.98 36.00 L 162.98 45.00 L 162.98 54.00 L 162.98 63.00 L 162.98 72.00 L 162.98 81.00 L 162.98 90.00 L 162.99 99.00 L 162.99 108.00 L 162.99 117.00 L 162.99 126.00 L 163.00 135.00 L 163.00 144.00 L 163.01 153.00 L 163.01 162.00 L 163.02 171.00 L 163.04 180.00 L 163.05 189.00 L 163.07 198.00 L 163.09 207.00 L 163.12 216.00 L 163.16 225.00 L 163.20 234.00 L 163.24 243.00 L 163.30 252.00 L 163.37 261.00 L 163.45 270.00 L 163.54 279.00 L 163.64 288.00 L 163.77 297.00 L 163.90 306.00 L 164.05 315.00 L 164.22 324.00 L 164.41 333.00 L 164.61 342.00 L 164.82 351.00 L 165.06 360.00 L 165.31 369.00 L 165.54 378.00 L 165.81 387.00 L 166.10 396.00 L 166.32 405.00 L 166.57 414.00 L 166.86 423.00 L 167.07 432.00 L 167.55 441.00 L 169.81 450.00 L 172.93 459.00 L 176.86 468.00 L 178.78 477.00 L 181.32 486.00 L 180.74 495.00 L 181.35 504.00 L 181.34 513.00 L 181.84 522.00 L 182.52 531.00 L 181.85 540.00 L 181.46 549.00 L 181.63 558.00 L 181.81 567.00 L 183.13 576.00 L 182.86 585.00 L 183.48 594.00 L 182.35 603.00 L 182.49 612.00 L 182.20 621.00 L 183.12 630.00 L 182.65 639.00 L 181.86 648.00 L 182.01 657.00 L 181.98 666.00 L 181.74 675.00 L 180.39 684.00 L 180.71 693.00 L 180.21 702.00 L 179.57 711.00 L 178.91 720.00 L 178.66 729.00 L 178.00 738.00 L 178.30 747.00 L 177.86 756.00 L 176.89 765.00 L 176.65 774.00 L 176.45 783.00 L 176.72 792.00 L 176.63 801.00 L 175.74 810.00 L 175.35 819.00 L 176.10 828.00 L 175.41 837.00 L 176.04 846.00 L 176.34 855.00 L 176.20 864.00 L 175.77 873.00 L 176.24 882.00 L 177.14 891.00 L 177.10 900.00 Z M 220.39 900.00 L 220.34 891.00 L 220.29 882.00 L 218.90 873.00 L 215.04 864.00 L 211.29 855.00 L 208.04 846.00 L 205.80 837.00 L 205.31 828.00 L 204.83 819.00 L 204.77 810.00 L 205.20 801.00 L 204.52 792.00 L 204.47 783.00 L 204.58 774.00 L 204.10 765.00 L 202.86 756.00 L 203.37 747.00 L 203.48 738.00 L 202.30 729.00 L 201.92 720.00 L 201.65 711.00 L 201.60 702.00 L 200.52 693.00 L 200.43 684.00 L 200.55 675.00 L 199.38 666.00 L 200.65 657.00 L 200.04 648.00 L 200.19 639.00 L 199.22 630.00 L 199.82 621.00 L 199.85 612.00 L 199.17 603.00 L 199.66 594.00 L 200.93 585.00 L 200.24 576.00 L 201.11 567.00 L 200.70 558.00 L 201.87 549.00 L 202.91 540.00 L 202.88 531.00 L 203.21 522.00 L 203.00 513.00 L 204.16 504.00 L 204.16 495.00 L 205.47 486.00 L 205.93 477.00 L 204.90 468.00 L 204.58 459.00 L 205.32 450.00 L 206.23 441.00 L 205.70 432.00 L 205.13 423.00 L 205.30 414.00 L 205.14 405.00 L 204.27 396.00 L 204.75 387.00 L 203.00 378.00 L 202.35 369.00 L 202.99 360.00 L 202.60 351.00 L 201.62 342.00 L 201.33 333.00 L 201.35 324.00 L 200.53 315.00 L 200.12 306.00 L 203.33 297.00 L 206.68 288.00 L 210.65 279.00 L 214.28 270.00 L 216.16 261.00 L 216.38 252.00 L 216.49 243.00 L 216.69 234.00 L 216.81 225.00 L 216.99 216.00 L 217.14 207.00 L 217.30 198.00 L 217.47 189.00 L 217.66 180.00 L 217.82 171.00 L 217.97 162.00 L 218.14 153.00 L 218.30 144.00 L 218.45 135.00 L 218.59 126.00 L 218.73 117.00 L 218.89 108.00 L 219.02 99.00 L 219.14 90.00 L 219.26 81.00 L 219.38 72.00 L 219.49 63.00 L 219.59 54.00 L 219.69 45.00 L 219.79 36.00 L 219.87 27.00 L 219.95 18.00 L 220.03 9.00 L 220.10 0.00 L 228.00 0.00 L 228.07 9.00 L 228.14 18.00 L 228.22 27.00 L 228.30 36.00 L 228.38 45.00 L 228.47 54.00 L 228.57 63.00 L 228.66 72.00 L 228.77 81.00 L 228.87 90.00 L 228.99 99.00 L 229.10 108.00 L 229.25 117.00 L 229.38 126.00 L 229.51 135.00 L 229.66 144.00 L 229.82 153.00 L 229.99 162.00 L 230.15 171.00 L 230.33 180.00 L 230.54 189.00 L 230.73 198.00 L 230.92 207.00 L 231.12 216.00 L 231.35 225.00 L 231.53 234.00 L 231.79 243.00 L 231.98 252.00 L 232.29 261.00 L 234.44 270.00 L 238.60 279.00 L 243.28 288.00 L 247.43 297.00 L 251.34 306.00 L 251.35 315.00 L 250.87 324.00 L 251.21 333.00 L 251.23 342.00 L 250.54 351.00 L 250.43 360.00 L 251.33 369.00 L 250.92 378.00 L 249.38 387.00 L 250.05 396.00 L 249.32 405.00 L 249.29 414.00 L 249.54 423.00 L 249.04 432.00 L 248.53 441.00 L 249.43 450.00 L 250.12 459.00 L 249.72 468.00 L 248.58 477.00 L 248.89 486.00 L 250.04 495.00 L 249.84 504.00 L 250.77 513.00 L 250.31 522.00 L 250.37 531.00 L 250.06 540.00 L 250.79 549.00 L 251.65 558.00 L 250.91 567.00 L 251.45 576.00 L 250.43 585.00 L 251.37 594.00 L 251.52 603.00 L 250.52 612.00 L 250.23 621.00 L 250.52 630.00 L 249.26 639.00 L 249.14 648.00 L 248.27 657.00 L 249.32 666.00 L 247.93 675.00 L 247.86 684.00 L 247.60 693.00 L 246.38 702.00 L 246.22 711.00 L 245.87 720.00 L 245.43 729.00 L 244.22 738.00 L 244.33 747.00 L 244.86 756.00 L 243.68 765.00 L 243.27 774.00 L 243.48 783.00 L 243.56 792.00 L 243.02 801.00 L 243.62 810.00 L 243.75 819.00 L 243.47 828.00 L 243.17 837.00 L 240.97 846.00 L 237.59 855.00 L 233.57 864.00 L 229.33 873.00 L 227.78 882.00 L 227.73 891.00 L 227.69 900.00 Z M 284.83 900.00 L 284.83 891.00 L 284.83 882.00 L 284.83 873.00 L 284.83 864.00 L 284.83 855.00 L 284.82 846.00 L 284.82 837.00 L 284.82 828.00 L 284.82 819.00 L 284.81 810.00 L 284.81 801.00 L 284.80 792.00 L 284.79 783.00 L 284.78 774.00 L 284.77 765.00 L 284.76 756.00 L 284.75 747.00 L 284.73 738.00 L 284.71 729.00 L 284.69 720.00 L 284.66 711.00 L 284.34 702.00 L 281.95 693.00 L 277.93 684.00 L 273.31 675.00 L 268.68 666.00 L 266.94 657.00 L 265.87 648.00 L 266.49 639.00 L 267.07 630.00 L 267.32 621.00 L 267.82 612.00 L 267.74 603.00 L 267.80 594.00 L 268.92 585.00 L 268.86 576.00 L 268.18 567.00 L 268.86 558.00 L 269.24 549.00 L 269.09 540.00 L 268.77 531.00 L 269.64 522.00 L 269.55 513.00 L 268.79 504.00 L 269.56 495.00 L 269.34 486.00 L 268.37 477.00 L 268.49 468.00 L 268.07 459.00 L 267.57 450.00 L 266.08 441.00 L 265.90 432.00 L 266.21 423.00 L 264.06 414.00 L 264.74 405.00 L 262.67 396.00 L 262.71 387.00 L 262.56 378.00 L 260.93 369.00 L 260.99 360.00 L 260.82 351.00 L 260.13 342.00 L 260.02 333.00 L 257.99 324.00 L 258.98 315.00 L 258.03 306.00 L 258.86 297.00 L 259.80 288.00 L 258.98 279.00 L 259.25 270.00 L 260.53 261.00 L 260.97 252.00 L 262.05 243.00 L 261.33 234.00 L 262.23 225.00 L 262.87 216.00 L 263.32 207.00 L 264.26 198.00 L 264.78 189.00 L 265.89 180.00 L 265.81 171.00 L 265.36 162.00 L 265.98 153.00 L 266.36 144.00 L 267.08 135.00 L 267.25 126.00 L 270.10 117.00 L 274.42 108.00 L 278.18 99.00 L 281.42 90.00 L 283.00 81.00 L 282.89 72.00 L 281.37 63.00 L 278.78 54.00 L 275.93 45.00 L 276.11 36.00 L 279.21 27.00 L 282.05 18.00 L 283.88 9.00 L 284.26 0.00 L 291.85 0.00 L 292.29 9.00 L 294.39 18.00 L 297.62 27.00 L 301.02 36.00 L 301.09 45.00 L 297.83 54.00 L 294.92 63.00 L 293.24 72.00 L 293.09 81.00 L 294.70 90.00 L 297.95 99.00 L 301.62 108.00 L 305.72 117.00 L 308.27 126.00 L 308.14 135.00 L 308.60 144.00 L 308.73 153.00 L 309.12 162.00 L 308.44 171.00 L 308.17 180.00 L 309.11 189.00 L 309.47 198.00 L 310.29 207.00 L 310.65 216.00 L 311.23 225.00 L 312.09 234.00 L 311.38 243.00 L 312.50 252.00 L 313.01 261.00 L 314.39 270.00 L 314.79 279.00 L 314.14 288.00 L 315.29 297.00 L 316.35 306.00 L 315.65 315.00 L 316.91 324.00 L 315.17 333.00 L 315.37 342.00 L 315.01 351.00 L 315.17 360.00 L 315.57 369.00 L 314.29 378.00 L 314.47 387.00 L 314.84 396.00 L 313.09 405.00 L 314.08 414.00 L 312.22 423.00 L 312.81 432.00 L 312.87 441.00 L 311.62 450.00 L 311.32 459.00 L 311.08 468.00 L 311.35 477.00 L 310.50 486.00 L 310.39 495.00 L 311.23 504.00 L 310.50 513.00 L 310.43 522.00 L 311.29 531.00 L 310.93 540.00 L 310.71 549.00 L 311.00 558.00 L 311.56 567.00 L 310.74 576.00 L 310.53 585.00 L 311.47 594.00 L 311.34 603.00 L 311.04 612.00 L 311.31 621.00 L 311.33 630.00 L 311.65 639.00 L 312.01 648.00 L 310.64 657.00 L 308.46 666.00 L 303.36 675.00 L 298.37 684.00 L 294.13 693.00 L 291.67 702.00 L 291.34 711.00 L 291.31 720.00 L 291.29 729.00 L 291.27 738.00 L 291.25 747.00 L 291.23 756.00 L 291.22 765.00 L 291.21 774.00 L 291.20 783.00 L 291.20 792.00 L 291.19 801.00 L 291.19 810.00 L 291.18 819.00 L 291.18 828.00 L 291.18 837.00 L 291.18 846.00 L 291.17 855.00 L 291.17 864.00 L 291.17 873.00 L 291.17 882.00 L 291.17 891.00 L 291.17 900.00 Z M 349.27 900.00 L 349.25 891.00 L 349.23 882.00 L 349.20 873.00 L 349.16 864.00 L 349.12 855.00 L 349.07 846.00 L 349.01 837.00 L 348.93 828.00 L 348.85 819.00 L 348.75 810.00 L 348.64 801.00 L 348.52 792.00 L 348.38 783.00 L 348.22 774.00 L 348.04 765.00 L 347.85 756.00 L 347.64 747.00 L 347.41 738.00 L 347.16 729.00 L 346.89 720.00 L 346.61 711.00 L 346.31 702.00 L 346.03 693.00 L 345.73 684.00 L 345.42 675.00 L 345.11 666.00 L 338.46 657.00 L 325.20 648.00 L 323.53 639.00 L 324.45 630.00 L 324.93 621.00 L 325.38 612.00 L 325.68 603.00 L 325.98 594.00 L 325.31 585.00 L 327.14 576.00 L 327.61 567.00 L 327.32 558.00 L 327.28 549.00 L 328.02 540.00 L 329.34 531.00 L 328.99 522.00 L 329.59 513.00 L 330.38 504.00 L 330.29 495.00 L 330.77 486.00 L 329.49 477.00 L 329.32 468.00 L 330.12 459.00 L 330.75 450.00 L 329.70 441.00 L 329.47 432.00 L 329.49 423.00 L 329.12 414.00 L 329.54 405.00 L 328.06 396.00 L 328.06 387.00 L 327.38 378.00 L 327.66 369.00 L 327.98 360.00 L 327.56 351.00 L 327.45 342.00 L 326.03 333.00 L 327.15 324.00 L 325.72 315.00 L 326.72 306.00 L 326.22 297.00 L 326.79 288.00 L 326.58 279.00 L 326.60 270.00 L 325.97 261.00 L 326.99 252.00 L 326.85 243.00 L 327.05 234.00 L 326.91 225.00 L 328.01 216.00 L 328.44 207.00 L 328.38 198.00 L 328.32 189.00 L 329.18 180.00 L 329.68 171.00 L 329.07 162.00 L 329.77 153.00 L 329.69 144.00 L 330.81 135.00 L 330.02 126.00 L 330.03 117.00 L 330.28 108.00 L 330.82 99.00 L 329.95 90.00 L 330.08 81.00 L 330.52 72.00 L 330.37 63.00 L 330.21 54.00 L 329.86 45.00 L 332.99 36.00 L 329.74 27.00 L 329.32 18.00 L 329.76 9.00 L 328.99 0.00 L 374.65 0.00 L 373.63 9.00 L 373.82 18.00 L 373.12 27.00 L 369.83 36.00 L 372.45 45.00 L 371.82 54.00 L 371.37 63.00 L 370.95 72.00 L 371.10 81.00 L 370.97 90.00 L 369.84 99.00 L 370.13 108.00 L 370.15 117.00 L 369.94 126.00 L 368.95 135.00 L 369.89 144.00 L 369.65 153.00 L 370.22 162.00 L 369.49 171.00 L 369.91 180.00 L 370.71 189.00 L 370.62 198.00 L 370.55 207.00 L 370.99 216.00 L 372.13 225.00 L 372.07 234.00 L 372.36 243.00 L 372.34 252.00 L 373.50 261.00 L 373.03 270.00 L 373.23 279.00 L 373.22 288.00 L 374.01 297.00 L 373.75 306.00 L 374.99 315.00 L 373.82 324.00 L 375.21 333.00 L 374.07 342.00 L 374.24 351.00 L 374.10 360.00 L 374.71 369.00 L 375.28 378.00 L 374.87 387.00 L 375.16 396.00 L 373.95 405.00 L 374.62 414.00 L 374.50 423.00 L 374.76 432.00 L 374.74 441.00 L 373.88 450.00 L 374.69 459.00 L 375.62 468.00 L 375.58 477.00 L 374.38 486.00 L 374.92 495.00 L 374.85 504.00 L 375.64 513.00 L 376.19 522.00 L 375.77 531.00 L 376.98 540.00 L 377.58 549.00 L 377.37 558.00 L 376.88 567.00 L 377.13 576.00 L 378.70 585.00 L 377.77 594.00 L 377.78 603.00 L 377.80 612.00 L 377.94 621.00 L 378.11 630.00 L 378.72 639.00 L 376.81 648.00 L 364.48 657.00 L 358.40 666.00 L 358.08 675.00 L 357.76 684.00 L 357.46 693.00 L 357.19 702.00 L 356.91 711.00 L 356.65 720.00 L 356.41 729.00 L 356.20 738.00 L 356.00 747.00 L 355.83 756.00 L 355.67 765.00 L 355.52 774.00 L 355.40 783.00 L 355.29 792.00 L 355.19 801.00 L 355.11 810.00 L 355.03 819.00 L 354.97 828.00 L 354.92 837.00 L 354.87 846.00 L 354.83 855.00 L 354.80 864.00 L 354.77 873.00 L 354.75 882.00 L 354.73 891.00 L 354.72 900.00 Z M 412.34 900.00 L 412.31 891.00 L 412.27 882.00 L 412.23 873.00 L 412.19 864.00 L 412.14 855.00 L 412.09 846.00 L 412.04 837.00 L 411.99 828.00 L 411.93 819.00 L 411.87 810.00 L 411.80 801.00 L 411.73 792.00 L 411.66 783.00 L 411.58 774.00 L 411.50 765.00 L 411.42 756.00 L 411.34 747.00 L 411.24 738.00 L 411.15 729.00 L 411.05 720.00 L 410.94 711.00 L 410.83 702.00 L 410.73 693.00 L 410.62 684.00 L 410.48 675.00 L 410.36 666.00 L 406.60 657.00 L 399.03 648.00 L 399.85 639.00 L 398.52 630.00 L 398.93 621.00 L 399.55 612.00 L 399.50 603.00 L 398.28 594.00 L 397.76 585.00 L 396.95 576.00 L 396.66 567.00 L 396.14 558.00 L 396.39 549.00 L 396.47 540.00 L 394.54 531.00 L 394.17 522.00 L 393.25 513.00 L 393.62 504.00 L 392.82 495.00 L 391.79 486.00 L 391.34 477.00 L 390.90 468.00 L 391.05 459.00 L 390.65 450.00 L 389.42 441.00 L 391.02 432.00 L 390.72 423.00 L 389.90 414.00 L 389.58 405.00 L 390.84 396.00 L 391.07 387.00 L 391.33 378.00 L 391.22 369.00 L 391.94 360.00 L 392.73 351.00 L 392.86 342.00 L 394.10 333.00 L 394.02 324.00 L 395.20 315.00 L 396.47 306.00 L 396.61 297.00 L 396.84 288.00 L 396.94 279.00 L 397.23 270.00 L 398.22 261.00 L 398.01 252.00 L 398.54 243.00 L 399.08 234.00 L 398.95 225.00 L 398.77 216.00 L 399.26 207.00 L 398.29 198.00 L 398.42 189.00 L 398.61 180.00 L 398.69 171.00 L 398.13 162.00 L 398.75 153.00 L 397.73 144.00 L 397.60 135.00 L 396.72 126.00 L 396.69 117.00 L 396.50 108.00 L 396.86 99.00 L 397.11 90.00 L 397.34 81.00 L 397.22 72.00 L 396.22 63.00 L 397.21 54.00 L 396.64 45.00 L 399.63 36.00 L 396.52 27.00 L 397.33 18.00 L 397.39 9.00 L 397.43 0.00 L 442.34 0.00 L 442.66 9.00 L 442.99 18.00 L 444.06 27.00 L 439.79 36.00 L 444.40 45.00 L 444.05 54.00 L 445.23 63.00 L 444.40 72.00 L 444.42 81.00 L 444.78 90.00 L 445.13 99.00 L 445.56 108.00 L 445.42 117.00 L 445.41 126.00 L 444.53 135.00 L 444.37 144.00 L 443.29 153.00 L 443.83 162.00 L 443.15 171.00 L 443.10 180.00 L 443.13 189.00 L 443.08 198.00 L 441.91 207.00 L 442.18 216.00 L 441.77 225.00 L 441.39 234.00 L 441.66 243.00 L 441.92 252.00 L 441.42 261.00 L 442.12 270.00 L 442.13 279.00 L 441.94 288.00 L 441.88 297.00 L 441.74 306.00 L 442.74 315.00 L 443.67 324.00 L 443.35 333.00 L 444.37 342.00 L 444.30 351.00 L 444.91 360.00 L 445.47 369.00 L 445.23 378.00 L 445.39 387.00 L 445.55 396.00 L 446.76 405.00 L 446.43 414.00 L 445.63 423.00 L 445.38 432.00 L 447.06 441.00 L 445.94 450.00 L 445.67 459.00 L 445.98 468.00 L 445.73 477.00 L 445.49 486.00 L 444.69 495.00 L 444.15 504.00 L 444.78 513.00 L 444.14 522.00 L 444.06 531.00 L 442.43 540.00 L 442.80 549.00 L 443.35 558.00 L 443.12 567.00 L 443.13 576.00 L 442.60 585.00 L 442.35 594.00 L 441.38 603.00 L 441.58 612.00 L 442.42 621.00 L 443.03 630.00 L 441.88 639.00 L 442.52 648.00 L 429.70 657.00 L 423.23 666.00 L 423.05 675.00 L 422.85 684.00 L 422.66 693.00 L 422.49 702.00 L 422.30 711.00 L 422.12 720.00 L 421.94 729.00 L 421.77 738.00 L 421.60 747.00 L 421.44 756.00 L 421.28 765.00 L 421.13 774.00 L 420.99 783.00 L 420.85 792.00 L 420.72 801.00 L 420.60 810.00 L 420.49 819.00 L 420.38 828.00 L 420.29 837.00 L 420.19 846.00 L 420.11 855.00 L 420.03 864.00 L 419.96 873.00 L 419.90 882.00 L 419.84 891.00 L 419.78 900.00 Z M 475.26 900.00 L 475.12 891.00 L 474.96 882.00 L 474.79 873.00 L 474.62 864.00 L 474.42 855.00 L 474.24 846.00 L 474.03 837.00 L 473.81 828.00 L 473.59 819.00 L 473.38 810.00 L 473.14 801.00 L 472.91 792.00 L 472.67 783.00 L 472.45 774.00 L 472.23 765.00 L 471.97 756.00 L 471.72 747.00 L 471.51 738.00 L 471.31 729.00 L 471.09 720.00 L 470.93 711.00 L 470.42 702.00 L 467.56 693.00 L 462.97 684.00 L 457.48 675.00 L 453.65 666.00 L 449.99 657.00 L 449.81 648.00 L 450.62 639.00 L 449.63 630.00 L 449.59 621.00 L 450.45 612.00 L 450.65 603.00 L 451.48 594.00 L 451.20 585.00 L 453.43 576.00 L 453.56 567.00 L 453.40 558.00 L 454.17 549.00 L 455.79 540.00 L 455.77 531.00 L 456.86 522.00 L 457.30 513.00 L 456.38 504.00 L 456.85 495.00 L 458.06 486.00 L 457.58 477.00 L 458.33 468.00 L 457.92 459.00 L 459.15 450.00 L 459.16 441.00 L 458.90 432.00 L 459.00 423.00 L 458.72 414.00 L 458.09 405.00 L 457.05 396.00 L 456.88 387.00 L 457.48 378.00 L 456.52 369.00 L 456.68 360.00 L 456.17 351.00 L 455.25 342.00 L 455.91 333.00 L 454.51 324.00 L 454.91 315.00 L 455.16 306.00 L 454.84 297.00 L 454.19 288.00 L 454.25 279.00 L 454.24 270.00 L 453.79 261.00 L 453.96 252.00 L 454.56 243.00 L 454.65 234.00 L 455.02 225.00 L 454.65 216.00 L 455.38 207.00 L 455.17 198.00 L 455.73 189.00 L 455.20 180.00 L 456.22 171.00 L 456.60 162.00 L 456.47 153.00 L 456.27 144.00 L 457.23 135.00 L 457.72 126.00 L 461.24 117.00 L 465.95 108.00 L 470.90 99.00 L 474.83 90.00 L 476.57 81.00 L 476.20 72.00 L 474.08 63.00 L 470.67 54.00 L 467.46 45.00 L 467.45 36.00 L 470.80 27.00 L 474.14 18.00 L 476.22 9.00 L 476.58 0.00 L 483.41 0.00 L 483.71 9.00 L 485.37 18.00 L 487.96 27.00 L 490.44 36.00 L 490.30 45.00 L 487.85 54.00 L 485.26 63.00 L 483.70 72.00 L 483.43 81.00 L 484.67 90.00 L 487.38 99.00 L 490.73 108.00 L 493.81 117.00 L 496.08 126.00 L 496.10 135.00 L 496.98 144.00 L 496.73 153.00 L 496.58 162.00 L 496.96 171.00 L 498.01 180.00 L 497.52 189.00 L 498.17 198.00 L 498.06 207.00 L 498.91 216.00 L 498.69 225.00 L 499.22 234.00 L 499.51 243.00 L 500.30 252.00 L 500.69 261.00 L 500.49 270.00 L 500.72 279.00 L 501.03 288.00 L 500.65 297.00 L 500.60 306.00 L 501.13 315.00 L 501.80 324.00 L 500.67 333.00 L 501.60 342.00 L 500.94 351.00 L 500.68 360.00 L 501.09 369.00 L 500.36 378.00 L 501.18 387.00 L 501.20 396.00 L 500.33 405.00 L 499.86 414.00 L 499.72 423.00 L 499.93 432.00 L 499.75 441.00 L 499.82 450.00 L 501.07 459.00 L 500.67 468.00 L 501.38 477.00 L 500.84 486.00 L 501.96 495.00 L 502.31 504.00 L 501.23 513.00 L 501.50 522.00 L 502.38 531.00 L 502.13 540.00 L 503.50 549.00 L 504.00 558.00 L 503.55 567.00 L 503.37 576.00 L 505.27 585.00 L 504.67 594.00 L 505.16 603.00 L 505.02 612.00 L 505.54 621.00 L 505.17 630.00 L 503.85 639.00 L 504.35 648.00 L 503.95 657.00 L 500.66 666.00 L 497.72 675.00 L 493.38 684.00 L 489.90 693.00 L 487.76 702.00 L 487.36 711.00 L 487.22 720.00 L 487.03 729.00 L 486.88 738.00 L 486.71 747.00 L 486.54 756.00 L 486.34 765.00 L 486.20 774.00 L 486.07 783.00 L 485.90 792.00 L 485.77 801.00 L 485.61 810.00 L 485.49 819.00 L 485.36 828.00 L 485.22 837.00 L 485.09 846.00 L 484.98 855.00 L 484.86 864.00 L 484.76 873.00 L 484.65 882.00 L 484.55 891.00 L 484.45 900.00 Z M 540.61 900.00 L 540.61 891.00 L 540.61 882.00 L 539.26 873.00 L 535.32 864.00 L 531.15 855.00 L 526.44 846.00 L 523.32 837.00 L 523.89 828.00 L 522.84 819.00 L 522.71 810.00 L 523.98 801.00 L 524.23 792.00 L 524.49 783.00 L 523.86 774.00 L 524.26 765.00 L 523.96 756.00 L 524.67 747.00 L 525.70 738.00 L 525.84 729.00 L 525.27 720.00 L 526.48 711.00 L 526.58 702.00 L 525.78 693.00 L 526.86 684.00 L 526.94 675.00 L 526.64 666.00 L 526.92 657.00 L 526.65 648.00 L 526.13 639.00 L 526.77 630.00 L 525.74 621.00 L 525.58 612.00 L 526.07 603.00 L 525.41 594.00 L 525.16 585.00 L 524.88 576.00 L 523.31 567.00 L 523.35 558.00 L 522.80 549.00 L 521.90 540.00 L 521.56 531.00 L 521.78 522.00 L 521.35 513.00 L 520.05 504.00 L 519.43 495.00 L 519.78 486.00 L 519.95 477.00 L 518.32 468.00 L 519.42 459.00 L 518.78 450.00 L 518.17 441.00 L 517.81 432.00 L 518.58 423.00 L 517.28 414.00 L 519.05 405.00 L 517.98 396.00 L 518.43 387.00 L 519.82 378.00 L 518.64 369.00 L 520.02 360.00 L 520.51 351.00 L 520.12 342.00 L 521.46 333.00 L 521.50 324.00 L 522.25 315.00 L 522.22 306.00 L 524.92 297.00 L 528.27 288.00 L 531.09 279.00 L 533.68 270.00 L 535.38 261.00 L 535.77 252.00 L 535.94 243.00 L 536.25 234.00 L 536.48 225.00 L 536.83 216.00 L 537.09 207.00 L 537.40 198.00 L 537.69 189.00 L 537.96 180.00 L 538.22 171.00 L 538.48 162.00 L 538.73 153.00 L 538.96 144.00 L 539.17 135.00 L 539.36 126.00 L 539.54 117.00 L 539.70 108.00 L 539.84 99.00 L 539.96 90.00 L 540.07 81.00 L 540.16 72.00 L 540.24 63.00 L 540.31 54.00 L 540.37 45.00 L 540.41 36.00 L 540.45 27.00 L 540.49 18.00 L 540.51 9.00 L 540.54 0.00 L 547.49 0.00 L 547.52 9.00 L 547.56 18.00 L 547.61 27.00 L 547.67 36.00 L 547.74 45.00 L 547.83 54.00 L 547.94 63.00 L 548.06 72.00 L 548.21 81.00 L 548.38 90.00 L 548.58 99.00 L 548.81 108.00 L 549.06 117.00 L 549.35 126.00 L 549.66 135.00 L 550.00 144.00 L 550.37 153.00 L 550.76 162.00 L 551.17 171.00 L 551.58 180.00 L 551.99 189.00 L 552.43 198.00 L 552.87 207.00 L 553.25 216.00 L 553.70 225.00 L 554.02 234.00 L 554.39 243.00 L 554.59 252.00 L 555.02 261.00 L 557.38 270.00 L 561.10 279.00 L 565.14 288.00 L 569.45 297.00 L 572.60 306.00 L 572.36 315.00 L 572.73 324.00 L 572.39 333.00 L 573.34 342.00 L 572.59 351.00 L 572.73 360.00 L 573.77 369.00 L 572.28 378.00 L 573.37 387.00 L 573.57 396.00 L 572.27 405.00 L 573.84 414.00 L 572.38 423.00 L 573.02 432.00 L 572.57 441.00 L 571.89 450.00 L 571.22 459.00 L 572.32 468.00 L 570.72 477.00 L 570.95 486.00 L 571.39 495.00 L 570.89 504.00 L 569.74 513.00 L 569.47 522.00 L 569.89 531.00 L 569.77 540.00 L 569.10 549.00 L 568.80 558.00 L 569.10 567.00 L 567.81 576.00 L 567.81 585.00 L 567.85 594.00 L 567.49 603.00 L 568.28 612.00 L 568.41 621.00 L 567.68 630.00 L 568.60 639.00 L 568.36 648.00 L 568.35 657.00 L 568.89 666.00 L 568.82 675.00 L 569.12 684.00 L 570.39 693.00 L 569.76 702.00 L 570.02 711.00 L 571.35 720.00 L 570.88 729.00 L 571.08 738.00 L 572.16 747.00 L 572.88 756.00 L 572.57 765.00 L 572.93 774.00 L 572.23 783.00 L 572.39 792.00 L 572.51 801.00 L 573.64 810.00 L 573.33 819.00 L 572.09 828.00 L 572.17 837.00 L 567.64 846.00 L 561.03 855.00 L 554.94 864.00 L 549.30 873.00 L 547.39 882.00 L 547.39 891.00 L 547.39 900.00 Z M 584.51 900.00 L 584.22 891.00 L 584.25 882.00 L 583.76 873.00 L 584.38 864.00 L 583.68 855.00 L 585.05 846.00 L 583.82 837.00 L 584.08 828.00 L 584.64 819.00 L 583.82 810.00 L 583.75 801.00 L 583.81 792.00 L 583.25 783.00 L 582.85 774.00 L 582.58 765.00 L 582.35 756.00 L 581.41 747.00 L 582.23 738.00 L 581.28 729.00 L 581.89 720.00 L 581.76 711.00 L 581.16 702.00 L 582.16 693.00 L 582.05 684.00 L 581.36 675.00 L 582.25 666.00 L 581.25 657.00 L 581.48 648.00 L 582.66 639.00 L 582.61 630.00 L 583.28 621.00 L 583.58 612.00 L 583.66 603.00 L 583.99 594.00 L 584.36 585.00 L 585.05 576.00 L 584.69 567.00 L 585.20 558.00 L 586.01 549.00 L 585.26 540.00 L 586.47 531.00 L 585.16 522.00 L 586.34 513.00 L 585.59 504.00 L 584.69 495.00 L 584.45 486.00 L 586.86 477.00 L 589.71 468.00 L 592.63 459.00 L 595.78 450.00 L 597.54 441.00 L 597.42 432.00 L 597.01 423.00 L 596.54 414.00 L 596.30 405.00 L 595.80 396.00 L 595.59 387.00 L 595.34 378.00 L 595.37 369.00 L 595.30 360.00 L 595.11 351.00 L 595.14 342.00 L 595.33 333.00 L 595.75 324.00 L 595.91 315.00 L 596.40 306.00 L 596.69 297.00 L 597.18 288.00 L 597.67 279.00 L 598.10 270.00 L 598.61 261.00 L 599.17 252.00 L 599.69 243.00 L 600.19 234.00 L 600.62 225.00 L 601.09 216.00 L 601.51 207.00 L 601.91 198.00 L 602.28 189.00 L 602.62 180.00 L 602.93 171.00 L 603.20 162.00 L 603.45 153.00 L 603.67 144.00 L 603.86 135.00 L 604.02 126.00 L 604.17 117.00 L 604.29 108.00 L 604.39 99.00 L 604.48 90.00 L 604.55 81.00 L 604.61 72.00 L 604.66 63.00 L 604.70 54.00 L 604.74 45.00 L 604.76 36.00 L 604.78 27.00 L 604.80 18.00 L 604.81 9.00 L 604.82 0.00 L 611.18 0.00 L 611.19 9.00 L 611.21 18.00 L 611.22 27.00 L 611.24 36.00 L 611.27 45.00 L 611.30 54.00 L 611.34 63.00 L 611.39 72.00 L 611.45 81.00 L 611.51 90.00 L 611.59 99.00 L 611.69 108.00 L 611.80 117.00 L 611.92 126.00 L 612.07 135.00 L 612.23 144.00 L 612.41 153.00 L 612.62 162.00 L 612.85 171.00 L 613.11 180.00 L 613.40 189.00 L 613.71 198.00 L 614.05 207.00 L 614.41 216.00 L 614.81 225.00 L 615.20 234.00 L 615.64 243.00 L 616.12 252.00 L 616.64 261.00 L 617.14 270.00 L 617.57 279.00 L 618.07 288.00 L 618.59 297.00 L 618.93 306.00 L 619.50 315.00 L 619.74 324.00 L 620.27 333.00 L 620.57 342.00 L 620.73 351.00 L 620.68 360.00 L 620.75 369.00 L 620.93 378.00 L 620.81 387.00 L 620.73 396.00 L 620.35 405.00 L 620.22 414.00 L 619.83 423.00 L 619.49 432.00 L 619.46 441.00 L 621.60 450.00 L 625.39 459.00 L 629.10 468.00 L 632.71 477.00 L 635.64 486.00 L 635.53 495.00 L 634.65 504.00 L 633.91 513.00 L 635.06 522.00 L 633.68 531.00 L 634.80 540.00 L 633.92 549.00 L 634.59 558.00 L 634.93 567.00 L 634.37 576.00 L 634.84 585.00 L 634.98 594.00 L 635.05 603.00 L 634.86 612.00 L 634.87 621.00 L 635.24 630.00 L 634.89 639.00 L 635.76 648.00 L 635.67 657.00 L 634.35 666.00 L 634.91 675.00 L 633.90 684.00 L 633.47 693.00 L 634.16 702.00 L 633.26 711.00 L 632.84 720.00 L 633.18 729.00 L 631.98 738.00 L 632.56 747.00 L 631.40 756.00 L 630.98 765.00 L 630.55 774.00 L 630.00 783.00 L 629.33 792.00 L 629.31 801.00 L 629.18 810.00 L 628.33 819.00 L 628.90 828.00 L 629.20 837.00 L 628.04 846.00 L 629.50 855.00 L 628.92 864.00 L 629.69 873.00 L 629.38 882.00 L 629.61 891.00 L 629.54 900.00 Z M 651.72 900.00 L 652.11 891.00 L 652.59 882.00 L 651.90 873.00 L 652.81 864.00 L 652.11 855.00 L 651.41 846.00 L 652.43 837.00 L 651.53 828.00 L 651.41 819.00 L 651.05 810.00 L 651.44 801.00 L 650.52 792.00 L 650.49 783.00 L 650.14 774.00 L 650.00 765.00 L 649.38 756.00 L 650.01 747.00 L 649.08 738.00 L 650.02 729.00 L 649.76 720.00 L 649.65 711.00 L 649.53 702.00 L 649.08 693.00 L 650.06 684.00 L 650.34 675.00 L 650.38 666.00 L 652.20 657.00 L 656.26 648.00 L 660.32 639.00 L 663.89 630.00 L 666.18 621.00 L 666.54 612.00 L 666.39 603.00 L 666.21 594.00 L 666.07 585.00 L 665.88 576.00 L 665.70 567.00 L 665.58 558.00 L 665.42 549.00 L 665.27 540.00 L 665.15 531.00 L 665.00 522.00 L 664.79 513.00 L 664.72 504.00 L 664.55 495.00 L 664.46 486.00 L 664.39 477.00 L 664.26 468.00 L 664.21 459.00 L 664.14 450.00 L 664.10 441.00 L 664.14 432.00 L 664.15 423.00 L 664.14 414.00 L 664.25 405.00 L 664.34 396.00 L 664.46 387.00 L 664.58 378.00 L 664.68 369.00 L 664.87 360.00 L 665.07 351.00 L 665.28 342.00 L 665.48 333.00 L 665.70 324.00 L 665.90 315.00 L 666.12 306.00 L 666.33 297.00 L 666.55 288.00 L 666.73 279.00 L 666.93 270.00 L 667.11 261.00 L 667.29 252.00 L 667.44 243.00 L 667.59 234.00 L 667.73 225.00 L 667.85 216.00 L 667.97 207.00 L 668.07 198.00 L 668.16 189.00 L 668.24 180.00 L 668.31 171.00 L 668.38 162.00 L 668.43 153.00 L 668.48 144.00 L 668.52 135.00 L 668.56 126.00 L 668.59 117.00 L 668.61 108.00 L 668.64 99.00 L 668.65 90.00 L 668.67 81.00 L 668.68 72.00 L 668.69 63.00 L 668.70 54.00 L 668.71 45.00 L 668.71 36.00 L 668.72 27.00 L 668.72 18.00 L 668.72 9.00 L 668.72 0.00 L 675.28 0.00 L 675.29 9.00 L 675.29 18.00 L 675.30 27.00 L 675.30 36.00 L 675.31 45.00 L 675.32 54.00 L 675.33 63.00 L 675.35 72.00 L 675.37 81.00 L 675.39 90.00 L 675.41 99.00 L 675.44 108.00 L 675.48 117.00 L 675.52 126.00 L 675.57 135.00 L 675.62 144.00 L 675.68 153.00 L 675.75 162.00 L 675.83 171.00 L 675.91 180.00 L 676.01 189.00 L 676.12 198.00 L 676.24 207.00 L 676.38 216.00 L 676.53 225.00 L 676.69 234.00 L 676.87 243.00 L 677.05 252.00 L 677.26 261.00 L 677.49 270.00 L 677.72 279.00 L 677.96 288.00 L 678.23 297.00 L 678.51 306.00 L 678.80 315.00 L 679.08 324.00 L 679.39 333.00 L 679.69 342.00 L 680.00 351.00 L 680.32 360.00 L 680.62 369.00 L 680.85 378.00 L 681.10 387.00 L 681.36 396.00 L 681.58 405.00 L 681.82 414.00 L 681.95 423.00 L 682.07 432.00 L 682.24 441.00 L 682.30 450.00 L 682.32 459.00 L 682.35 468.00 L 682.28 477.00 L 682.25 486.00 L 682.18 495.00 L 682.01 504.00 L 681.92 513.00 L 681.67 522.00 L 681.46 531.00 L 681.27 540.00 L 681.02 549.00 L 680.76 558.00 L 680.51 567.00 L 680.21 576.00 L 679.89 585.00 L 679.60 594.00 L 679.28 603.00 L 678.98 612.00 L 679.55 621.00 L 683.27 630.00 L 688.94 639.00 L 695.19 648.00 L 700.96 657.00 L 703.47 666.00 L 703.22 675.00 L 703.16 684.00 L 703.78 693.00 L 702.97 702.00 L 702.50 711.00 L 702.05 720.00 L 701.44 729.00 L 702.04 738.00 L 700.77 747.00 L 701.09 756.00 L 700.17 765.00 L 699.74 774.00 L 699.11 783.00 L 698.84 792.00 L 697.69 801.00 L 697.88 810.00 L 697.34 819.00 L 697.06 828.00 L 696.04 837.00 L 696.96 846.00 L 696.19 855.00 L 695.45 864.00 L 696.35 873.00 L 695.68 882.00 L 696.22 891.00 L 696.69 900.00 Z M 732.30 900.00 L 732.30 891.00 L 732.30 882.00 L 732.30 873.00 L 732.30 864.00 L 732.30 855.00 L 732.30 846.00 L 732.30 837.00 L 732.29 828.00 L 732.29 819.00 L 732.29 810.00 L 732.29 801.00 L 732.28 792.00 L 732.27 783.00 L 732.27 774.00 L 732.26 765.00 L 732.25 756.00 L 732.23 747.00 L 732.22 738.00 L 732.20 729.00 L 732.18 720.00 L 732.15 711.00 L 732.12 702.00 L 732.08 693.00 L 732.04 684.00 L 732.00 675.00 L 731.94 666.00 L 731.88 657.00 L 731.81 648.00 L 731.73 639.00 L 731.64 630.00 L 731.54 621.00 L 731.43 612.00 L 731.31 603.00 L 731.18 594.00 L 731.04 585.00 L 730.88 576.00 L 730.73 567.00 L 730.56 558.00 L 730.38 549.00 L 730.18 540.00 L 729.98 531.00 L 729.78 522.00 L 729.58 513.00 L 729.36 504.00 L 729.15 495.00 L 728.92 486.00 L 728.68 477.00 L 728.49 468.00 L 728.23 459.00 L 728.01 450.00 L 727.80 441.00 L 727.65 432.00 L 727.46 423.00 L 727.24 414.00 L 726.98 405.00 L 726.85 396.00 L 726.68 387.00 L 726.57 378.00 L 726.34 369.00 L 726.25 360.00 L 726.15 351.00 L 726.07 342.00 L 726.04 333.00 L 726.05 324.00 L 726.19 315.00 L 726.27 306.00 L 726.40 297.00 L 726.45 288.00 L 726.67 279.00 L 726.80 270.00 L 727.09 261.00 L 727.33 252.00 L 727.60 243.00 L 727.82 234.00 L 728.08 225.00 L 728.39 216.00 L 728.67 207.00 L 728.95 198.00 L 729.20 189.00 L 729.48 180.00 L 729.73 171.00 L 729.98 162.00 L 730.21 153.00 L 730.43 144.00 L 730.63 135.00 L 730.82 126.00 L 730.99 117.00 L 731.15 108.00 L 731.30 99.00 L 731.43 90.00 L 731.55 81.00 L 731.66 72.00 L 731.75 63.00 L 731.83 54.00 L 731.90 45.00 L 731.97 36.00 L 732.02 27.00 L 732.07 18.00 L 732.11 9.00 L 732.14 0.00 L 739.84 0.00 L 739.86 9.00 L 739.89 18.00 L 739.93 27.00 L 739.97 36.00 L 740.02 45.00 L 740.07 54.00 L 740.13 63.00 L 740.20 72.00 L 740.27 81.00 L 740.36 90.00 L 740.45 99.00 L 740.55 108.00 L 740.66 117.00 L 740.78 126.00 L 740.91 135.00 L 741.06 144.00 L 741.22 153.00 L 741.39 162.00 L 741.58 171.00 L 741.77 180.00 L 741.99 189.00 L 742.19 198.00 L 742.43 207.00 L 742.66 216.00 L 742.94 225.00 L 743.18 234.00 L 743.39 243.00 L 743.67 252.00 L 743.92 261.00 L 744.23 270.00 L 744.41 279.00 L 744.67 288.00 L 744.78 297.00 L 744.98 306.00 L 745.13 315.00 L 745.35 324.00 L 745.44 333.00 L 745.51 342.00 L 745.50 351.00 L 745.49 360.00 L 745.47 369.00 L 745.32 378.00 L 745.27 387.00 L 745.15 396.00 L 745.08 405.00 L 744.85 414.00 L 744.65 423.00 L 744.48 432.00 L 744.34 441.00 L 744.13 450.00 L 743.90 459.00 L 743.62 468.00 L 743.41 477.00 L 743.15 486.00 L 742.90 495.00 L 742.66 504.00 L 742.41 513.00 L 742.19 522.00 L 741.97 531.00 L 741.75 540.00 L 741.53 549.00 L 741.33 558.00 L 741.15 567.00 L 740.99 576.00 L 740.83 585.00 L 740.69 594.00 L 740.56 603.00 L 740.44 612.00 L 740.34 621.00 L 740.25 630.00 L 740.17 639.00 L 740.09 648.00 L 740.03 657.00 L 739.98 666.00 L 739.93 675.00 L 739.89 684.00 L 739.86 693.00 L 739.83 702.00 L 739.81 711.00 L 739.79 720.00 L 739.77 729.00 L 739.76 738.00 L 739.75 747.00 L 739.74 756.00 L 739.73 765.00 L 739.72 774.00 L 739.72 783.00 L 739.71 792.00 L 739.71 801.00 L 739.71 810.00 L 739.70 819.00 L 739.70 828.00 L 739.70 837.00 L 739.70 846.00 L 739.70 855.00 L 739.70 864.00 L 739.70 873.00 L 739.70 882.00 L 739.70 891.00 L 739.70 900.00 Z" fill="#11100e"/>
</svg>
