<?xml version="1.0" encoding="UTF-8"?>
<svg xmlns="http://www.w3.org/2000/svg" viewBox="0 0 1088 900" role="img" aria-label="Varythm œ">
  <rect width="1088" height="900" fill="#f0eee7"/>
  <path d="M 27.88 900.00 L 27.76 891.00 L 27.63 882.00 L 27.50 873.00 L 27.36 864.00 L 27.22 855.00 L 27.06 846.00 L 26.91 837.00 L 26.74 828.00 L 26.58 819.00 L 26.41 810.00 L 26.24 801.00 L 26.07 792.00 L 25.90 783.00 L 25.73 774.00 L 25.55 765.00 L 25.39 756.00 L 25.22 747.00 L 25.08 738.00 L 24.97 729.00 L 24.84 720.00 L 24.68 711.00 L 24.60 702.00 L 24.47 693.00 L 24.43 684.00 L 24.35 675.00 L 24.30 666.00 L 24.25 657.00 L 24.24 648.00 L 24.26 639.00 L 24.17 630.00 L 24.22 621.00 L 24.23 612.00 L 24.32 603.00 L 24.27 594.00 L 24.32 585.00 L 24.43 576.00 L 24.51 567.00 L 24.53 558.00 L 24.61 549.00 L 24.72 540.00 L 24.82 531.00 L 24.94 522.00 L 25.07 513.00 L 25.15 504.00 L 25.32 495.00 L 25.46 486.00 L 25.61 477.00 L 25.75 468.00 L 25.90 459.00 L 26.08 450.00 L 26.24 441.00 L 26.40 432.00 L 26.58 423.00 L 26.74 414.00 L 26.90 405.00 L 27.07 396.00 L 27.22 387.00 L 27.37 378.00 L 27.52 369.00 L 27.65 360.00 L 27.78 351.00 L 27.91 342.00 L 28.02 333.00 L 28.13 324.00 L 28.22 315.00 L 28.32 306.00 L 28.40 297.00 L 28.47 288.00 L 28.54 279.00 L 28.60 270.00 L 28.66 261.00 L 28.71 252.00 L 28.75 243.00 L 28.79 234.00 L 28.83 225.00 L 28.86 216.00 L 28.88 207.00 L 28.91 198.00 L 28.93 189.00 L 28.95 180.00 L 28.96 171.00 L 28.97 162.00 L 28.98 153.00 L 28.99 144.00 L 29.00 135.00 L 29.01 126.00 L 29.01 117.00 L 29.02 108.00 L 29.02 99.00 L 29.02 90.00 L 29.03 81.00 L 29.03 72.00 L 29.03 63.00 L 29.03 54.00 L 29.03 45.00 L 29.04 36.00 L 29.04 27.00 L 29.04 18.00 L 29.04 9.00 L 29.04 0.00 L 34.96 0.00 L 34.96 9.00 L 34.96 18.00 L 34.96 27.00 L 34.96 36.00 L 34.97 45.00 L 34.97 54.00 L 34.97 63.00 L 34.97 72.00 L 34.97 81.00 L 34.97 90.00 L 34.98 99.00 L 34.98 108.00 L 34.99 117.00 L 34.99 126.00 L 35.00 135.00 L 35.00 144.00 L 35.01 153.00 L 35.02 162.00 L 35.03 171.00 L 35.04 180.00 L 35.05 189.00 L 35.07 198.00 L 35.09 207.00 L 35.11 216.00 L 35.13 225.00 L 35.15 234.00 L 35.18 243.00 L 35.21 252.00 L 35.24 261.00 L 35.28 270.00 L 35.33 279.00 L 35.37 288.00 L 35.42 297.00 L 35.48 306.00 L 35.54 315.00 L 35.61 324.00 L 35.68 333.00 L 35.77 342.00 L 35.86 351.00 L 35.95 360.00 L 36.05 369.00 L 36.16 378.00 L 36.29 387.00 L 36.41 396.00 L 36.55 405.00 L 36.68 414.00 L 36.82 423.00 L 36.99 432.00 L 37.13 441.00 L 37.28 450.00 L 37.47 459.00 L 37.62 468.00 L 37.78 477.00 L 37.94 486.00 L 38.11 495.00 L 38.31 504.00 L 38.42 513.00 L 38.59 522.00 L 38.75 531.00 L 38.90 540.00 L 39.05 549.00 L 39.17 558.00 L 39.24 567.00 L 39.36 576.00 L 39.50 585.00 L 39.60 594.00 L 39.58 603.00 L 39.69 612.00 L 39.72 621.00 L 39.77 630.00 L 39.69 639.00 L 39.71 648.00 L 39.69 657.00 L 39.62 666.00 L 39.55 675.00 L 39.45 684.00 L 39.38 693.00 L 39.21 702.00 L 39.09 711.00 L 38.90 720.00 L 38.73 729.00 L 38.59 738.00 L 38.41 747.00 L 38.21 756.00 L 38.02 765.00 L 37.82 774.00 L 37.64 783.00 L 37.45 792.00 L 37.27 801.00 L 37.10 810.00 L 36.92 819.00 L 36.77 828.00 L 36.61 837.00 L 36.47 846.00 L 36.33 855.00 L 36.21 864.00 L 36.10 873.00 L 35.99 882.00 L 35.89 891.00 L 35.80 900.00 Z M 91.95 900.00 L 91.92 891.00 L 91.88 882.00 L 91.84 873.00 L 91.79 864.00 L 91.74 855.00 L 91.68 846.00 L 91.62 837.00 L 91.56 828.00 L 91.49 819.00 L 91.41 810.00 L 91.33 801.00 L 91.25 792.00 L 91.16 783.00 L 90.77 774.00 L 86.59 765.00 L 81.33 756.00 L 76.48 747.00 L 74.34 738.00 L 73.89 729.00 L 73.93 720.00 L 73.13 711.00 L 73.03 702.00 L 72.98 693.00 L 73.25 684.00 L 72.32 675.00 L 72.79 666.00 L 71.85 657.00 L 71.67 648.00 L 71.33 639.00 L 71.72 630.00 L 71.66 621.00 L 72.35 612.00 L 71.75 603.00 L 71.74 594.00 L 73.10 585.00 L 72.95 576.00 L 73.76 567.00 L 74.17 558.00 L 73.76 549.00 L 75.13 540.00 L 75.04 531.00 L 76.48 522.00 L 75.28 513.00 L 75.90 504.00 L 77.41 495.00 L 77.72 486.00 L 76.97 477.00 L 76.47 468.00 L 77.34 459.00 L 78.10 450.00 L 77.93 441.00 L 76.41 432.00 L 77.30 423.00 L 77.11 414.00 L 76.46 405.00 L 75.78 396.00 L 76.01 387.00 L 75.02 378.00 L 74.08 369.00 L 73.31 360.00 L 71.97 351.00 L 72.75 342.00 L 72.37 333.00 L 71.33 324.00 L 71.65 315.00 L 69.94 306.00 L 69.16 297.00 L 68.73 288.00 L 69.92 279.00 L 68.89 270.00 L 68.78 261.00 L 70.01 252.00 L 70.39 243.00 L 69.05 234.00 L 69.90 225.00 L 70.01 216.00 L 72.82 207.00 L 77.52 198.00 L 83.21 189.00 L 87.19 180.00 L 87.61 171.00 L 87.80 162.00 L 88.06 153.00 L 88.19 144.00 L 88.39 135.00 L 88.62 126.00 L 88.80 117.00 L 88.97 108.00 L 89.16 99.00 L 89.34 90.00 L 89.49 81.00 L 89.68 72.00 L 89.84 63.00 L 90.00 54.00 L 90.14 45.00 L 90.30 36.00 L 90.42 27.00 L 90.57 18.00 L 90.69 9.00 L 90.81 0.00 L 101.61 0.00 L 101.73 9.00 L 101.86 18.00 L 102.00 27.00 L 102.12 36.00 L 102.27 45.00 L 102.41 54.00 L 102.55 63.00 L 102.71 72.00 L 102.88 81.00 L 103.03 90.00 L 103.19 99.00 L 103.38 108.00 L 103.54 117.00 L 103.72 126.00 L 103.94 135.00 L 104.15 144.00 L 104.30 153.00 L 104.57 162.00 L 104.78 171.00 L 105.27 180.00 L 109.65 189.00 L 115.95 198.00 L 121.24 207.00 L 124.46 216.00 L 124.80 225.00 L 125.92 234.00 L 124.86 243.00 L 125.55 252.00 L 127.11 261.00 L 127.34 270.00 L 126.66 279.00 L 128.22 288.00 L 128.17 297.00 L 127.75 306.00 L 126.42 315.00 L 127.11 324.00 L 126.43 333.00 L 126.40 342.00 L 127.51 351.00 L 126.49 360.00 L 126.00 369.00 L 125.33 378.00 L 124.58 387.00 L 125.03 396.00 L 124.52 405.00 L 124.02 414.00 L 123.93 423.00 L 124.90 432.00 L 123.42 441.00 L 123.24 450.00 L 123.97 459.00 L 124.77 468.00 L 124.16 477.00 L 123.27 486.00 L 123.40 495.00 L 124.71 504.00 L 125.10 513.00 L 123.64 522.00 L 124.79 531.00 L 124.40 540.00 L 125.46 549.00 L 124.71 558.00 L 124.78 567.00 L 125.23 576.00 L 124.72 585.00 L 125.73 594.00 L 125.36 603.00 L 124.39 612.00 L 124.74 621.00 L 124.34 630.00 L 124.40 639.00 L 123.75 648.00 L 123.28 657.00 L 122.06 666.00 L 122.28 675.00 L 121.12 684.00 L 121.18 693.00 L 120.95 702.00 L 120.70 711.00 L 119.77 720.00 L 119.71 729.00 L 119.19 738.00 L 116.85 747.00 L 111.62 756.00 L 105.90 765.00 L 101.36 774.00 L 100.94 783.00 L 100.85 792.00 L 100.77 801.00 L 100.69 810.00 L 100.61 819.00 L 100.54 828.00 L 100.48 837.00 L 100.41 846.00 L 100.36 855.00 L 100.30 864.00 L 100.26 873.00 L 100.21 882.00 L 100.17 891.00 L 100.13 900.00 Z M 155.65 900.00 L 155.58 891.00 L 155.50 882.00 L 155.42 873.00 L 155.33 864.00 L 155.13 855.00 L 148.95 846.00 L 140.82 837.00 L 139.27 828.00 L 138.09 819.00 L 139.35 810.00 L 139.15 801.00 L 139.62 792.00 L 139.76 783.00 L 138.87 774.00 L 139.80 765.00 L 139.06 756.00 L 139.30 747.00 L 139.42 738.00 L 139.72 729.00 L 139.74 720.00 L 138.82 711.00 L 139.45 702.00 L 138.36 693.00 L 138.12 684.00 L 138.49 675.00 L 138.41 666.00 L 136.95 657.00 L 137.42 648.00 L 136.24 639.00 L 137.09 630.00 L 135.16 621.00 L 135.23 612.00 L 135.09 603.00 L 133.64 594.00 L 133.95 585.00 L 134.04 576.00 L 132.84 567.00 L 132.06 558.00 L 133.08 549.00 L 132.17 540.00 L 132.82 531.00 L 132.04 522.00 L 131.61 513.00 L 131.99 504.00 L 132.75 495.00 L 133.44 486.00 L 133.10 477.00 L 133.73 468.00 L 134.47 459.00 L 135.14 450.00 L 136.07 441.00 L 136.04 432.00 L 136.09 423.00 L 136.77 414.00 L 138.06 405.00 L 138.51 396.00 L 138.92 387.00 L 138.85 378.00 L 139.36 369.00 L 141.06 360.00 L 140.13 351.00 L 140.65 342.00 L 140.94 333.00 L 140.90 324.00 L 141.64 315.00 L 141.23 306.00 L 141.23 297.00 L 142.10 288.00 L 141.59 279.00 L 141.67 270.00 L 140.55 261.00 L 140.34 252.00 L 140.13 243.00 L 140.19 234.00 L 139.74 225.00 L 139.97 216.00 L 139.82 207.00 L 139.82 198.00 L 139.08 189.00 L 138.60 180.00 L 139.38 171.00 L 138.52 162.00 L 137.97 153.00 L 138.69 144.00 L 138.11 135.00 L 138.90 126.00 L 140.52 117.00 L 149.57 108.00 L 156.08 99.00 L 156.19 90.00 L 156.20 81.00 L 156.21 72.00 L 156.21 63.00 L 156.22 54.00 L 156.22 45.00 L 156.23 36.00 L 156.23 27.00 L 156.23 18.00 L 156.24 9.00 L 156.24 0.00 L 163.76 0.00 L 163.76 9.00 L 163.76 18.00 L 163.77 27.00 L 163.77 36.00 L 163.77 45.00 L 163.78 54.00 L 163.78 63.00 L 163.79 72.00 L 163.80 81.00 L 163.81 90.00 L 163.92 99.00 L 170.57 108.00 L 180.03 117.00 L 181.99 126.00 L 183.04 135.00 L 182.71 144.00 L 183.66 153.00 L 183.33 162.00 L 182.68 171.00 L 183.66 180.00 L 183.34 189.00 L 182.76 198.00 L 182.89 207.00 L 182.85 216.00 L 183.16 225.00 L 182.78 234.00 L 182.88 243.00 L 182.68 252.00 L 182.46 261.00 L 181.30 270.00 L 181.31 279.00 L 180.71 288.00 L 181.46 297.00 L 181.33 306.00 L 180.76 315.00 L 181.32 324.00 L 181.07 333.00 L 181.14 342.00 L 181.43 351.00 L 180.24 360.00 L 181.67 369.00 L 181.90 378.00 L 181.54 387.00 L 181.65 396.00 L 181.80 405.00 L 182.78 414.00 L 183.16 423.00 L 182.91 432.00 L 182.58 441.00 L 183.23 450.00 L 183.62 459.00 L 184.11 468.00 L 184.50 477.00 L 183.94 486.00 L 184.43 495.00 L 185.03 504.00 L 185.27 513.00 L 184.72 522.00 L 183.85 531.00 L 184.45 540.00 L 183.52 549.00 L 184.56 558.00 L 183.83 567.00 L 182.70 576.00 L 182.90 585.00 L 183.35 594.00 L 182.07 603.00 L 182.12 612.00 L 182.42 621.00 L 180.73 630.00 L 181.84 639.00 L 180.94 648.00 L 181.70 657.00 L 180.55 666.00 L 180.77 675.00 L 181.46 684.00 L 181.53 693.00 L 180.76 702.00 L 181.69 711.00 L 181.07 720.00 L 181.38 729.00 L 181.95 738.00 L 182.34 747.00 L 182.82 756.00 L 182.31 765.00 L 183.44 774.00 L 182.73 783.00 L 183.03 792.00 L 183.64 801.00 L 183.54 810.00 L 184.89 819.00 L 183.77 828.00 L 181.92 837.00 L 172.39 846.00 L 165.09 855.00 L 164.85 864.00 L 164.73 873.00 L 164.63 882.00 L 164.53 891.00 L 164.44 900.00 Z M 216.03 900.00 L 203.20 891.00 L 197.25 882.00 L 197.07 873.00 L 197.46 864.00 L 197.33 855.00 L 198.07 846.00 L 198.16 837.00 L 197.82 828.00 L 198.15 819.00 L 197.78 810.00 L 197.93 801.00 L 198.55 792.00 L 197.75 783.00 L 197.01 774.00 L 197.27 765.00 L 197.11 756.00 L 196.51 747.00 L 197.27 738.00 L 196.30 729.00 L 196.22 720.00 L 196.77 711.00 L 195.50 702.00 L 195.55 693.00 L 194.19 684.00 L 193.12 675.00 L 193.13 666.00 L 192.35 657.00 L 192.15 648.00 L 192.56 639.00 L 190.59 630.00 L 190.79 621.00 L 190.90 612.00 L 189.99 603.00 L 189.80 594.00 L 189.86 585.00 L 190.55 576.00 L 191.51 567.00 L 195.03 558.00 L 199.31 549.00 L 201.34 540.00 L 203.62 531.00 L 204.99 522.00 L 206.41 513.00 L 208.28 504.00 L 209.44 495.00 L 210.92 486.00 L 212.16 477.00 L 211.64 468.00 L 210.93 459.00 L 210.15 450.00 L 209.34 441.00 L 208.89 432.00 L 207.91 423.00 L 206.99 414.00 L 205.92 405.00 L 204.01 396.00 L 201.78 387.00 L 200.02 378.00 L 200.45 369.00 L 201.01 360.00 L 200.12 351.00 L 200.07 342.00 L 200.80 333.00 L 200.01 324.00 L 199.45 315.00 L 200.28 306.00 L 199.54 297.00 L 198.69 288.00 L 198.81 279.00 L 199.01 270.00 L 198.37 261.00 L 198.20 252.00 L 197.14 243.00 L 197.28 234.00 L 197.25 225.00 L 197.06 216.00 L 196.57 207.00 L 196.44 198.00 L 196.13 189.00 L 197.18 180.00 L 196.05 171.00 L 196.71 162.00 L 197.30 153.00 L 197.60 144.00 L 196.75 135.00 L 197.37 126.00 L 197.04 117.00 L 198.42 108.00 L 198.43 99.00 L 198.26 90.00 L 198.36 81.00 L 199.07 72.00 L 204.42 63.00 L 217.19 54.00 L 220.72 45.00 L 220.73 36.00 L 220.73 27.00 L 220.74 18.00 L 220.75 9.00 L 220.75 0.00 L 227.24 0.00 L 227.24 9.00 L 227.25 18.00 L 227.25 27.00 L 227.25 36.00 L 227.26 45.00 L 229.40 54.00 L 236.87 63.00 L 239.96 72.00 L 240.78 81.00 L 241.02 90.00 L 241.00 99.00 L 241.20 108.00 L 242.77 117.00 L 242.66 126.00 L 243.52 135.00 L 242.92 144.00 L 243.47 153.00 L 244.34 162.00 L 245.28 171.00 L 244.43 180.00 L 245.76 189.00 L 245.74 198.00 L 245.89 207.00 L 245.68 216.00 L 245.76 225.00 L 245.99 234.00 L 246.37 243.00 L 245.54 252.00 L 245.59 261.00 L 245.15 270.00 L 245.52 279.00 L 245.79 288.00 L 245.07 297.00 L 244.43 306.00 L 245.33 315.00 L 244.82 324.00 L 244.04 333.00 L 244.75 342.00 L 244.67 351.00 L 243.70 360.00 L 244.15 369.00 L 244.48 378.00 L 242.79 387.00 L 240.81 396.00 L 239.29 405.00 L 238.33 414.00 L 237.46 423.00 L 236.53 432.00 L 236.14 441.00 L 235.39 450.00 L 234.68 459.00 L 234.05 468.00 L 233.60 477.00 L 234.42 486.00 L 235.43 495.00 L 236.07 504.00 L 237.39 513.00 L 238.22 522.00 L 238.97 531.00 L 240.62 540.00 L 241.86 549.00 L 244.70 558.00 L 247.01 567.00 L 247.18 576.00 L 247.60 585.00 L 247.48 594.00 L 247.14 603.00 L 246.12 612.00 L 246.16 621.00 L 246.33 630.00 L 244.36 639.00 L 244.82 648.00 L 244.70 657.00 L 244.03 666.00 L 244.20 675.00 L 243.31 684.00 L 242.16 693.00 L 242.47 702.00 L 241.47 711.00 L 242.31 720.00 L 242.55 729.00 L 241.92 738.00 L 243.01 747.00 L 242.77 756.00 L 242.98 765.00 L 243.61 774.00 L 243.24 783.00 L 242.81 792.00 L 243.79 801.00 L 244.30 810.00 L 244.27 819.00 L 244.93 828.00 L 244.90 837.00 L 245.28 846.00 L 246.30 855.00 L 246.42 864.00 L 247.04 873.00 L 247.07 882.00 L 242.13 891.00 L 231.24 900.00 Z M 284.71 900.00 L 284.70 891.00 L 284.70 882.00 L 284.69 873.00 L 284.68 864.00 L 284.67 855.00 L 284.66 846.00 L 284.65 837.00 L 284.63 828.00 L 284.61 819.00 L 284.58 810.00 L 284.55 801.00 L 284.52 792.00 L 284.48 783.00 L 284.43 774.00 L 284.37 765.00 L 284.31 756.00 L 284.23 747.00 L 284.14 738.00 L 284.05 729.00 L 283.94 720.00 L 283.81 711.00 L 283.68 702.00 L 283.53 693.00 L 283.36 684.00 L 283.17 675.00 L 282.98 666.00 L 282.77 657.00 L 282.54 648.00 L 282.29 639.00 L 282.05 630.00 L 281.79 621.00 L 281.50 612.00 L 281.23 603.00 L 280.94 594.00 L 280.63 585.00 L 280.38 576.00 L 280.12 567.00 L 279.84 558.00 L 279.60 549.00 L 279.35 540.00 L 279.18 531.00 L 278.98 522.00 L 278.86 513.00 L 278.78 504.00 L 278.65 495.00 L 278.56 486.00 L 278.62 477.00 L 278.57 468.00 L 278.61 459.00 L 278.68 450.00 L 278.74 441.00 L 278.90 432.00 L 279.05 423.00 L 279.20 414.00 L 279.25 405.00 L 279.42 396.00 L 279.61 387.00 L 279.85 378.00 L 280.05 369.00 L 280.21 360.00 L 280.43 351.00 L 280.65 342.00 L 280.84 333.00 L 281.03 324.00 L 281.27 315.00 L 281.47 306.00 L 281.71 297.00 L 281.94 288.00 L 282.14 279.00 L 282.36 270.00 L 282.55 261.00 L 282.76 252.00 L 282.94 243.00 L 283.12 234.00 L 283.29 225.00 L 283.44 216.00 L 283.59 207.00 L 283.72 198.00 L 283.84 189.00 L 283.95 180.00 L 284.05 171.00 L 284.14 162.00 L 284.22 153.00 L 284.29 144.00 L 284.35 135.00 L 284.41 126.00 L 284.46 117.00 L 284.50 108.00 L 284.54 99.00 L 284.57 90.00 L 284.59 81.00 L 284.62 72.00 L 284.64 63.00 L 284.65 54.00 L 284.67 45.00 L 284.68 36.00 L 284.68 27.00 L 284.69 18.00 L 284.70 9.00 L 284.70 0.00 L 291.30 0.00 L 291.30 9.00 L 291.31 18.00 L 291.31 27.00 L 291.32 36.00 L 291.33 45.00 L 291.34 54.00 L 291.36 63.00 L 291.37 72.00 L 291.39 81.00 L 291.42 90.00 L 291.45 99.00 L 291.48 108.00 L 291.53 117.00 L 291.57 126.00 L 291.63 135.00 L 291.70 144.00 L 291.77 153.00 L 291.86 162.00 L 291.96 171.00 L 292.07 180.00 L 292.20 189.00 L 292.34 198.00 L 292.50 207.00 L 292.68 216.00 L 292.88 225.00 L 293.09 234.00 L 293.31 243.00 L 293.56 252.00 L 293.83 261.00 L 294.09 270.00 L 294.38 279.00 L 294.66 288.00 L 294.97 297.00 L 295.30 306.00 L 295.59 315.00 L 295.91 324.00 L 296.17 333.00 L 296.43 342.00 L 296.72 351.00 L 296.99 360.00 L 297.18 369.00 L 297.41 378.00 L 297.67 387.00 L 297.86 396.00 L 298.01 405.00 L 298.03 414.00 L 298.13 423.00 L 298.22 432.00 L 298.31 441.00 L 298.28 450.00 L 298.26 459.00 L 298.19 468.00 L 298.03 477.00 L 297.99 486.00 L 297.79 495.00 L 297.55 504.00 L 297.37 513.00 L 297.15 522.00 L 296.87 531.00 L 296.62 540.00 L 296.30 549.00 L 296.01 558.00 L 295.68 567.00 L 295.38 576.00 L 295.11 585.00 L 294.78 594.00 L 294.49 603.00 L 294.23 612.00 L 293.94 621.00 L 293.69 630.00 L 293.48 639.00 L 293.25 648.00 L 293.04 657.00 L 292.85 666.00 L 292.68 675.00 L 292.52 684.00 L 292.38 693.00 L 292.24 702.00 L 292.13 711.00 L 292.02 720.00 L 291.92 729.00 L 291.83 738.00 L 291.76 747.00 L 291.69 756.00 L 291.63 765.00 L 291.58 774.00 L 291.53 783.00 L 291.49 792.00 L 291.46 801.00 L 291.43 810.00 L 291.40 819.00 L 291.38 828.00 L 291.36 837.00 L 291.35 846.00 L 291.33 855.00 L 291.32 864.00 L 291.32 873.00 L 291.31 882.00 L 291.30 891.00 L 291.30 900.00 Z M 328.37 900.00 L 329.48 891.00 L 329.13 882.00 L 328.57 873.00 L 329.25 864.00 L 328.69 855.00 L 328.82 846.00 L 327.89 837.00 L 328.13 828.00 L 327.91 819.00 L 328.43 810.00 L 327.94 801.00 L 327.97 792.00 L 327.44 783.00 L 326.91 774.00 L 326.63 765.00 L 326.55 756.00 L 326.63 747.00 L 337.60 738.00 L 348.60 729.00 L 348.61 720.00 L 348.59 711.00 L 348.56 702.00 L 348.54 693.00 L 348.51 684.00 L 348.47 675.00 L 348.43 666.00 L 348.39 657.00 L 348.34 648.00 L 348.28 639.00 L 348.21 630.00 L 348.14 621.00 L 348.06 612.00 L 347.97 603.00 L 347.87 594.00 L 347.75 585.00 L 347.63 576.00 L 347.49 567.00 L 347.35 558.00 L 347.19 549.00 L 347.01 540.00 L 346.82 531.00 L 346.62 522.00 L 346.41 513.00 L 346.17 504.00 L 345.92 495.00 L 345.67 486.00 L 345.36 477.00 L 345.10 468.00 L 344.77 459.00 L 344.47 450.00 L 344.11 441.00 L 343.73 432.00 L 343.44 423.00 L 343.05 414.00 L 342.77 405.00 L 342.40 396.00 L 342.05 387.00 L 341.74 378.00 L 341.35 369.00 L 341.14 360.00 L 340.80 351.00 L 340.70 342.00 L 340.56 333.00 L 340.34 324.00 L 340.21 315.00 L 340.20 306.00 L 340.16 297.00 L 340.15 288.00 L 340.21 279.00 L 340.44 270.00 L 340.43 261.00 L 340.59 252.00 L 340.85 243.00 L 341.17 234.00 L 341.40 225.00 L 332.03 216.00 L 325.83 207.00 L 325.52 198.00 L 325.43 189.00 L 325.78 180.00 L 326.88 171.00 L 327.76 162.00 L 327.73 153.00 L 327.94 144.00 L 328.16 135.00 L 328.45 126.00 L 328.31 117.00 L 327.35 108.00 L 328.21 99.00 L 327.12 90.00 L 328.21 81.00 L 327.32 72.00 L 327.57 63.00 L 327.30 54.00 L 327.83 45.00 L 327.58 36.00 L 331.36 27.00 L 344.98 18.00 L 347.60 9.00 L 347.73 0.00 L 356.27 0.00 L 356.39 9.00 L 358.98 18.00 L 372.33 27.00 L 375.89 36.00 L 375.47 45.00 L 375.80 54.00 L 375.29 63.00 L 375.30 72.00 L 374.13 81.00 L 374.93 90.00 L 373.53 99.00 L 374.06 108.00 L 372.77 117.00 L 372.28 126.00 L 372.22 135.00 L 372.08 144.00 L 371.93 153.00 L 371.53 162.00 L 372.06 171.00 L 372.81 180.00 L 372.83 189.00 L 372.43 198.00 L 371.82 207.00 L 367.58 216.00 L 360.63 225.00 L 360.77 234.00 L 360.99 243.00 L 361.17 252.00 L 361.26 261.00 L 361.21 270.00 L 361.41 279.00 L 361.47 288.00 L 361.47 297.00 L 361.47 306.00 L 361.51 315.00 L 361.44 324.00 L 361.31 333.00 L 361.27 342.00 L 361.28 351.00 L 361.06 360.00 L 360.98 369.00 L 360.72 378.00 L 360.54 387.00 L 360.34 396.00 L 360.10 405.00 L 359.95 414.00 L 359.69 423.00 L 359.51 432.00 L 359.25 441.00 L 358.99 450.00 L 358.78 459.00 L 358.54 468.00 L 358.34 477.00 L 358.10 486.00 L 357.90 495.00 L 357.70 504.00 L 357.49 513.00 L 357.32 522.00 L 357.13 531.00 L 356.96 540.00 L 356.80 549.00 L 356.64 558.00 L 356.50 567.00 L 356.37 576.00 L 356.25 585.00 L 356.13 594.00 L 356.03 603.00 L 355.94 612.00 L 355.85 621.00 L 355.78 630.00 L 355.71 639.00 L 355.65 648.00 L 355.60 657.00 L 355.55 666.00 L 355.51 675.00 L 355.48 684.00 L 355.45 693.00 L 355.42 702.00 L 355.40 711.00 L 355.38 720.00 L 355.39 729.00 L 364.65 738.00 L 373.81 747.00 L 373.61 756.00 L 373.26 765.00 L 372.71 774.00 L 371.92 783.00 L 371.15 792.00 L 370.96 801.00 L 370.26 810.00 L 370.60 819.00 L 370.21 828.00 L 370.31 837.00 L 369.26 846.00 L 369.30 855.00 L 368.68 864.00 L 369.32 873.00 L 368.74 882.00 L 368.41 891.00 L 369.56 900.00 Z M 397.43 900.00 L 398.30 891.00 L 397.76 882.00 L 397.14 873.00 L 397.39 864.00 L 397.26 855.00 L 397.76 846.00 L 398.01 837.00 L 398.15 828.00 L 397.34 819.00 L 397.21 810.00 L 398.59 801.00 L 398.35 792.00 L 398.00 783.00 L 397.97 774.00 L 398.18 765.00 L 398.99 756.00 L 398.94 747.00 L 399.10 738.00 L 398.46 729.00 L 401.48 720.00 L 407.54 711.00 L 410.60 702.00 L 410.43 693.00 L 410.27 684.00 L 410.10 675.00 L 409.94 666.00 L 409.77 657.00 L 409.56 648.00 L 409.37 639.00 L 409.21 630.00 L 408.97 621.00 L 408.73 612.00 L 408.62 603.00 L 408.41 594.00 L 408.21 585.00 L 408.00 576.00 L 407.81 567.00 L 407.55 558.00 L 407.44 549.00 L 407.27 540.00 L 407.12 531.00 L 406.98 522.00 L 407.02 513.00 L 406.94 504.00 L 406.84 495.00 L 406.82 486.00 L 406.88 477.00 L 406.82 468.00 L 406.95 459.00 L 406.99 450.00 L 407.03 441.00 L 407.15 432.00 L 407.34 423.00 L 407.49 414.00 L 407.62 405.00 L 407.76 396.00 L 408.00 387.00 L 408.17 378.00 L 408.34 369.00 L 408.58 360.00 L 408.75 351.00 L 408.85 342.00 L 409.11 333.00 L 409.20 324.00 L 409.38 315.00 L 409.54 306.00 L 409.70 297.00 L 409.89 288.00 L 410.02 279.00 L 410.19 270.00 L 410.30 261.00 L 410.47 252.00 L 407.46 243.00 L 401.09 234.00 L 398.00 225.00 L 398.70 216.00 L 398.23 207.00 L 398.55 198.00 L 397.93 189.00 L 396.87 180.00 L 397.40 171.00 L 396.50 162.00 L 396.34 153.00 L 396.76 144.00 L 396.77 135.00 L 396.49 126.00 L 397.31 117.00 L 396.28 108.00 L 396.62 99.00 L 397.44 90.00 L 396.83 81.00 L 397.58 72.00 L 397.96 63.00 L 397.43 54.00 L 397.19 45.00 L 398.43 36.00 L 404.32 27.00 L 412.51 18.00 L 412.69 9.00 L 412.72 0.00 L 419.35 0.00 L 419.40 9.00 L 419.63 18.00 L 430.42 27.00 L 438.61 36.00 L 440.13 45.00 L 440.17 54.00 L 439.93 63.00 L 440.60 72.00 L 441.64 81.00 L 441.33 90.00 L 442.43 99.00 L 443.06 108.00 L 442.31 117.00 L 443.40 126.00 L 443.38 135.00 L 443.64 144.00 L 444.28 153.00 L 444.33 162.00 L 443.62 171.00 L 444.33 180.00 L 443.42 189.00 L 442.92 198.00 L 443.34 207.00 L 442.94 216.00 L 443.70 225.00 L 439.15 234.00 L 428.28 243.00 L 423.20 252.00 L 423.44 261.00 L 423.61 270.00 L 423.84 279.00 L 424.02 288.00 L 424.25 297.00 L 424.44 306.00 L 424.62 315.00 L 424.81 324.00 L 424.90 333.00 L 425.15 342.00 L 425.23 351.00 L 425.38 360.00 L 425.58 369.00 L 425.71 378.00 L 425.83 387.00 L 426.01 396.00 L 426.09 405.00 L 426.16 414.00 L 426.24 423.00 L 426.37 432.00 L 426.43 441.00 L 426.41 450.00 L 426.39 459.00 L 426.47 468.00 L 426.36 477.00 L 426.37 486.00 L 426.31 495.00 L 426.19 504.00 L 426.09 513.00 L 426.12 522.00 L 425.97 531.00 L 425.82 540.00 L 425.65 549.00 L 425.55 558.00 L 425.30 567.00 L 425.13 576.00 L 424.94 585.00 L 424.75 594.00 L 424.57 603.00 L 424.48 612.00 L 424.25 621.00 L 424.03 630.00 L 423.88 639.00 L 423.70 648.00 L 423.49 657.00 L 423.32 666.00 L 423.15 675.00 L 422.97 684.00 L 422.78 693.00 L 422.59 702.00 L 427.41 711.00 L 437.38 720.00 L 441.85 729.00 L 441.40 738.00 L 441.72 747.00 L 441.82 756.00 L 442.75 765.00 L 443.05 774.00 L 443.10 783.00 L 442.79 792.00 L 442.58 801.00 L 443.96 810.00 L 443.81 819.00 L 442.95 828.00 L 443.02 837.00 L 443.18 846.00 L 443.55 855.00 L 443.29 864.00 L 443.38 873.00 L 442.58 882.00 L 441.84 891.00 L 442.49 900.00 Z M 463.83 900.00 L 459.69 891.00 L 460.47 882.00 L 460.63 873.00 L 460.78 864.00 L 461.03 855.00 L 460.56 846.00 L 461.47 837.00 L 461.59 828.00 L 461.40 819.00 L 460.96 810.00 L 460.67 801.00 L 460.95 792.00 L 461.80 783.00 L 460.59 774.00 L 461.28 765.00 L 460.28 756.00 L 460.37 747.00 L 460.82 738.00 L 459.60 729.00 L 459.62 720.00 L 459.82 711.00 L 458.10 702.00 L 459.07 693.00 L 458.22 684.00 L 458.17 675.00 L 456.75 666.00 L 456.47 657.00 L 455.52 648.00 L 455.81 639.00 L 454.73 630.00 L 454.43 621.00 L 454.44 612.00 L 455.17 603.00 L 454.82 594.00 L 454.94 585.00 L 454.93 576.00 L 454.42 567.00 L 455.23 558.00 L 454.90 549.00 L 454.99 540.00 L 455.61 531.00 L 455.99 522.00 L 456.68 513.00 L 458.19 504.00 L 457.40 495.00 L 457.77 486.00 L 459.45 477.00 L 459.22 468.00 L 460.77 459.00 L 460.56 450.00 L 461.18 441.00 L 461.78 432.00 L 461.16 423.00 L 462.87 414.00 L 461.62 405.00 L 461.67 396.00 L 463.09 387.00 L 461.67 378.00 L 461.57 369.00 L 461.32 360.00 L 462.05 351.00 L 462.23 342.00 L 461.33 333.00 L 461.22 324.00 L 461.08 315.00 L 460.09 306.00 L 460.44 297.00 L 460.07 288.00 L 459.73 279.00 L 458.62 270.00 L 458.00 261.00 L 458.75 252.00 L 458.86 243.00 L 458.27 234.00 L 457.41 225.00 L 457.36 216.00 L 457.42 207.00 L 457.42 198.00 L 458.68 189.00 L 458.57 180.00 L 458.27 171.00 L 458.10 162.00 L 458.09 153.00 L 459.60 144.00 L 459.17 135.00 L 459.81 126.00 L 459.48 117.00 L 459.87 108.00 L 459.89 99.00 L 459.82 90.00 L 460.53 81.00 L 460.98 72.00 L 461.03 63.00 L 463.68 54.00 L 474.01 45.00 L 477.06 36.00 L 477.08 27.00 L 477.09 18.00 L 477.11 9.00 L 477.12 0.00 L 482.89 0.00 L 482.90 9.00 L 482.92 18.00 L 482.93 27.00 L 482.95 36.00 L 486.29 45.00 L 497.66 54.00 L 500.55 63.00 L 500.60 72.00 L 501.08 81.00 L 501.85 90.00 L 501.86 99.00 L 501.98 108.00 L 502.50 117.00 L 502.33 126.00 L 503.15 135.00 L 502.92 144.00 L 504.65 153.00 L 504.88 162.00 L 504.97 171.00 L 504.94 180.00 L 505.12 189.00 L 506.67 198.00 L 506.98 207.00 L 507.36 216.00 L 507.62 225.00 L 507.08 234.00 L 506.81 243.00 L 507.24 252.00 L 508.29 261.00 L 507.98 270.00 L 507.15 279.00 L 507.09 288.00 L 506.97 297.00 L 507.57 306.00 L 506.79 315.00 L 506.86 324.00 L 506.92 333.00 L 506.16 342.00 L 506.47 351.00 L 507.28 360.00 L 507.08 369.00 L 507.01 378.00 L 505.58 387.00 L 506.96 396.00 L 506.94 405.00 L 505.59 414.00 L 507.17 423.00 L 506.38 432.00 L 506.78 441.00 L 507.19 450.00 L 506.73 459.00 L 508.01 468.00 L 507.49 477.00 L 508.86 486.00 L 508.92 495.00 L 507.80 504.00 L 508.97 513.00 L 509.32 522.00 L 509.36 531.00 L 509.64 540.00 L 509.40 549.00 L 508.74 558.00 L 509.24 567.00 L 508.43 576.00 L 508.15 585.00 L 508.01 594.00 L 507.44 603.00 L 507.95 612.00 L 507.79 621.00 L 507.33 630.00 L 506.14 639.00 L 506.34 648.00 L 505.32 657.00 L 505.01 666.00 L 503.58 675.00 L 503.56 684.00 L 502.77 693.00 L 503.82 702.00 L 502.21 711.00 L 502.55 720.00 L 502.73 729.00 L 501.68 738.00 L 502.33 747.00 L 502.65 756.00 L 501.88 765.00 L 502.81 774.00 L 501.86 783.00 L 502.97 792.00 L 503.53 801.00 L 503.52 810.00 L 503.36 819.00 L 503.44 828.00 L 503.83 837.00 L 505.01 846.00 L 504.80 855.00 L 505.30 864.00 L 505.69 873.00 L 506.08 882.00 L 507.05 891.00 L 501.92 900.00 Z M 540.32 900.00 L 540.32 891.00 L 540.31 882.00 L 540.30 873.00 L 540.30 864.00 L 540.28 855.00 L 540.27 846.00 L 540.25 837.00 L 540.23 828.00 L 540.21 819.00 L 540.18 810.00 L 540.15 801.00 L 540.12 792.00 L 540.08 783.00 L 540.03 774.00 L 539.97 765.00 L 539.91 756.00 L 539.84 747.00 L 539.76 738.00 L 539.68 729.00 L 539.59 720.00 L 539.48 711.00 L 539.37 702.00 L 539.25 693.00 L 539.12 684.00 L 538.98 675.00 L 538.84 666.00 L 538.68 657.00 L 538.51 648.00 L 538.34 639.00 L 538.17 630.00 L 538.00 621.00 L 537.84 612.00 L 537.68 603.00 L 537.51 594.00 L 537.32 585.00 L 537.18 576.00 L 537.05 567.00 L 536.86 558.00 L 536.78 549.00 L 536.65 540.00 L 536.50 531.00 L 536.42 522.00 L 536.34 513.00 L 536.22 504.00 L 536.17 495.00 L 536.18 486.00 L 536.12 477.00 L 536.03 468.00 L 536.05 459.00 L 536.04 450.00 L 536.04 441.00 L 536.12 432.00 L 536.14 423.00 L 536.16 414.00 L 536.27 405.00 L 536.32 396.00 L 536.48 387.00 L 536.55 378.00 L 536.73 369.00 L 536.88 360.00 L 537.04 351.00 L 537.20 342.00 L 537.38 333.00 L 537.57 324.00 L 537.74 315.00 L 537.92 306.00 L 538.12 297.00 L 538.31 288.00 L 538.49 279.00 L 538.65 270.00 L 538.82 261.00 L 538.97 252.00 L 539.12 243.00 L 539.25 234.00 L 539.38 225.00 L 539.49 216.00 L 539.60 207.00 L 539.70 198.00 L 539.78 189.00 L 539.86 180.00 L 539.93 171.00 L 539.99 162.00 L 540.04 153.00 L 540.09 144.00 L 540.13 135.00 L 540.17 126.00 L 540.20 117.00 L 540.22 108.00 L 540.24 99.00 L 540.26 90.00 L 540.28 81.00 L 540.29 72.00 L 540.30 63.00 L 540.31 54.00 L 540.32 45.00 L 540.32 36.00 L 540.33 27.00 L 540.33 18.00 L 540.33 9.00 L 540.34 0.00 L 547.67 0.00 L 547.67 9.00 L 547.67 18.00 L 547.67 27.00 L 547.68 36.00 L 547.68 45.00 L 547.69 54.00 L 547.70 63.00 L 547.71 72.00 L 547.72 81.00 L 547.73 90.00 L 547.75 99.00 L 547.76 108.00 L 547.79 117.00 L 547.81 126.00 L 547.84 135.00 L 547.87 144.00 L 547.91 153.00 L 547.95 162.00 L 548.00 171.00 L 548.06 180.00 L 548.12 189.00 L 548.20 198.00 L 548.28 207.00 L 548.37 216.00 L 548.47 225.00 L 548.58 234.00 L 548.70 243.00 L 548.84 252.00 L 548.98 261.00 L 549.14 270.00 L 549.31 279.00 L 549.49 288.00 L 549.69 297.00 L 549.90 306.00 L 550.10 315.00 L 550.30 324.00 L 550.54 333.00 L 550.75 342.00 L 550.97 351.00 L 551.18 360.00 L 551.40 369.00 L 551.65 378.00 L 551.78 387.00 L 552.02 396.00 L 552.14 405.00 L 552.31 414.00 L 552.40 423.00 L 552.48 432.00 L 552.61 441.00 L 552.66 450.00 L 552.68 459.00 L 552.73 468.00 L 552.66 477.00 L 552.61 486.00 L 552.60 495.00 L 552.54 504.00 L 552.39 513.00 L 552.28 522.00 L 552.16 531.00 L 551.95 540.00 L 551.77 549.00 L 551.63 558.00 L 551.38 567.00 L 551.18 576.00 L 550.98 585.00 L 550.73 594.00 L 550.51 603.00 L 550.30 612.00 L 550.09 621.00 L 549.87 630.00 L 549.67 639.00 L 549.47 648.00 L 549.27 657.00 L 549.10 666.00 L 548.95 675.00 L 548.79 684.00 L 548.66 693.00 L 548.54 702.00 L 548.43 711.00 L 548.32 720.00 L 548.23 729.00 L 548.16 738.00 L 548.08 747.00 L 548.02 756.00 L 547.97 765.00 L 547.92 774.00 L 547.88 783.00 L 547.85 792.00 L 547.82 801.00 L 547.79 810.00 L 547.77 819.00 L 547.75 828.00 L 547.73 837.00 L 547.72 846.00 L 547.71 855.00 L 547.70 864.00 L 547.69 873.00 L 547.68 882.00 L 547.68 891.00 L 547.67 900.00 Z M 584.00 900.00 L 583.20 891.00 L 582.86 882.00 L 583.88 873.00 L 583.72 864.00 L 582.75 855.00 L 583.36 846.00 L 581.97 837.00 L 582.81 828.00 L 582.14 819.00 L 581.68 810.00 L 582.46 801.00 L 582.15 792.00 L 581.58 783.00 L 581.95 774.00 L 582.27 765.00 L 583.20 756.00 L 583.17 747.00 L 582.72 738.00 L 582.69 729.00 L 583.16 720.00 L 583.77 711.00 L 584.71 702.00 L 584.85 693.00 L 584.16 684.00 L 584.79 675.00 L 586.00 666.00 L 585.26 657.00 L 585.21 648.00 L 585.35 639.00 L 585.21 630.00 L 585.20 621.00 L 585.95 612.00 L 586.45 603.00 L 585.48 594.00 L 585.86 585.00 L 584.40 576.00 L 584.04 567.00 L 583.72 558.00 L 584.44 549.00 L 583.87 540.00 L 582.12 531.00 L 581.48 522.00 L 582.04 513.00 L 579.77 504.00 L 580.63 495.00 L 578.65 486.00 L 577.96 477.00 L 577.23 468.00 L 577.87 459.00 L 576.01 450.00 L 576.86 441.00 L 575.08 432.00 L 574.95 423.00 L 574.15 414.00 L 574.03 405.00 L 573.91 396.00 L 575.41 387.00 L 574.19 378.00 L 573.69 369.00 L 575.37 360.00 L 575.23 351.00 L 574.93 342.00 L 576.97 333.00 L 575.96 324.00 L 577.96 315.00 L 577.36 306.00 L 578.48 297.00 L 578.29 288.00 L 578.66 279.00 L 579.54 270.00 L 581.11 261.00 L 580.34 252.00 L 581.14 243.00 L 581.23 234.00 L 581.28 225.00 L 580.51 216.00 L 581.99 207.00 L 581.76 198.00 L 581.74 189.00 L 580.58 180.00 L 580.56 171.00 L 581.78 162.00 L 581.12 153.00 L 580.27 144.00 L 581.39 135.00 L 579.88 126.00 L 580.81 117.00 L 580.02 108.00 L 579.37 99.00 L 580.47 90.00 L 578.88 81.00 L 579.53 72.00 L 579.28 63.00 L 580.38 54.00 L 580.41 45.00 L 581.31 36.00 L 595.33 27.00 L 602.06 18.00 L 602.26 9.00 L 602.46 0.00 L 613.49 0.00 L 613.72 9.00 L 613.95 18.00 L 620.79 27.00 L 635.15 36.00 L 636.24 45.00 L 636.41 54.00 L 637.61 63.00 L 637.44 72.00 L 638.14 81.00 L 636.57 90.00 L 637.65 99.00 L 636.95 108.00 L 636.07 117.00 L 636.89 126.00 L 635.22 135.00 L 636.15 144.00 L 635.08 153.00 L 634.18 162.00 L 635.12 171.00 L 634.80 180.00 L 633.31 189.00 L 632.94 198.00 L 632.35 207.00 L 633.46 216.00 L 632.30 225.00 L 631.96 234.00 L 631.66 243.00 L 632.07 252.00 L 630.92 261.00 L 632.12 270.00 L 632.64 279.00 L 632.68 288.00 L 632.17 297.00 L 632.99 306.00 L 632.12 315.00 L 633.90 324.00 L 632.69 333.00 L 634.55 342.00 L 634.12 351.00 L 633.89 360.00 L 635.52 369.00 L 635.00 378.00 L 633.80 387.00 L 635.36 396.00 L 635.32 405.00 L 635.33 414.00 L 634.69 423.00 L 634.75 432.00 L 633.19 441.00 L 634.27 450.00 L 632.67 459.00 L 633.61 468.00 L 633.18 477.00 L 632.80 486.00 L 631.16 495.00 L 632.37 504.00 L 630.44 513.00 L 631.35 522.00 L 631.06 531.00 L 629.66 540.00 L 629.43 549.00 L 630.48 558.00 L 630.49 567.00 L 630.44 576.00 L 629.28 585.00 L 629.94 594.00 L 629.23 603.00 L 629.96 612.00 L 630.94 621.00 L 631.12 630.00 L 631.14 639.00 L 631.42 648.00 L 631.49 657.00 L 630.83 666.00 L 632.09 675.00 L 632.75 684.00 L 632.06 693.00 L 632.17 702.00 L 633.04 711.00 L 633.56 720.00 L 633.92 729.00 L 633.74 738.00 L 633.12 747.00 L 632.90 756.00 L 633.62 765.00 L 633.70 774.00 L 633.82 783.00 L 632.99 792.00 L 632.40 801.00 L 632.88 810.00 L 632.13 819.00 L 631.15 828.00 L 631.68 837.00 L 629.99 846.00 L 630.29 855.00 L 629.03 864.00 L 628.57 873.00 L 629.31 882.00 L 628.70 891.00 L 627.64 900.00 Z M 647.47 900.00 L 647.73 891.00 L 647.37 882.00 L 647.89 873.00 L 647.22 864.00 L 648.07 855.00 L 648.55 846.00 L 647.63 837.00 L 648.01 828.00 L 649.02 819.00 L 649.09 810.00 L 649.01 801.00 L 648.80 792.00 L 648.31 783.00 L 648.64 774.00 L 649.38 765.00 L 648.91 756.00 L 648.59 747.00 L 649.25 738.00 L 661.52 729.00 L 668.20 720.00 L 668.17 711.00 L 668.14 702.00 L 668.10 693.00 L 668.05 684.00 L 666.22 675.00 L 663.01 666.00 L 659.20 657.00 L 654.89 648.00 L 650.70 639.00 L 647.21 630.00 L 645.07 621.00 L 643.30 612.00 L 642.96 603.00 L 643.72 594.00 L 642.84 585.00 L 643.51 576.00 L 642.92 567.00 L 643.27 558.00 L 642.52 549.00 L 643.48 540.00 L 643.46 531.00 L 642.97 522.00 L 643.06 513.00 L 643.21 504.00 L 643.23 495.00 L 644.18 486.00 L 644.62 477.00 L 644.32 468.00 L 645.13 459.00 L 644.86 450.00 L 646.52 441.00 L 646.82 432.00 L 647.70 423.00 L 647.28 414.00 L 646.90 405.00 L 648.17 396.00 L 646.92 387.00 L 646.47 378.00 L 648.22 369.00 L 647.49 360.00 L 646.45 351.00 L 646.42 342.00 L 646.46 333.00 L 647.83 324.00 L 649.72 315.00 L 652.74 306.00 L 656.21 297.00 L 659.18 288.00 L 662.07 279.00 L 663.81 270.00 L 664.16 261.00 L 664.45 252.00 L 664.76 243.00 L 665.06 234.00 L 658.83 225.00 L 645.09 216.00 L 644.39 207.00 L 644.30 198.00 L 644.56 189.00 L 643.72 180.00 L 643.87 171.00 L 644.52 162.00 L 645.53 153.00 L 645.58 144.00 L 645.29 135.00 L 645.05 126.00 L 645.88 117.00 L 646.74 108.00 L 646.72 99.00 L 647.26 90.00 L 647.18 81.00 L 647.10 72.00 L 647.80 63.00 L 647.95 54.00 L 647.46 45.00 L 648.21 36.00 L 661.34 27.00 L 668.25 18.00 L 668.27 9.00 L 668.28 0.00 L 675.71 0.00 L 675.72 9.00 L 675.73 18.00 L 680.59 27.00 L 689.51 36.00 L 689.95 45.00 L 689.46 54.00 L 689.62 63.00 L 690.38 72.00 L 690.37 81.00 L 690.40 90.00 L 691.07 99.00 L 691.19 108.00 L 692.23 117.00 L 693.25 126.00 L 693.21 135.00 L 693.16 144.00 L 693.45 153.00 L 694.72 162.00 L 695.63 171.00 L 696.06 180.00 L 695.50 189.00 L 696.06 198.00 L 696.27 207.00 L 695.97 216.00 L 684.04 225.00 L 678.59 234.00 L 678.89 243.00 L 679.22 252.00 L 679.54 261.00 L 679.92 270.00 L 681.61 279.00 L 684.45 288.00 L 687.38 297.00 L 690.85 306.00 L 693.91 315.00 L 695.85 324.00 L 697.27 333.00 L 697.34 342.00 L 697.33 351.00 L 696.26 360.00 L 695.47 369.00 L 697.13 378.00 L 696.55 387.00 L 695.14 396.00 L 696.23 405.00 L 695.63 414.00 L 694.97 423.00 L 695.59 432.00 L 695.62 441.00 L 696.98 450.00 L 696.42 459.00 L 696.92 468.00 L 696.30 477.00 L 696.43 486.00 L 697.07 495.00 L 696.78 504.00 L 696.64 513.00 L 696.44 522.00 L 695.67 531.00 L 695.40 540.00 L 696.11 549.00 L 695.13 558.00 L 695.27 567.00 L 694.49 576.00 L 695.00 585.00 L 693.97 594.00 L 694.61 603.00 L 694.17 612.00 L 692.44 621.00 L 690.83 630.00 L 688.26 639.00 L 685.21 648.00 L 682.12 657.00 L 679.44 666.00 L 677.17 675.00 L 675.88 684.00 L 675.84 693.00 L 675.81 702.00 L 675.79 711.00 L 675.77 720.00 L 680.71 729.00 L 689.68 738.00 L 690.37 747.00 L 690.32 756.00 L 690.12 765.00 L 691.15 774.00 L 691.77 783.00 L 691.59 792.00 L 691.67 801.00 L 691.90 810.00 L 692.26 819.00 L 693.57 828.00 L 694.23 837.00 L 693.58 846.00 L 694.32 855.00 L 695.41 864.00 L 694.97 873.00 L 695.69 882.00 L 695.51 891.00 L 695.93 900.00 Z M 708.65 900.00 L 709.87 891.00 L 708.92 882.00 L 709.46 873.00 L 710.22 864.00 L 709.42 855.00 L 710.52 846.00 L 709.38 837.00 L 710.53 828.00 L 709.30 819.00 L 710.05 810.00 L 710.28 801.00 L 710.17 792.00 L 709.82 783.00 L 709.93 774.00 L 708.88 765.00 L 708.37 756.00 L 707.75 747.00 L 708.60 738.00 L 723.44 729.00 L 730.92 720.00 L 730.81 711.00 L 730.69 702.00 L 730.57 693.00 L 730.43 684.00 L 730.30 675.00 L 730.16 666.00 L 730.01 657.00 L 729.87 648.00 L 729.71 639.00 L 729.55 630.00 L 729.42 621.00 L 729.24 612.00 L 729.09 603.00 L 728.94 594.00 L 728.78 585.00 L 728.64 576.00 L 721.69 567.00 L 708.09 558.00 L 706.84 549.00 L 707.44 540.00 L 707.67 531.00 L 708.81 522.00 L 707.66 513.00 L 709.70 504.00 L 709.59 495.00 L 709.91 486.00 L 709.32 477.00 L 710.68 468.00 L 710.34 459.00 L 709.92 450.00 L 710.17 441.00 L 709.64 432.00 L 710.50 423.00 L 710.57 414.00 L 709.40 405.00 L 710.07 396.00 L 708.56 387.00 L 708.70 378.00 L 720.26 369.00 L 726.24 360.00 L 726.14 351.00 L 726.13 342.00 L 726.18 333.00 L 726.11 324.00 L 726.16 315.00 L 726.16 306.00 L 726.15 297.00 L 726.18 288.00 L 726.29 279.00 L 726.40 270.00 L 726.46 261.00 L 726.61 252.00 L 726.71 243.00 L 726.87 234.00 L 719.84 225.00 L 704.33 216.00 L 703.60 207.00 L 704.18 198.00 L 703.99 189.00 L 703.86 180.00 L 704.78 171.00 L 706.03 162.00 L 705.29 153.00 L 706.48 144.00 L 706.36 135.00 L 706.74 126.00 L 707.07 117.00 L 708.45 108.00 L 708.76 99.00 L 708.96 90.00 L 708.11 81.00 L 709.07 72.00 L 708.33 63.00 L 709.56 54.00 L 709.48 45.00 L 710.25 36.00 L 723.67 27.00 L 730.93 18.00 L 731.05 9.00 L 731.16 0.00 L 740.63 0.00 L 740.70 9.00 L 740.78 18.00 L 746.43 27.00 L 756.35 36.00 L 756.58 45.00 L 756.19 54.00 L 757.14 63.00 L 756.14 72.00 L 756.86 81.00 L 755.79 90.00 L 755.80 99.00 L 755.95 108.00 L 757.20 117.00 L 757.43 126.00 L 757.74 135.00 L 757.58 144.00 L 758.77 153.00 L 758.06 162.00 L 759.37 171.00 L 760.39 180.00 L 760.40 189.00 L 760.36 198.00 L 761.14 207.00 L 760.87 216.00 L 749.12 225.00 L 743.85 234.00 L 744.04 243.00 L 744.17 252.00 L 744.37 261.00 L 744.48 270.00 L 744.65 279.00 L 744.82 288.00 L 744.92 297.00 L 744.98 306.00 L 745.06 315.00 L 745.18 324.00 L 745.19 333.00 L 745.31 342.00 L 745.38 351.00 L 745.35 360.00 L 751.05 369.00 L 762.14 378.00 L 762.46 387.00 L 761.13 396.00 L 761.96 405.00 L 760.91 414.00 L 761.07 423.00 L 761.97 432.00 L 761.45 441.00 L 761.69 450.00 L 761.21 459.00 L 760.77 468.00 L 762.01 477.00 L 761.26 486.00 L 761.40 495.00 L 761.07 504.00 L 762.87 513.00 L 761.46 522.00 L 762.31 531.00 L 762.25 540.00 L 762.53 549.00 L 761.06 558.00 L 748.93 567.00 L 742.83 576.00 L 742.66 585.00 L 742.49 594.00 L 742.32 603.00 L 742.16 612.00 L 741.98 621.00 L 741.84 630.00 L 741.69 639.00 L 741.54 648.00 L 741.41 657.00 L 741.28 666.00 L 741.16 675.00 L 741.05 684.00 L 740.94 693.00 L 740.84 702.00 L 740.75 711.00 L 740.66 720.00 L 745.94 729.00 L 756.25 738.00 L 756.82 747.00 L 756.25 756.00 L 755.84 765.00 L 754.90 774.00 L 755.15 783.00 L 754.98 792.00 L 755.07 801.00 L 755.51 810.00 L 756.51 819.00 L 755.54 828.00 L 756.97 837.00 L 756.12 846.00 L 757.53 855.00 L 757.05 864.00 L 758.13 873.00 L 759.00 882.00 L 758.38 891.00 L 759.93 900.00 Z M 795.90 900.00 L 795.83 891.00 L 795.76 882.00 L 795.68 873.00 L 795.59 864.00 L 795.49 855.00 L 795.40 846.00 L 795.29 837.00 L 795.17 828.00 L 795.04 819.00 L 794.90 810.00 L 794.76 801.00 L 794.61 792.00 L 794.44 783.00 L 794.28 774.00 L 794.09 765.00 L 793.90 756.00 L 793.71 747.00 L 793.51 738.00 L 793.29 729.00 L 793.06 720.00 L 792.87 711.00 L 792.63 702.00 L 792.36 693.00 L 792.16 684.00 L 791.91 675.00 L 791.63 666.00 L 791.39 657.00 L 791.16 648.00 L 790.88 639.00 L 790.72 630.00 L 790.41 621.00 L 790.23 612.00 L 789.98 603.00 L 789.85 594.00 L 789.74 585.00 L 789.47 576.00 L 789.34 567.00 L 789.22 558.00 L 789.15 549.00 L 789.26 540.00 L 789.05 531.00 L 789.07 522.00 L 789.15 513.00 L 789.28 504.00 L 789.25 495.00 L 789.32 486.00 L 789.44 477.00 L 789.63 468.00 L 789.77 459.00 L 789.89 450.00 L 790.02 441.00 L 790.17 432.00 L 790.35 423.00 L 790.44 414.00 L 790.62 405.00 L 790.65 396.00 L 790.90 387.00 L 790.89 378.00 L 791.14 369.00 L 791.29 360.00 L 791.32 351.00 L 791.52 342.00 L 791.63 333.00 L 791.76 324.00 L 791.96 315.00 L 792.11 306.00 L 792.28 297.00 L 792.40 288.00 L 792.59 279.00 L 792.70 270.00 L 792.91 261.00 L 793.07 252.00 L 793.24 243.00 L 793.37 234.00 L 793.54 225.00 L 793.70 216.00 L 793.87 207.00 L 794.05 198.00 L 794.20 189.00 L 794.34 180.00 L 794.49 171.00 L 794.62 162.00 L 794.76 153.00 L 794.89 144.00 L 795.01 135.00 L 795.13 126.00 L 795.24 117.00 L 795.34 108.00 L 795.44 99.00 L 795.53 90.00 L 795.62 81.00 L 795.70 72.00 L 795.78 63.00 L 795.84 54.00 L 795.91 45.00 L 795.97 36.00 L 796.02 27.00 L 796.07 18.00 L 796.12 9.00 L 796.16 0.00 L 803.81 0.00 L 803.84 9.00 L 803.88 18.00 L 803.92 27.00 L 803.96 36.00 L 804.01 45.00 L 804.07 54.00 L 804.13 63.00 L 804.19 72.00 L 804.27 81.00 L 804.35 90.00 L 804.43 99.00 L 804.53 108.00 L 804.63 117.00 L 804.74 126.00 L 804.86 135.00 L 804.99 144.00 L 805.13 153.00 L 805.28 162.00 L 805.44 171.00 L 805.62 180.00 L 805.79 189.00 L 805.97 198.00 L 806.20 207.00 L 806.41 216.00 L 806.63 225.00 L 806.85 234.00 L 807.05 243.00 L 807.29 252.00 L 807.51 261.00 L 807.80 270.00 L 807.99 279.00 L 808.25 288.00 L 808.45 297.00 L 808.69 306.00 L 808.91 315.00 L 809.17 324.00 L 809.37 333.00 L 809.53 342.00 L 809.77 351.00 L 809.83 360.00 L 810.01 369.00 L 810.27 378.00 L 810.26 387.00 L 810.50 396.00 L 810.49 405.00 L 810.64 414.00 L 810.68 423.00 L 810.80 432.00 L 810.87 441.00 L 810.92 450.00 L 810.94 459.00 L 810.98 468.00 L 811.06 477.00 L 811.06 486.00 L 811.02 495.00 L 810.87 504.00 L 810.89 513.00 L 810.86 522.00 L 810.78 531.00 L 810.46 540.00 L 810.48 549.00 L 810.32 558.00 L 810.12 567.00 L 809.92 576.00 L 809.60 585.00 L 809.45 594.00 L 809.29 603.00 L 809.02 612.00 L 808.83 621.00 L 808.52 630.00 L 808.38 639.00 L 808.12 648.00 L 807.91 657.00 L 807.71 666.00 L 807.47 675.00 L 807.27 684.00 L 807.12 693.00 L 806.91 702.00 L 806.72 711.00 L 806.58 720.00 L 806.41 729.00 L 806.24 738.00 L 806.09 747.00 L 805.95 756.00 L 805.80 765.00 L 805.64 774.00 L 805.53 783.00 L 805.38 792.00 L 805.27 801.00 L 805.14 810.00 L 805.02 819.00 L 804.92 828.00 L 804.81 837.00 L 804.71 846.00 L 804.61 855.00 L 804.52 864.00 L 804.44 873.00 L 804.35 882.00 L 804.28 891.00 L 804.21 900.00 Z M 845.24 900.00 L 845.34 891.00 L 846.05 882.00 L 846.21 873.00 L 845.72 864.00 L 845.81 855.00 L 845.88 846.00 L 846.26 837.00 L 846.03 828.00 L 846.27 819.00 L 845.31 810.00 L 845.87 801.00 L 845.65 792.00 L 844.91 783.00 L 845.28 774.00 L 844.02 765.00 L 844.20 756.00 L 843.72 747.00 L 844.66 738.00 L 855.24 729.00 L 860.46 720.00 L 860.46 711.00 L 860.46 702.00 L 860.45 693.00 L 860.45 684.00 L 860.44 675.00 L 860.43 666.00 L 860.42 657.00 L 860.40 648.00 L 860.38 639.00 L 860.36 630.00 L 860.33 621.00 L 860.30 612.00 L 860.26 603.00 L 860.21 594.00 L 860.16 585.00 L 860.09 576.00 L 855.59 567.00 L 846.88 558.00 L 847.06 549.00 L 846.17 540.00 L 847.55 531.00 L 846.69 522.00 L 847.98 513.00 L 846.98 504.00 L 847.93 495.00 L 848.29 486.00 L 847.61 477.00 L 847.86 468.00 L 847.46 459.00 L 846.52 450.00 L 846.24 441.00 L 846.92 432.00 L 846.25 423.00 L 845.99 414.00 L 844.27 405.00 L 843.81 396.00 L 842.70 387.00 L 843.80 378.00 L 851.12 369.00 L 855.32 360.00 L 855.17 351.00 L 855.03 342.00 L 855.05 333.00 L 854.92 324.00 L 855.04 315.00 L 855.15 306.00 L 855.22 297.00 L 855.32 288.00 L 855.58 279.00 L 855.80 270.00 L 856.09 261.00 L 856.34 252.00 L 856.63 243.00 L 856.97 234.00 L 852.33 225.00 L 842.87 216.00 L 842.33 207.00 L 842.70 198.00 L 843.58 189.00 L 843.84 180.00 L 843.56 171.00 L 843.88 162.00 L 845.28 153.00 L 844.95 144.00 L 844.89 135.00 L 845.69 126.00 L 845.67 117.00 L 845.36 108.00 L 845.91 99.00 L 846.60 90.00 L 845.84 81.00 L 846.23 72.00 L 845.58 63.00 L 846.25 54.00 L 846.05 45.00 L 846.79 36.00 L 855.73 27.00 L 860.42 18.00 L 860.43 9.00 L 860.44 0.00 L 867.57 0.00 L 867.58 9.00 L 867.59 18.00 L 873.86 27.00 L 885.70 36.00 L 886.37 45.00 L 885.90 54.00 L 886.30 63.00 L 885.39 72.00 L 885.53 81.00 L 884.55 90.00 L 885.01 99.00 L 885.35 108.00 L 884.86 117.00 L 884.67 126.00 L 885.33 135.00 L 885.15 144.00 L 884.72 153.00 L 886.05 162.00 L 886.32 171.00 L 886.03 180.00 L 886.30 189.00 L 887.22 198.00 L 887.67 207.00 L 887.16 216.00 L 876.64 225.00 L 871.48 234.00 L 871.89 243.00 L 872.26 252.00 L 872.61 261.00 L 872.99 270.00 L 873.32 279.00 L 873.70 288.00 L 873.92 297.00 L 874.11 306.00 L 874.34 315.00 L 874.57 324.00 L 874.56 333.00 L 874.67 342.00 L 874.61 351.00 L 874.53 360.00 L 880.37 369.00 L 891.17 378.00 L 892.75 387.00 L 891.86 396.00 L 891.59 405.00 L 890.04 414.00 L 889.90 423.00 L 889.34 432.00 L 890.09 441.00 L 889.86 450.00 L 888.92 459.00 L 888.51 468.00 L 888.72 477.00 L 887.97 486.00 L 888.24 495.00 L 889.08 504.00 L 887.94 513.00 L 889.08 522.00 L 888.05 531.00 L 889.24 540.00 L 888.14 549.00 L 887.82 558.00 L 874.69 567.00 L 868.08 576.00 L 867.98 585.00 L 867.89 594.00 L 867.82 603.00 L 867.76 612.00 L 867.71 621.00 L 867.67 630.00 L 867.64 639.00 L 867.62 648.00 L 867.60 657.00 L 867.58 666.00 L 867.57 675.00 L 867.56 684.00 L 867.55 693.00 L 867.55 702.00 L 867.54 711.00 L 867.54 720.00 L 873.47 729.00 L 885.35 738.00 L 886.26 747.00 L 885.68 756.00 L 885.79 765.00 L 884.48 774.00 L 884.83 783.00 L 884.09 792.00 L 883.91 801.00 L 884.53 810.00 L 883.65 819.00 L 883.99 828.00 L 883.90 837.00 L 884.43 846.00 L 884.67 855.00 L 884.96 864.00 L 884.67 873.00 L 885.06 882.00 L 886.01 891.00 L 886.37 900.00 Z M 903.77 900.00 L 903.72 891.00 L 903.33 882.00 L 903.73 873.00 L 903.26 864.00 L 903.10 855.00 L 903.60 846.00 L 902.70 837.00 L 904.13 828.00 L 903.02 819.00 L 903.07 810.00 L 904.61 801.00 L 903.49 792.00 L 904.66 783.00 L 904.56 774.00 L 904.21 765.00 L 904.49 756.00 L 905.08 747.00 L 906.23 738.00 L 916.93 729.00 L 922.81 720.00 L 922.64 711.00 L 922.44 702.00 L 922.23 693.00 L 922.03 684.00 L 921.79 675.00 L 921.59 666.00 L 921.32 657.00 L 921.06 648.00 L 920.83 639.00 L 920.53 630.00 L 920.26 621.00 L 920.01 612.00 L 919.67 603.00 L 919.41 594.00 L 919.06 585.00 L 918.78 576.00 L 918.46 567.00 L 910.03 558.00 L 896.84 549.00 L 895.44 540.00 L 895.00 531.00 L 893.84 522.00 L 893.47 513.00 L 895.16 504.00 L 894.57 495.00 L 895.25 486.00 L 893.98 477.00 L 894.32 468.00 L 896.08 459.00 L 896.19 450.00 L 896.12 441.00 L 897.63 432.00 L 896.85 423.00 L 898.46 414.00 L 897.70 405.00 L 898.86 396.00 L 901.24 387.00 L 909.62 378.00 L 916.22 369.00 L 916.30 360.00 L 916.23 351.00 L 916.32 342.00 L 916.65 333.00 L 916.74 324.00 L 916.70 315.00 L 916.75 306.00 L 916.84 297.00 L 917.14 288.00 L 917.07 279.00 L 917.36 270.00 L 917.46 261.00 L 917.61 252.00 L 917.62 243.00 L 917.72 234.00 L 912.63 225.00 L 901.60 216.00 L 898.72 207.00 L 899.05 198.00 L 900.04 189.00 L 899.30 180.00 L 898.08 171.00 L 898.20 162.00 L 898.03 153.00 L 899.17 144.00 L 898.98 135.00 L 898.72 126.00 L 899.30 117.00 L 899.36 108.00 L 899.38 99.00 L 900.12 90.00 L 900.37 81.00 L 900.84 72.00 L 900.24 63.00 L 901.31 54.00 L 902.25 45.00 L 903.29 36.00 L 915.76 27.00 L 922.42 18.00 L 922.60 9.00 L 922.77 0.00 L 932.65 0.00 L 932.79 9.00 L 932.95 18.00 L 938.15 27.00 L 947.90 36.00 L 948.99 45.00 L 950.20 54.00 L 951.54 63.00 L 951.24 72.00 L 952.01 81.00 L 952.57 90.00 L 953.63 99.00 L 953.97 108.00 L 954.35 117.00 L 955.25 126.00 L 955.30 135.00 L 955.42 144.00 L 956.85 153.00 L 956.95 162.00 L 957.33 171.00 L 956.35 180.00 L 955.82 189.00 L 957.00 198.00 L 957.50 207.00 L 954.74 216.00 L 943.60 225.00 L 938.44 234.00 L 938.55 243.00 L 938.56 252.00 L 938.70 261.00 L 938.78 270.00 L 939.04 279.00 L 938.92 288.00 L 939.17 297.00 L 939.19 306.00 L 939.15 315.00 L 939.01 324.00 L 939.01 333.00 L 939.23 342.00 L 939.20 351.00 L 939.01 360.00 L 938.95 369.00 L 944.73 378.00 L 951.73 387.00 L 953.66 396.00 L 954.44 405.00 L 953.31 414.00 L 954.56 423.00 L 953.43 432.00 L 954.61 441.00 L 954.22 450.00 L 954.05 459.00 L 955.54 468.00 L 955.65 477.00 L 954.18 486.00 L 954.68 495.00 L 953.95 504.00 L 955.54 513.00 L 955.10 522.00 L 953.90 531.00 L 953.47 540.00 L 952.30 549.00 L 942.15 558.00 L 935.85 567.00 L 935.62 576.00 L 935.44 585.00 L 935.18 594.00 L 935.02 603.00 L 934.78 612.00 L 934.63 621.00 L 934.47 630.00 L 934.27 639.00 L 934.13 648.00 L 933.97 657.00 L 933.78 666.00 L 933.66 675.00 L 933.50 684.00 L 933.37 693.00 L 933.23 702.00 L 933.09 711.00 L 932.96 720.00 L 938.39 729.00 L 948.36 738.00 L 949.73 747.00 L 950.59 756.00 L 951.12 765.00 L 951.00 774.00 L 951.10 783.00 L 952.45 792.00 L 951.48 801.00 L 953.16 810.00 L 953.30 819.00 L 952.26 828.00 L 953.74 837.00 L 952.85 846.00 L 953.34 855.00 L 953.14 864.00 L 952.60 873.00 L 952.90 882.00 L 952.39 891.00 L 952.19 900.00 Z M 972.02 900.00 L 971.89 891.00 L 971.21 882.00 L 971.13 873.00 L 970.91 864.00 L 970.96 855.00 L 971.85 846.00 L 971.23 837.00 L 971.23 828.00 L 972.19 819.00 L 972.11 810.00 L 972.11 801.00 L 972.44 792.00 L 972.32 783.00 L 972.60 774.00 L 972.70 765.00 L 971.96 756.00 L 972.12 747.00 L 973.72 738.00 L 981.37 729.00 L 985.36 720.00 L 985.19 711.00 L 984.97 702.00 L 984.80 693.00 L 984.69 684.00 L 984.52 675.00 L 984.39 666.00 L 984.23 657.00 L 984.08 648.00 L 983.96 639.00 L 983.92 630.00 L 983.82 621.00 L 983.72 612.00 L 983.69 603.00 L 983.67 594.00 L 983.72 585.00 L 983.70 576.00 L 983.76 567.00 L 983.87 558.00 L 983.96 549.00 L 984.09 540.00 L 984.20 531.00 L 984.36 522.00 L 984.53 513.00 L 984.71 504.00 L 984.90 495.00 L 984.87 486.00 L 984.49 477.00 L 984.46 468.00 L 984.91 459.00 L 985.70 450.00 L 986.12 441.00 L 986.33 432.00 L 986.51 423.00 L 986.69 414.00 L 986.86 405.00 L 987.01 396.00 L 987.17 387.00 L 987.31 378.00 L 987.43 369.00 L 987.56 360.00 L 987.67 351.00 L 987.76 342.00 L 987.86 333.00 L 987.94 324.00 L 988.01 315.00 L 988.08 306.00 L 988.14 297.00 L 988.19 288.00 L 988.24 279.00 L 988.28 270.00 L 988.32 261.00 L 988.35 252.00 L 988.38 243.00 L 988.41 234.00 L 985.31 225.00 L 975.42 216.00 L 972.47 207.00 L 972.11 198.00 L 972.74 189.00 L 972.43 180.00 L 971.44 171.00 L 971.91 162.00 L 971.66 153.00 L 972.01 144.00 L 971.55 135.00 L 970.78 126.00 L 971.00 117.00 L 971.44 108.00 L 971.04 99.00 L 971.13 90.00 L 971.51 81.00 L 971.84 72.00 L 971.38 63.00 L 972.58 54.00 L 972.26 45.00 L 974.63 36.00 L 984.96 27.00 L 988.55 18.00 L 988.55 9.00 L 988.55 0.00 L 995.45 0.00 L 995.45 9.00 L 995.45 18.00 L 999.34 27.00 L 1010.83 36.00 L 1013.62 45.00 L 1013.54 54.00 L 1015.00 63.00 L 1014.81 72.00 L 1015.41 81.00 L 1016.06 90.00 L 1016.43 99.00 L 1016.31 108.00 L 1017.03 117.00 L 1017.51 126.00 L 1017.01 135.00 L 1016.81 144.00 L 1017.39 153.00 L 1017.37 162.00 L 1018.05 171.00 L 1017.26 180.00 L 1017.12 189.00 L 1017.90 198.00 L 1017.67 207.00 L 1014.12 216.00 L 1000.08 225.00 L 995.66 234.00 L 995.70 243.00 L 995.74 252.00 L 995.78 261.00 L 995.84 270.00 L 995.89 279.00 L 995.96 288.00 L 996.03 297.00 L 996.11 306.00 L 996.20 315.00 L 996.29 324.00 L 996.39 333.00 L 996.50 342.00 L 996.62 351.00 L 996.74 360.00 L 996.88 369.00 L 997.01 378.00 L 997.16 387.00 L 997.32 396.00 L 997.47 405.00 L 997.65 414.00 L 997.82 423.00 L 997.99 432.00 L 998.19 441.00 L 998.62 450.00 L 999.43 459.00 L 999.88 468.00 L 999.80 477.00 L 999.35 486.00 L 999.29 495.00 L 999.45 504.00 L 999.61 513.00 L 999.78 522.00 L 999.93 531.00 L 1000.03 540.00 L 1000.16 549.00 L 1000.25 558.00 L 1000.38 567.00 L 1000.46 576.00 L 1000.47 585.00 L 1000.56 594.00 L 1000.58 603.00 L 1000.60 612.00 L 1000.54 621.00 L 1000.50 630.00 L 1000.51 639.00 L 1000.45 648.00 L 1000.35 657.00 L 1000.25 666.00 L 1000.17 675.00 L 1000.05 684.00 L 999.98 693.00 L 999.85 702.00 L 999.65 711.00 L 999.51 720.00 L 1004.79 729.00 L 1015.30 738.00 L 1017.34 747.00 L 1017.72 756.00 L 1017.19 765.00 L 1017.47 774.00 L 1017.92 783.00 L 1017.94 792.00 L 1018.38 801.00 L 1018.47 810.00 L 1018.46 819.00 L 1019.46 828.00 L 1019.47 837.00 L 1018.83 846.00 L 1019.69 855.00 L 1019.67 864.00 L 1019.36 873.00 L 1019.17 882.00 L 1018.36 891.00 L 1018.06 900.00 Z M 1052.24 900.00 L 1052.22 891.00 L 1052.18 882.00 L 1052.15 873.00 L 1052.11 864.00 L 1052.07 855.00 L 1052.02 846.00 L 1051.97 837.00 L 1051.91 828.00 L 1051.84 819.00 L 1051.77 810.00 L 1051.69 801.00 L 1051.60 792.00 L 1051.51 783.00 L 1051.40 774.00 L 1051.29 765.00 L 1051.17 756.00 L 1051.04 747.00 L 1050.90 738.00 L 1050.74 729.00 L 1050.59 720.00 L 1050.42 711.00 L 1050.22 702.00 L 1050.03 693.00 L 1049.82 684.00 L 1049.59 675.00 L 1049.37 666.00 L 1049.13 657.00 L 1048.87 648.00 L 1048.60 639.00 L 1048.32 630.00 L 1048.06 621.00 L 1047.75 612.00 L 1047.47 603.00 L 1047.16 594.00 L 1046.89 585.00 L 1046.54 576.00 L 1046.29 567.00 L 1045.92 558.00 L 1045.67 549.00 L 1045.33 540.00 L 1045.11 531.00 L 1044.77 522.00 L 1044.56 513.00 L 1044.29 504.00 L 1044.19 495.00 L 1043.89 486.00 L 1043.74 477.00 L 1043.73 468.00 L 1043.52 459.00 L 1043.56 450.00 L 1043.37 441.00 L 1043.45 432.00 L 1043.20 423.00 L 1043.31 414.00 L 1043.33 405.00 L 1043.19 396.00 L 1043.32 387.00 L 1043.21 378.00 L 1043.44 369.00 L 1043.38 360.00 L 1043.33 351.00 L 1043.41 342.00 L 1043.54 333.00 L 1043.66 324.00 L 1043.56 315.00 L 1043.74 306.00 L 1043.63 297.00 L 1043.78 288.00 L 1043.90 279.00 L 1043.86 270.00 L 1043.92 261.00 L 1044.06 252.00 L 1044.29 243.00 L 1044.36 234.00 L 1044.63 225.00 L 1044.72 216.00 L 1044.95 207.00 L 1045.16 198.00 L 1045.31 189.00 L 1045.57 180.00 L 1045.87 171.00 L 1046.12 162.00 L 1046.40 153.00 L 1046.58 144.00 L 1046.85 135.00 L 1047.16 126.00 L 1047.44 117.00 L 1047.65 108.00 L 1047.94 99.00 L 1048.19 90.00 L 1048.42 81.00 L 1048.66 72.00 L 1048.90 63.00 L 1049.12 54.00 L 1049.33 45.00 L 1049.55 36.00 L 1049.76 27.00 L 1049.94 18.00 L 1050.14 9.00 L 1050.31 0.00 L 1061.01 0.00 L 1061.13 9.00 L 1061.27 18.00 L 1061.40 27.00 L 1061.55 36.00 L 1061.73 45.00 L 1061.89 54.00 L 1062.06 63.00 L 1062.28 72.00 L 1062.48 81.00 L 1062.69 90.00 L 1062.91 99.00 L 1063.19 108.00 L 1063.40 117.00 L 1063.68 126.00 L 1064.01 135.00 L 1064.30 144.00 L 1064.51 153.00 L 1064.83 162.00 L 1065.13 171.00 L 1065.47 180.00 L 1065.78 189.00 L 1066.00 198.00 L 1066.26 207.00 L 1066.56 216.00 L 1066.71 225.00 L 1067.04 234.00 L 1067.17 243.00 L 1067.45 252.00 L 1067.63 261.00 L 1067.73 270.00 L 1067.71 279.00 L 1067.85 288.00 L 1068.01 297.00 L 1067.89 306.00 L 1068.05 315.00 L 1067.92 324.00 L 1067.99 333.00 L 1068.07 342.00 L 1068.08 351.00 L 1067.95 360.00 L 1067.81 369.00 L 1067.94 378.00 L 1067.73 387.00 L 1067.75 396.00 L 1067.51 405.00 L 1067.42 414.00 L 1067.42 423.00 L 1067.07 432.00 L 1067.05 441.00 L 1066.76 450.00 L 1066.71 459.00 L 1066.43 468.00 L 1066.35 477.00 L 1066.15 486.00 L 1065.81 495.00 L 1065.68 504.00 L 1065.39 513.00 L 1065.19 522.00 L 1064.86 531.00 L 1064.66 540.00 L 1064.37 549.00 L 1064.16 558.00 L 1063.85 567.00 L 1063.67 576.00 L 1063.39 585.00 L 1063.20 594.00 L 1062.98 603.00 L 1062.79 612.00 L 1062.58 621.00 L 1062.41 630.00 L 1062.23 639.00 L 1062.06 648.00 L 1061.90 657.00 L 1061.75 666.00 L 1061.61 675.00 L 1061.47 684.00 L 1061.33 693.00 L 1061.22 702.00 L 1061.09 711.00 L 1060.99 720.00 L 1060.88 729.00 L 1060.78 738.00 L 1060.69 747.00 L 1060.60 756.00 L 1060.52 765.00 L 1060.44 774.00 L 1060.36 783.00 L 1060.29 792.00 L 1060.22 801.00 L 1060.16 810.00 L 1060.10 819.00 L 1060.05 828.00 L 1060.00 837.00 L 1059.95 846.00 L 1059.91 855.00 L 1059.87 864.00 L 1059.84 873.00 L 1059.80 882.00 L 1059.77 891.00 L 1059.75 900.00 Z" fill="#11100e"/>
</svg>
